SplineFontDB: 3.0
FontName: Tarale
FullName: Tarale Bold
FamilyName: Tarale
Weight: Bold
Copyright: Copyright (c) 2016, root
Version: 2
ItalicAngle: 0
UnderlinePosition: -200
UnderlineWidth: 50
Ascent: 800
Descent: 200
InvalidEm: 0
sfntRevision: 0x00020000
LayerCount: 2
Layer: 0 1 "Back" 1
Layer: 1 1 "Fore" 0
XUID: [1021 542 -2071320729 16028183]
StyleMap: 0x0000
FSType: 0
OS2Version: 4
OS2_WeightWidthSlopeOnly: 0
OS2_UseTypoMetrics: 1
CreationTime: 1473828762
ModificationTime: 1474371281
PfmFamily: 17
TTFWeight: 400
TTFWidth: 5
LineGap: 90
VLineGap: 0
Panose: 2 0 5 3 0 0 0 0 0 0
OS2TypoAscent: 800
OS2TypoAOffset: 0
OS2TypoDescent: -200
OS2TypoDOffset: 0
OS2TypoLinegap: 90
OS2WinAscent: 691
OS2WinAOffset: 0
OS2WinDescent: 192
OS2WinDOffset: 0
HheadAscent: 691
HheadAOffset: 0
HheadDescent: -192
HheadDOffset: 0
OS2SubXSize: 650
OS2SubYSize: 700
OS2SubXOff: 0
OS2SubYOff: 140
OS2SupXSize: 650
OS2SupYSize: 700
OS2SupXOff: 0
OS2SupYOff: 480
OS2StrikeYSize: 49
OS2StrikeYPos: 258
OS2CapHeight: 608
OS2XHeight: 451
OS2Vendor: 'PfEd'
OS2CodePages: 00000001.00000000
OS2UnicodeRanges: 80000037.40000002.00000000.00000000
Lookup: 258 0 0 "'kern' Horizontal Kerning in Latin lookup 0" { "'kern' Horizontal Kerning in Latin lookup 0 subtable"  } ['kern' ('latn' <'dflt' > ) ]
MarkAttachClasses: 1
DEI: 91125
TtTable: prep
PUSHW_1
 511
SCANCTRL
PUSHB_1
 1
SCANTYPE
SVTCA[y-axis]
MPPEM
PUSHB_1
 8
LT
IF
PUSHB_2
 1
 1
INSTCTRL
EIF
PUSHB_2
 70
 6
CALL
IF
POP
PUSHB_1
 16
EIF
MPPEM
PUSHB_1
 20
GT
IF
POP
PUSHB_1
 128
EIF
SCVTCI
PUSHB_1
 6
CALL
NOT
IF
EIF
PUSHB_1
 20
CALL
EndTTInstrs
TtTable: fpgm
PUSHB_1
 0
FDEF
PUSHB_1
 0
SZP0
MPPEM
PUSHB_1
 42
LT
IF
PUSHB_1
 74
SROUND
EIF
PUSHB_1
 0
SWAP
MIAP[rnd]
RTG
PUSHB_1
 6
CALL
IF
RTDG
EIF
MPPEM
PUSHB_1
 42
LT
IF
RDTG
EIF
DUP
MDRP[rp0,rnd,grey]
PUSHB_1
 1
SZP0
MDAP[no-rnd]
RTG
ENDF
PUSHB_1
 1
FDEF
DUP
MDRP[rp0,min,white]
PUSHB_1
 12
CALL
ENDF
PUSHB_1
 2
FDEF
MPPEM
GT
IF
RCVT
SWAP
EIF
POP
ENDF
PUSHB_1
 3
FDEF
ROUND[Black]
RTG
DUP
PUSHB_1
 64
LT
IF
POP

StartChar: .notdef
Encoding: 65536 -1 0
Width: 364
Flags: W
LayerCount: 2
Fore
SplineSet
33 0 m 1,0,-1
 33 666 l 1,1,-1
 298 666 l 1,2,-1
 298 0 l 1,3,-1
 33 0 l 1,0,-1
66 33 m 1,4,-1
 265 33 l 1,5,-1
 265 633 l 1,6,-1
 66 633 l 1,7,-1
 66 33 l 1,4,-1
EndSplineSet
EndChar

StartChar: lessequal
Encoding: 8804 8804 3
Width: 386
GlyphClass: 2
Flags: W
LayerCount: 2
Fore
SplineSet
46 29 m 0,0,1
 45 50 45 50 128 56 c 0,2,3
 344 71 344 71 352 53 c 0,4,5
 359 38 359 38 337 33 c 0,6,7
 305 26 305 26 111 19 c 0,8,9
 97 18 97 18 78 19 c 0,10,11
 60 20 60 20 58 20 c 0,12,13
 46 22 46 22 46 29 c 0,0,1
332 522 m 0,14,15
 353 519 353 519 340 496 c 0,16,17
 324 467 324 467 230 442 c 1,18,-1
 214 437 l 1,19,20
 214 437 214 437 106 396 c 2,21,-1
 73 384 l 1,22,23
 102 336 102 336 147 288 c 1,24,-1
 227 234 l 2,25,26
 247 224 247 224 276 176 c 0,27,28
 288 155 288 155 277 152 c 1,29,30
 272 145 272 145 224 182 c 0,31,32
 111 268 111 268 106 274 c 0,33,34
 53 346 53 346 48 359 c 0,35,36
 39 385 39 385 39 397 c 0,37,38
 39 406 39 406 57 420 c 0,39,40
 71 431 71 431 93 437 c 0,41,42
 142 449 142 449 271 503 c 0,43,44
 320 524 320 524 332 522 c 0,14,15
EndSplineSet
EndChar

StartChar: greaterequal
Encoding: 8805 8805 4
Width: 443
GlyphClass: 2
Flags: W
LayerCount: 2
Fore
SplineSet
408 67 m 0,0,1
 408 47 408 47 325 42 c 0,2,3
 51 27 51 27 41 51 c 0,4,5
 34 67 34 67 57 71 c 0,6,7
 102 79 102 79 342 79 c 0,8,9
 357 79 357 79 375.5 77.5 c 128,-1,10
 394 76 394 76 396 76 c 0,11,12
 408 74 408 74 408 67 c 0,0,1
407 331 m 2,13,14
 423 315 423 315 403 304 c 0,15,16
 355 276 355 276 297 255 c 0,17,18
 213 224 213 224 168 202.5 c 128,-1,19
 123 181 123 181 93.5 173.5 c 128,-1,20
 64 166 64 166 55.5 169 c 128,-1,21
 47 172 47 172 47 183 c 0,22,23
 47 198 47 198 60 198 c 0,24,25
 71 198 71 198 121 218.5 c 128,-1,26
 171 239 171 239 179 240 c 2,27,28
 179 240 179 240 236 270 c 1,29,30
 272 283 272 283 286 287 c 0,31,32
 326 299 326 299 342 312 c 0,33,34
 355 322 355 322 354 326 c 0,35,36
 353 333 353 333 335 346 c 2,37,-1
 96 479 l 2,38,39
 45 503 45 503 37 514 c 0,40,41
 26 531 26 531 31 544 c 0,42,43
 35 556 35 556 49 551 c 0,44,45
 52 550 52 550 72 536 c 0,46,47
 101 517 101 517 112 513 c 0,48,49
 182 487 182 487 242 450 c 0,50,51
 306 409 306 409 309 408 c 0,52,53
 347 391 347 391 371 367 c 2,54,-1
 407 331 l 2,13,14
EndSplineSet
EndChar

StartChar: exclam
Encoding: 33 33 6
Width: 124
GlyphClass: 2
Flags: W
LayerCount: 2
Fore
SplineSet
32 106 m 0,0,1
 39 125 39 125 65 119.5 c 128,-1,2
 91 114 91 114 94 93 c 0,3,4
 96 77 96 77 86 63 c 128,-1,5
 76 49 76 49 61 46 c 0,6,7
 49 44 49 44 37.5 68 c 128,-1,8
 26 92 26 92 32 106 c 0,0,1
37 553 m 0,9,10
 37 581 37 581 40.5 588.5 c 128,-1,11
 44 596 44 596 55 594 c 0,12,13
 65 592 65 592 68 583 c 0,14,15
 75 558 75 558 79 337 c 0,16,17
 81 226 81 226 79.5 202.5 c 128,-1,18
 78 179 78 179 65 179 c 0,19,20
 53 179 53 179 50 193.5 c 128,-1,21
 47 208 47 208 46 269 c 0,22,23
 46 350 46 350 42 426 c 0,24,25
 39 489 39 489 42 496 c 2,26,27
 42 496 42 496 42 509 c 1,28,29
 37 524 37 524 37 553 c 0,9,10
EndSplineSet
EndChar

StartChar: quotedbl
Encoding: 34 34 7
Width: 238
GlyphClass: 2
Flags: W
LayerCount: 2
Fore
SplineSet
170 564 m 0,0,1
 174 579 174 579 177.5 580.5 c 128,-1,2
 181 582 181 582 194 575 c 0,3,4
 208 566 208 566 207 560 c 0,5,6
 205 538 205 538 200 489 c 0,7,8
 197 457 197 457 198 433 c 0,9,10
 196 422 196 422 186 423 c 0,11,12
 170 418 170 418 166.5 483.5 c 128,-1,13
 163 549 163 549 170 564 c 0,0,1
44 421 m 0,14,15
 34 421 34 421 37 435 c 256,16,17
 40 449 40 449 30 492 c 0,18,19
 19 544 19 544 29 581 c 0,20,21
 31 588 31 588 36 591 c 128,-1,22
 41 594 41 594 43 594 c 128,-1,23
 45 594 45 594 52 592 c 0,24,25
 55 592 55 592 62 585 c 0,26,27
 63 584 63 584 64 523 c 0,28,29
 64 450 64 450 59 429 c 0,30,31
 57 421 57 421 44 421 c 0,14,15
EndSplineSet
EndChar

StartChar: numbersign
Encoding: 35 35 8
Width: 487
GlyphClass: 2
Flags: W
LayerCount: 2
Fore
SplineSet
230 392 m 2,0,1
 213 392 213 392 196 392 c 1,2,3
 184 348 184 348 175.5 301 c 128,-1,4
 167 254 167 254 171 250 c 0,5,6
 176 244 176 244 239 244.5 c 128,-1,7
 302 245 302 245 311 250 c 1,8,9
 317 258 317 258 322 279.5 c 128,-1,10
 327 301 327 301 331 332.5 c 128,-1,11
 335 364 335 364 336 369 c 0,12,13
 340 390 340 390 335 395 c 1,14,-1
 230 392 l 2,0,1
244 625 m 1,15,16
 267 625 267 625 230 506 c 2,17,-1
 206 429 l 2,18,19
 209 430 209 430 284 433 c 0,20,21
 354 436 354 436 358 439 c 2,22,-1
 361 451 l 2,23,24
 362 462 362 462 366 477 c 128,-1,25
 370 492 370 492 370 502 c 0,26,27
 371 534 371 534 374 539 c 0,28,29
 385 565 385 565 400.5 584 c 128,-1,30
 416 603 416 603 425 594 c 0,31,32
 432 587 432 587 417 535 c 0,33,34
 397 463 397 463 395 457 c 0,35,36
 391 442 391 442 394 444 c 0,37,38
 397 442 397 442 413 447 c 2,39,-1
 444 450 l 2,40,41
 462 452 462 452 458 442 c 0,42,43
 456 436 456 436 450 429 c 0,44,45
 435 413 435 413 411 410 c 0,46,47
 394 408 394 408 387 397 c 128,-1,48
 380 386 380 386 369 344 c 0,49,50
 351 273 351 273 353 260 c 128,-1,51
 355 247 355 247 385 252 c 0,52,53
 418 257 418 257 425 242 c 128,-1,54
 432 227 432 227 425 222.5 c 128,-1,55
 418 218 418 218 383 216 c 0,56,57
 354 214 354 214 346.5 206.5 c 128,-1,58
 339 199 339 199 328 160 c 0,59,60
 297 46 297 46 292 43 c 0,61,62
 278 35 278 35 273 41 c 128,-1,63
 268 47 268 47 272 66 c 0,64,65
 291 156 291 156 299 186 c 0,66,67
 303 202 303 202 295 205 c 0,68,69
 285 208 285 208 225 208 c 0,70,71
 198 208 198 208 184 207.5 c 128,-1,72
 170 207 170 207 163.5 207 c 128,-1,73
 157 207 157 207 151 206 c 0,74,75
 143 198 143 198 140 157 c 0,76,77
 131 51 131 51 114 41 c 0,78,79
 98 31 98 31 95 37 c 0,80,81
 91 49 91 49 97 117 c 0,82,83
 98 128 98 128 100 133 c 0,84,85
 112 161 112 161 112 181 c 0,86,87
 112 187 112 187 112.5 196 c 128,-1,88
 113 205 113 205 113 208 c 2,89,-1
 72 208 l 2,90,91
 46 208 46 208 38.5 211 c 128,-1,92
 31 214 31 214 31 226 c 0,93,94
 31 237 31 237 38.5 241 c 128,-1,95
 46 245 46 245 68 245 c 0,96,97
 79 245 79 245 96 245.5 c 128,-1,98
 113 246 113 246 114 246 c 0,99,100
 123 247 123 247 130 268 c 0,101,102
 131 270 131 270 152 359 c 2,103,-1
 159 389 l 1,104,105
 80 384 80 384 44 398 c 0,106,107
 26 405 26 405 34 417 c 0,108,109
 37 421 37 421 66 424 c 0,110,111
 97 426 97 426 131 428 c 0,112,113
 167 429 167 429 168 430 c 0,114,115
 173 436 173 436 198 528 c 0,116,117
 221 617 221 617 244 625 c 1,15,16
EndSplineSet
EndChar

StartChar: dollar
Encoding: 36 36 9
Width: 436
GlyphClass: 2
Flags: W
LayerCount: 2
Fore
SplineSet
263 300 m 1,0,1
 263 300 263 300 264 246 c 0,2,3
 262 195 262 195 264 143.5 c 128,-1,4
 266 92 266 92 270 88 c 0,5,6
 282 76 282 76 331 121 c 0,7,8
 394 181 394 181 354 251 c 0,9,10
 345 268 345 268 320 281 c 0,11,12
 283 300 283 300 263 300 c 1,0,1
223 466 m 2,13,14
 221 553 221 553 218 578 c 1,15,-1
 201 576 l 1,16,17
 68 565 68 565 98 436 c 0,18,19
 111 382 111 382 191 363 c 2,20,-1
 225 355 l 1,21,-1
 223 466 l 2,13,14
364 464 m 0,22,23
 349 465 349 465 345 476 c 256,24,25
 341 487 341 487 351 504 c 0,26,27
 359 517 359 517 357.5 525 c 128,-1,28
 356 533 356 533 340 550 c 0,29,30
 314 576 314 576 280 581 c 0,31,32
 258 584 258 584 257 580 c 0,33,34
 258 558 258 558 258 536 c 0,35,36
 260 494 260 494 260 446 c 0,37,38
 260 410 260 410 261 374 c 0,39,40
 261 363 261 363 263 345 c 1,41,42
 306 335 306 335 338 317 c 0,43,44
 402 282 402 282 404 198 c 0,45,46
 405 181 405 181 398 158 c 0,47,48
 379 103 379 103 329 70 c 0,49,50
 300 51 300 51 272 40 c 1,51,52
 271 18 271 18 270 -3 c 0,53,54
 268 -41 268 -41 263 -45 c 0,55,56
 237 -64 237 -64 236 -31 c 0,57,58
 235 -15 235 -15 235 1 c 2,59,-1
 234 38 l 1,60,-1
 188 38 l 2,61,62
 136 38 136 38 90 71 c 0,63,64
 42 105 42 105 42 152 c 0,65,66
 42 189 42 189 60 199 c 128,-1,67
 78 209 78 209 85 199.5 c 128,-1,68
 92 190 92 190 81 170 c 0,69,70
 73 155 73 155 78 143 c 0,71,72
 84 125 84 125 105 107 c 0,73,74
 159 61 159 61 231 72 c 1,75,76
 229 104 229 104 227 136 c 0,77,78
 226 160 226 160 225.5 235.5 c 128,-1,79
 225 311 225 311 223 314 c 0,80,81
 171 334 171 334 147 338 c 0,82,83
 141 339 141 339 101 370 c 0,84,85
 35 422 35 422 60 509 c 0,86,87
 70 543 70 543 106.5 573.5 c 128,-1,88
 143 604 143 604 182 612 c 0,89,90
 211 618 211 618 214 622 c 0,91,92
 211 638 211 638 210 651 c 0,93,94
 209 681 209 681 214 686 c 0,95,96
 221 693 221 693 238 680 c 0,97,98
 243 677 243 677 246 664 c 0,99,100
 253 631 253 631 255 624 c 1,101,102
 276 624 276 624 318 610 c 0,103,104
 359 595 359 595 379 560 c 0,105,106
 391 539 391 539 393 518 c 256,107,108
 395 497 395 497 386 481 c 128,-1,109
 377 465 377 465 364 464 c 0,22,23
EndSplineSet
EndChar

StartChar: percent
Encoding: 37 37 10
Width: 589
GlyphClass: 2
Flags: W
LayerCount: 2
Fore
SplineSet
475 196 m 0,0,1
 440 215 440 215 408 200 c 0,2,3
 378 185 378 185 370 145 c 0,4,5
 366 126 366 126 371.5 116 c 128,-1,6
 377 106 377 106 401 90 c 128,-1,7
 425 74 425 74 436 71 c 0,8,9
 445 69 445 69 465 75 c 128,-1,10
 485 81 485 81 499 108 c 0,11,12
 511 132 511 132 501 158 c 0,13,14
 488 189 488 189 475 196 c 0,0,1
546 147 m 0,15,16
 545 128 545 128 528 94 c 0,17,18
 502 42 502 42 464 40 c 0,19,20
 434 38 434 38 404 46 c 0,21,22
 366 56 366 56 348 91.5 c 128,-1,23
 330 127 330 127 340 167 c 0,24,25
 349 209 349 209 383 230 c 0,26,27
 418 253 418 253 458 242 c 0,28,29
 480 236 480 236 514 202 c 0,30,31
 546 169 546 169 546 147 c 0,15,16
179 560 m 0,32,33
 160 577 160 577 134.5 575.5 c 128,-1,34
 109 574 109 574 91 554 c 0,35,36
 62 523 62 523 73 494 c 0,37,38
 84 467 84 467 126 462 c 0,39,40
 167 457 167 457 188 495.5 c 128,-1,41
 209 534 209 534 179 560 c 0,32,33
87 599 m 0,42,43
 133 627 133 627 178.5 607 c 128,-1,44
 224 587 224 587 231 536 c 0,45,46
 236 497 236 497 214.5 468 c 128,-1,47
 193 439 193 439 161.5 429 c 128,-1,48
 130 419 130 419 96 430 c 0,49,50
 64 441 64 441 46 477 c 0,51,52
 34 501 34 501 34 511.5 c 128,-1,53
 34 522 34 522 46 547 c 0,54,55
 63 585 63 585 87 599 c 0,42,43
441 625 m 0,56,57
 449 625 449 625 451.5 617.5 c 128,-1,58
 454 610 454 610 450 602 c 2,59,-1
 424 551 l 2,60,61
 416 532 416 532 405 518 c 2,62,-1
 370 446 l 1,63,-1
 237 190 l 2,64,65
 161 39 161 39 148 31 c 0,66,67
 142 27 142 27 135.5 31 c 128,-1,68
 129 35 129 35 127.5 42.5 c 128,-1,69
 126 50 126 50 131 57 c 0,70,71
 136 65 136 65 146 95 c 0,72,73
 151 107 151 107 210 222 c 2,74,-1
 259 321 l 2,75,76
 265 331 265 331 292 383 c 0,77,78
 382 552 382 552 384 555 c 0,79,80
 417 617 417 617 441 625 c 0,56,57
EndSplineSet
EndChar

StartChar: ampersand
Encoding: 38 38 11
Width: 714
GlyphClass: 2
Flags: W
LayerCount: 2
Fore
SplineSet
188 384 m 0,0,1
 175 384 175 384 150 374 c 0,2,3
 83 349 83 349 62 301 c 0,4,5
 8 178 8 178 110 90 c 0,6,7
 137 62 137 62 200 52 c 0,8,9
 299 37 299 37 352 89 c 0,10,11
 389 125 389 125 387 181 c 0,12,13
 386 200 386 200 375 210 c 0,14,15
 365 218 365 218 325 233 c 0,16,17
 272 253 272 253 268 253 c 0,18,19
 252 255 252 255 236 247 c 0,20,21
 216 236 216 236 219 216 c 128,-1,22
 222 196 222 196 242 181 c 0,23,24
 252 173 252 173 258 174 c 0,25,26
 271 176 271 176 275 188 c 0,27,28
 282 211 282 211 294 211 c 0,29,30
 302 211 302 211 306 207 c 0,31,32
 317 196 317 196 308 180 c 0,33,34
 291 148 291 148 261.5 142 c 128,-1,35
 232 136 232 136 208.5 157.5 c 128,-1,36
 185 179 185 179 185 216 c 128,-1,37
 185 253 185 253 208 272 c 0,38,39
 237 297 237 297 272 285 c 0,40,41
 330 265 330 265 354 259 c 0,42,43
 419 241 419 241 473 240 c 0,44,45
 554 238 554 238 581 330 c 0,46,47
 593 370 593 370 567 406 c 0,48,49
 535 450 535 450 489 450 c 0,50,51
 460 450 460 450 442 433 c 0,52,53
 423 416 423 416 425 391 c 0,54,55
 427 373 427 373 432 367 c 0,56,57
 446 354 446 354 452 356 c 2,58,-1
 476 366 l 2,59,60
 490 369 490 369 492 364 c 0,61,62
 497 350 497 350 490.5 339.5 c 128,-1,63
 484 329 484 329 472 325 c 0,64,65
 454 319 454 319 440 324 c 0,66,67
 405 337 405 337 398 349 c 128,-1,68
 391 361 391 361 387 389 c 0,69,70
 380 444 380 444 436 471 c 0,71,72
 493 500 493 500 552 470 c 0,73,74
 615 437 615 437 619 372 c 0,75,76
 624 287 624 287 568 242 c 0,77,78
 506 191 506 191 418 208 c 1,79,80
 433 78 433 78 320 30 c 0,81,82
 275 11 275 11 202.5 20 c 128,-1,83
 130 29 130 29 94 61 c 0,84,85
 28 119 28 119 18 166 c 0,86,87
 4 229 4 229 20 295 c 0,88,89
 26 318 26 318 40 340 c 0,90,91
 67 385 67 385 146 418 c 1,92,-1
 165 424 l 1,93,-1
 148 460 l 1,94,95
 145 503 145 503 157 532 c 0,96,97
 163 547 163 547 182 573 c 0,98,99
 184 575 184 575 202 587 c 0,100,101
 225 602 225 602 267 605 c 128,-1,102
 309 608 309 608 332 595 c 0,103,104
 369 576 369 576 384 549 c 0,105,106
 399 521 399 521 384 502 c 0,107,108
 373 488 373 488 369 493 c 0,109,110
 366 496 366 496 358 516 c 0,111,112
 332 587 332 587 241 565 c 0,113,114
 199 555 199 555 191.5 507 c 128,-1,115
 184 459 184 459 222 424 c 0,116,117
 246 402 246 402 237 393 c 0,118,119
 229 384 229 384 188 384 c 0,0,1
EndSplineSet
EndChar

StartChar: quotesingle
Encoding: 39 39 12
Width: 99
GlyphClass: 2
Flags: W
LayerCount: 2
Fore
SplineSet
36 603 m 0,0,1
 38 618 38 618 51 607 c 0,2,3
 63 598 63 598 66 583 c 0,4,5
 72 554 72 554 68 504.5 c 128,-1,6
 64 455 64 455 55 452 c 0,7,8
 40 447 40 447 34 476 c 0,9,10
 26 515 26 515 36 603 c 0,0,1
EndSplineSet
EndChar

StartChar: parenleft
Encoding: 40 40 13
Width: 262
GlyphClass: 2
Flags: W
LayerCount: 2
Fore
SplineSet
83 96 m 0,0,1
 86 96 86 96 89 82 c 0,2,3
 95 56 95 56 114.5 17.5 c 128,-1,4
 134 -21 134 -21 153 -43 c 0,5,6
 181 -73 181 -73 181 -88 c 0,7,8
 181 -101 181 -101 174.5 -105.5 c 128,-1,9
 168 -110 168 -110 157.5 -105 c 128,-1,10
 147 -100 147 -100 136 -87 c 0,11,12
 116 -61 116 -61 86 0 c 1,13,-1
 46 98 l 2,14,15
 28 133 28 133 31 257.5 c 128,-1,16
 34 382 34 382 51 429 c 0,17,18
 72 487 72 487 84 516 c 0,19,20
 88 527 88 527 88 529 c 0,21,22
 90 538 90 538 123 576 c 0,23,24
 157 616 157 616 160 612 c 128,-1,25
 163 608 163 608 189 631 c 128,-1,26
 215 654 215 654 216 653 c 256,27,28
 217 652 217 652 228 641 c 0,29,30
 235 634 235 634 229 625.5 c 128,-1,31
 223 617 223 617 201 603 c 0,32,33
 176 587 176 587 142 546 c 0,34,35
 111 507 111 507 103 484 c 0,36,37
 66 371 66 371 70 247 c 0,38,39
 75 96 75 96 83 96 c 0,0,1
EndSplineSet
EndChar

StartChar: parenright
Encoding: 41 41 14
Width: 277
GlyphClass: 2
Flags: W
LayerCount: 2
Fore
SplineSet
230 82 m 0,0,1
 231 82 231 82 222.5 63.5 c 128,-1,2
 214 45 214 45 199 17 c 0,3,4
 178 -23 178 -23 157.5 -51.5 c 128,-1,5
 137 -80 137 -80 121 -92 c 128,-1,6
 105 -104 105 -104 98 -97 c 0,7,8
 86 -85 86 -85 102 -71 c 0,9,10
 118 -54 118 -54 116 -52 c 0,11,12
 115 -49 115 -49 153 10 c 0,13,14
 187 62 187 62 189 73 c 0,15,16
 218 181 218 181 209 271 c 0,17,18
 202 355 202 355 174 440 c 0,19,20
 151 512 151 512 120 540 c 0,21,22
 106 552 106 552 96 564 c 0,23,24
 28 641 28 641 35 647 c 0,25,26
 53 666 53 666 123 590 c 0,27,28
 173 533 173 533 196.5 489.5 c 128,-1,29
 220 446 220 446 228 387 c 0,30,31
 229 380 229 380 237 344 c 0,32,33
 247 305 247 305 247.5 235.5 c 128,-1,34
 248 166 248 166 238 130 c 0,35,36
 235 117 235 117 232.5 105.5 c 128,-1,37
 230 94 230 94 229.5 88.5 c 128,-1,38
 229 83 229 83 230 82 c 0,0,1
EndSplineSet
EndChar

StartChar: asterisk
Encoding: 42 42 15
Width: 320
GlyphClass: 2
Flags: W
LayerCount: 2
Fore
SplineSet
30 559 m 0,0,1
 30 571 30 571 39 574 c 256,2,3
 48 577 48 577 76 578 c 0,4,5
 114 579 114 579 115 581 c 256,6,7
 116 583 116 583 128 615 c 0,8,9
 141 651 141 651 144 658 c 0,10,11
 160 708 160 708 171 655 c 0,12,13
 172 650 172 650 181 627 c 0,14,15
 193 595 193 595 195 595 c 0,16,17
 204 595 204 595 239 591 c 0,18,19
 290 585 290 585 290 579 c 0,20,21
 290 574 290 574 285.5 566.5 c 128,-1,22
 281 559 281 559 271.5 549.5 c 128,-1,23
 262 540 262 540 254.5 533 c 128,-1,24
 247 526 247 526 236 516 c 2,25,-1
 222 505 l 2,26,27
 223 504 223 504 230 479 c 0,28,29
 237 455 237 455 240 439 c 0,30,31
 243 419 243 419 240 416 c 2,32,33
 240 416 240 416 196 434 c 0,34,35
 157 450 157 450 156 450 c 0,36,37
 154 452 154 452 125 422 c 0,38,39
 103 399 103 399 96 398 c 2,40,41
 96 398 96 398 76 392 c 1,42,43
 70 399 70 399 70 426 c 0,44,45
 70 436 70 436 80 460 c 2,46,-1
 96 499 l 1,47,48
 92 502 92 502 78.5 511 c 128,-1,49
 65 520 65 520 56 526.5 c 128,-1,50
 47 533 47 533 38.5 542 c 128,-1,51
 30 551 30 551 30 559 c 0,0,1
EndSplineSet
EndChar

StartChar: plus
Encoding: 43 43 16
Width: 454
GlyphClass: 2
Flags: W
LayerCount: 2
Fore
SplineSet
417 314 m 0,0,1
 372 301 372 301 230 303 c 1,2,3
 230 286 230 286 229.5 238.5 c 128,-1,4
 229 191 229 191 230 177 c 0,5,6
 231 156 231 156 228 148 c 128,-1,7
 225 140 225 140 216 140 c 0,8,9
 201 140 201 140 199 152 c 0,10,11
 190 218 190 218 192 305 c 1,12,-1
 111 305 l 2,13,14
 57 305 57 305 43.5 307.5 c 128,-1,15
 30 310 30 310 30 322 c 0,16,17
 30 333 30 333 44 336 c 0,18,19
 52 339 52 339 106 340 c 0,20,21
 183 342 183 342 186 346 c 0,22,23
 190 355 190 355 197 430 c 0,24,25
 203 496 203 496 207 512 c 0,26,27
 213 538 213 538 221 537 c 0,28,29
 240 533 240 533 238 476 c 2,30,-1
 233 344 l 1,31,32
 238 341 238 341 342 341 c 2,33,-1
 364 341 l 2,34,35
 424 341 424 341 424 328 c 0,36,37
 424 316 424 316 417 314 c 0,0,1
EndSplineSet
EndChar

StartChar: comma
Encoding: 44 44 17
Width: 164
GlyphClass: 2
Flags: W
LayerCount: 2
Fore
SplineSet
68 -64 m 0,0,1
 53 -64 53 -64 53.5 -56 c 128,-1,2
 54 -48 54 -48 67.5 -35 c 128,-1,3
 81 -22 81 -22 91 -2 c 0,4,5
 99 14 99 14 99 36 c 1,6,7
 78 33 78 33 71 33 c 0,8,9
 41 33 41 33 32 58 c 128,-1,10
 23 83 23 83 45 105 c 0,11,12
 63 123 63 123 90 114 c 0,13,14
 173 83 173 83 118 -24 c 0,15,16
 97 -64 97 -64 68 -64 c 0,0,1
EndSplineSet
EndChar

StartChar: hyphen
Encoding: 45 45 18
Width: 289
GlyphClass: 2
Flags: W
LayerCount: 2
Fore
SplineSet
259 248 m 0,0,1
 259 227 259 227 149.5 219 c 128,-1,2
 40 211 40 211 32 232 c 0,3,4
 25 249 25 249 48 252 c 0,5,6
 93 260 93 260 194 260 c 0,7,8
 208 260 208 260 226.5 258.5 c 128,-1,9
 245 257 245 257 247 257 c 0,10,11
 259 255 259 255 259 248 c 0,0,1
EndSplineSet
EndChar

StartChar: period
Encoding: 46 46 19
Width: 141
GlyphClass: 2
Flags: W
LayerCount: 2
Fore
SplineSet
50 117 m 0,0,1
 69 131 69 131 89.5 119.5 c 128,-1,2
 110 108 110 108 111 83 c 0,3,4
 112 55 112 55 93 43 c 128,-1,5
 74 31 74 31 50 44 c 0,6,7
 30 55 30 55 30 78.5 c 128,-1,8
 30 102 30 102 50 117 c 0,0,1
EndSplineSet
EndChar

StartChar: slash
Encoding: 47 47 20
Width: 252
GlyphClass: 2
Flags: W
LayerCount: 2
Fore
SplineSet
166 382 m 0,0,1
 109 186 109 186 71 79 c 0,2,3
 53 27 53 27 37 27 c 0,4,5
 29 27 29 27 30 53 c 0,6,7
 30 78 30 78 44 118 c 0,8,9
 90 263 90 263 93 272 c 2,10,-1
 167 521 l 2,11,12
 186 584 186 584 191 598 c 0,13,14
 194 606 194 606 196 614 c 1,15,-1
 201 616 l 1,16,17
 201 616 201 616 211 608 c 0,18,19
 224 597 224 597 223 578 c 0,20,21
 222 558 222 558 198 486 c 0,22,23
 168 392 168 392 166 382 c 0,0,1
EndSplineSet
EndChar

StartChar: zero
Encoding: 48 48 21
Width: 435
GlyphClass: 2
Flags: W
LayerCount: 2
Fore
SplineSet
306 493 m 1,0,1
 300 471 300 471 273 405 c 0,2,3
 186 192 186 192 170 157 c 0,4,5
 153 120 153 120 144 120 c 0,6,7
 131 120 131 120 152 96 c 0,8,9
 171 75 171 75 183 74 c 0,10,11
 324 69 324 69 359 228 c 0,12,13
 377 310 377 310 356 393 c 0,14,15
 340 459 340 459 324 475 c 0,16,17
 315 484 315 484 306 493 c 1,0,1
99 462 m 0,18,19
 74 410 74 410 69 348 c 0,20,21
 64 288 64 288 74.5 229.5 c 128,-1,22
 85 171 85 171 105 154 c 0,23,24
 118 142 118 142 122 144.5 c 128,-1,25
 126 147 126 147 137 172 c 0,26,27
 143 185 143 185 236 406 c 0,28,29
 281 515 281 515 276 525 c 0,30,31
 264 537 264 537 240 543 c 0,32,33
 205 551 205 551 196 550 c 0,34,35
 138 544 138 544 99 462 c 0,18,19
299 574 m 0,36,37
 312 564 312 564 321 538 c 1,38,39
 387 500 387 500 404 327 c 0,40,41
 406 301 406 301 402.5 267.5 c 128,-1,42
 399 234 399 234 393 213 c 0,43,44
 371 134 371 134 326.5 88 c 128,-1,45
 282 42 282 42 225 39 c 0,46,47
 172 36 172 36 122 72 c 0,48,49
 104 85 104 85 87 110 c 0,50,51
 62 148 62 148 49 183 c 0,52,53
 34 224 34 224 32 268 c 0,54,55
 26 438 26 438 88 517 c 0,56,57
 116 553 116 553 144 568 c 0,58,59
 175 584 175 584 214 584 c 256,60,61
 253 584 253 584 270 572 c 0,62,63
 283 563 283 563 285 564 c 0,64,65
 293 579 293 579 299 574 c 0,36,37
EndSplineSet
EndChar

StartChar: one
Encoding: 49 49 22
Width: 191
GlyphClass: 2
Flags: W
LayerCount: 2
Fore
SplineSet
154 589 m 0,0,1
 144 366 144 366 147 245 c 2,2,3
 147 245 147 245 150 123 c 1,4,5
 144 65 144 65 118 66 c 0,6,7
 91 67 91 67 96 120 c 0,8,9
 99 152 99 152 108 342 c 0,10,11
 109 362 109 362 111 437 c 1,12,13
 103 437 103 437 70 400 c 0,14,15
 43 370 43 370 32 381 c 0,16,17
 18 395 18 395 57 436 c 0,18,19
 90 471 90 471 128 584 c 0,20,21
 130 590 130 590 134.5 593.5 c 128,-1,22
 139 597 139 597 146.5 596 c 128,-1,23
 154 595 154 595 154 589 c 0,0,1
EndSplineSet
EndChar

StartChar: two
Encoding: 50 50 23
Width: 452
GlyphClass: 2
Flags: W
LayerCount: 2
Fore
SplineSet
124 114 m 1,0,1
 74 131 74 131 74 112 c 0,2,3
 75 99 75 99 86 98 c 0,4,5
 102 98 102 98 115 107 c 2,6,-1
 124 114 l 1,0,1
329 292 m 0,7,8
 286 218 286 218 225 138 c 1,9,-1
 218 130 l 1,10,11
 267 102 267 102 371 109 c 0,12,13
 412 112 412 112 414 111 c 0,14,15
 416 111 416 111 420 101 c 0,16,17
 431 74 431 74 394 65 c 0,18,19
 335 52 335 52 300 60 c 2,20,-1
 227 82 l 1,21,-1
 189 99 l 1,22,23
 181 97 181 97 150 80 c 0,24,25
 84 43 84 43 48 83 c 0,26,27
 19 115 19 115 35 131 c 0,28,29
 56 152 56 152 93 154 c 0,30,31
 123 155 123 155 152 148 c 0,32,33
 178 143 178 143 180 143 c 1,34,35
 179 144 179 144 195 164 c 0,36,37
 263 246 263 246 304 341 c 0,38,39
 331 402 331 402 332 444 c 0,40,41
 333 472 333 472 306 503 c 0,42,43
 284 527 284 527 252 527 c 0,44,45
 184 527 184 527 159 445 c 0,46,47
 150 415 150 415 150 402 c 0,48,49
 151 381 151 381 162 366 c 0,50,51
 179 342 179 342 190 348 c 2,52,-1
 205 356 l 1,53,54
 221 372 221 372 218 420 c 1,55,-1
 210 453 l 1,56,57
 214 465 214 465 226 463 c 0,58,59
 264 457 264 457 251 394 c 0,60,61
 240 337 240 337 225 325 c 0,62,63
 193 298 193 298 168 310 c 0,64,65
 133 328 133 328 124 359 c 0,66,67
 116 383 116 383 118 411 c 0,68,69
 120 460 120 460 146 502 c 0,70,71
 174 546 174 546 202 552 c 0,72,73
 379 589 379 589 375 427 c 0,74,75
 373 368 373 368 329 292 c 0,7,8
EndSplineSet
EndChar

StartChar: three
Encoding: 51 51 24
Width: 402
GlyphClass: 2
Flags: W
LayerCount: 2
Fore
SplineSet
207 587 m 0,0,1
 225 587 225 587 261 575 c 0,2,3
 307 559 307 559 323 517 c 0,4,5
 359 422 359 422 292 348 c 1,6,7
 306 335 306 335 319 322 c 0,8,9
 368 269 368 269 372 194 c 0,10,11
 374 148 374 148 356 115.5 c 128,-1,12
 338 83 338 83 294 53 c 0,13,14
 227 6 227 6 156 17 c 0,15,16
 89 27 89 27 48 90 c 0,17,18
 35 110 35 110 31 144 c 128,-1,19
 27 178 27 178 35 192 c 0,20,21
 48 217 48 217 72 236 c 0,22,23
 107 264 107 264 136 245 c 0,24,25
 140 242 140 242 140 232 c 128,-1,26
 140 222 140 222 128.5 217.5 c 128,-1,27
 117 213 117 213 107 220 c 0,28,29
 100 224 100 224 81 201.5 c 128,-1,30
 62 179 62 179 62 166 c 0,31,32
 62 143 62 143 79 109 c 0,33,34
 110 51 110 51 187 50 c 0,35,36
 271 48 271 48 323 134 c 0,37,38
 339 161 339 161 339 164 c 0,39,40
 342 230 342 230 327 255 c 1,41,42
 327 255 327 255 276 317 c 0,43,44
 274 316 274 316 265 308 c 0,45,46
 254 298 254 298 215.5 300 c 128,-1,47
 177 302 177 302 176 321 c 0,48,49
 175 346 175 346 185 356 c 128,-1,50
 195 366 195 366 233 370 c 0,51,52
 250 372 250 372 268 373 c 1,53,54
 321 446 321 446 284 516 c 0,55,56
 269 545 269 545 240 550 c 0,57,58
 186 560 186 560 150 523 c 0,59,60
 112 484 112 484 126 468 c 0,61,62
 134 459 134 459 142 450 c 0,63,64
 148 445 148 445 160 446 c 0,65,66
 189 447 189 447 183 437 c 0,67,68
 151 378 151 378 98 445 c 1,69,70
 85 485 85 485 95 508 c 0,71,72
 102 525 102 525 129 550 c 0,73,74
 169 587 169 587 207 587 c 0,0,1
EndSplineSet
EndChar

StartChar: four
Encoding: 52 52 25
Width: 485
GlyphClass: 2
Flags: W
LayerCount: 2
Fore
SplineSet
335 470 m 0,0,1
 344 471 344 471 345 468 c 2,2,3
 345 468 345 468 338 318 c 0,4,5
 338 282 338 282 340 273 c 1,6,7
 396 266 396 266 457 266 c 1,8,9
 443 228 443 228 382 229 c 2,10,-1
 340 230 l 1,11,-1
 343 115 l 2,12,13
 346 -19 346 -19 334 -21 c 0,14,15
 312 -23 312 -23 308 -19 c 0,16,17
 300 -12 300 -12 299 0 c 0,18,19
 296 36 296 36 297 57 c 0,20,21
 300 92 300 92 302 122.5 c 128,-1,22
 304 153 304 153 304.5 188 c 128,-1,23
 305 223 305 223 305 234 c 1,24,25
 188 248 188 248 123 270 c 0,26,27
 120 271 120 271 98 255 c 0,28,29
 79 241 79 241 54.5 240 c 128,-1,30
 30 239 30 239 27 254 c 0,31,32
 11 328 11 328 105 304 c 1,33,34
 123 330 123 330 145 391 c 2,35,-1
 179 505 l 1,36,37
 187 579 187 579 209 570 c 0,38,39
 222 565 222 565 234 557 c 0,40,41
 245 550 245 550 244 548 c 2,42,-1
 217 478 l 2,43,44
 190 398 190 398 170.5 359.5 c 128,-1,45
 151 321 151 321 136 295 c 1,46,47
 214 281 214 281 251 278 c 0,48,49
 276 276 276 276 302 274 c 1,50,51
 302 286 302 286 303 297 c 0,52,53
 310 415 310 415 315 442 c 256,54,55
 320 469 320 469 335 470 c 0,0,1
EndSplineSet
EndChar

StartChar: five
Encoding: 53 53 26
Width: 410
GlyphClass: 2
Flags: W
LayerCount: 2
Fore
SplineSet
316 574 m 0,0,1
 324 582 324 582 330.5 584 c 128,-1,2
 337 586 337 586 351 578.5 c 128,-1,3
 365 571 365 571 361.5 556.5 c 128,-1,4
 358 542 358 542 336 532 c 0,5,6
 287 512 287 512 237.5 515 c 128,-1,7
 188 518 188 518 134 539 c 1,8,9
 92 465 92 465 99 398 c 1,10,11
 218 466 218 466 291 400 c 0,12,13
 311 382 311 382 331 344 c 0,14,15
 364 281 364 281 360 231 c 0,16,17
 353 143 353 143 300 99 c 0,18,19
 220 34 220 34 143 48 c 0,20,21
 83 59 83 59 58 92 c 0,22,23
 16 147 16 147 53 218 c 0,24,25
 75 259 75 259 96 256 c 0,26,27
 108 254 108 254 107 237 c 0,28,29
 106 225 106 225 93 214 c 0,30,31
 73 197 73 197 72 178 c 0,32,33
 71 152 71 152 78 135 c 0,34,35
 95 96 95 96 130 90 c 0,36,37
 273 64 273 64 315 196 c 0,38,39
 331 245 331 245 308 306 c 0,40,41
 289 359 289 359 248 381 c 0,42,43
 217 397 217 397 177 388 c 0,44,45
 130 378 130 378 97 351 c 0,46,47
 77 335 77 335 71 334 c 0,48,49
 63 333 63 333 59 337 c 0,50,51
 53 345 53 345 55 361 c 2,52,-1
 66 426 l 2,53,54
 83 543 83 543 115 575 c 0,55,56
 119 579 119 579 122 576 c 0,57,58
 137 567 137 567 146 564 c 0,59,60
 269 527 269 527 316 574 c 0,0,1
EndSplineSet
EndChar

StartChar: six
Encoding: 54 54 27
Width: 423
GlyphClass: 2
Flags: W
LayerCount: 2
Fore
SplineSet
196 104 m 0,0,1
 264 82 264 82 310 120 c 0,2,3
 360 161 360 161 362 206 c 0,4,5
 362 235 362 235 339 274 c 0,6,7
 316 314 316 314 292 324 c 0,8,9
 271 333 271 333 234.5 333.5 c 128,-1,10
 198 334 198 334 182 324 c 0,11,12
 138 298 138 298 117 232 c 0,13,14
 101 182 101 182 122 148 c 0,15,16
 138 123 138 123 196 104 c 0,0,1
70 166 m 0,17,18
 17 258 17 258 36 360 c 0,19,20
 51 443 51 443 94 499 c 0,21,22
 128 542 128 542 166 553 c 0,23,24
 235 572 235 572 246 570 c 0,25,26
 277 568 277 568 322 539 c 0,27,28
 378 503 378 503 383 467 c 1,29,-1
 374 446 l 1,30,31
 347 444 347 444 333 466 c 0,32,33
 294 526 294 526 250 527 c 0,34,35
 84 530 84 530 66 326 c 0,36,37
 62 280 62 280 76 257 c 2,38,-1
 83 248 l 1,39,40
 116 372 116 372 244 368 c 0,41,42
 278 367 278 367 296 360 c 0,43,44
 388 324 388 324 393 217 c 0,45,46
 395 179 395 179 376 140 c 0,47,48
 338 58 338 58 232 65 c 0,49,50
 168 69 168 69 125 94 c 0,51,52
 104 106 104 106 70 166 c 0,17,18
EndSplineSet
EndChar

StartChar: seven
Encoding: 55 55 28
Width: 445
GlyphClass: 2
Flags: W
LayerCount: 2
Fore
SplineSet
245 175 m 1,0,1
 254 65 254 65 200 29 c 0,2,3
 193 24 193 24 187 26 c 0,4,5
 181 27 181 27 178 43 c 128,-1,6
 175 59 175 59 176 75 c 0,7,8
 185 163 185 163 202 211 c 0,9,10
 205 219 205 219 234 306 c 0,11,12
 257 379 257 379 355 551 c 1,13,14
 201 534 201 534 107 552 c 2,15,-1
 81 557 l 2,16,17
 79 557 79 557 75 539 c 0,18,19
 74 534 74 534 74 526 c 128,-1,20
 74 518 74 518 73.5 514.5 c 128,-1,21
 73 511 73 511 71.5 506 c 128,-1,22
 70 501 70 501 67.5 499 c 128,-1,23
 65 497 65 497 60.5 494.5 c 128,-1,24
 56 492 56 492 49 491 c 0,25,26
 34 489 34 489 32 494 c 0,27,28
 30 497 30 497 33 530 c 0,29,30
 35 553 35 553 53 594 c 0,31,32
 62 615 62 615 61 625 c 0,33,34
 60 632 60 632 64 634 c 0,35,36
 79 641 79 641 86 642 c 2,37,-1
 98 643 l 1,38,-1
 94 625 l 2,39,40
 87 594 87 594 87 593 c 0,41,42
 101 590 101 590 110 587 c 0,43,44
 135 579 135 579 250.5 583.5 c 128,-1,45
 366 588 366 588 387 601 c 1,46,47
 394 612 394 612 405 592 c 128,-1,48
 416 572 416 572 416 570 c 0,49,50
 416 565 416 565 392 557 c 1,51,52
 380 532 380 532 373 516 c 0,53,54
 349 461 349 461 320 406 c 0,55,56
 279 331 279 331 257 257 c 1,57,-1
 245 175 l 1,0,1
EndSplineSet
EndChar

StartChar: eight
Encoding: 56 56 29
Width: 405
GlyphClass: 2
Flags: W
LayerCount: 2
Fore
SplineSet
214 62 m 0,0,1
 246 62 246 62 275 81.5 c 128,-1,2
 304 101 304 101 319 128.5 c 128,-1,3
 334 156 334 156 336 186.5 c 128,-1,4
 338 217 338 217 316 239 c 0,5,6
 285 275 285 275 261 288 c 0,7,8
 230 305 230 305 205 303.5 c 128,-1,9
 180 302 180 302 137 282 c 0,10,11
 93 262 93 262 78.5 236 c 128,-1,12
 64 210 64 210 73 166 c 0,13,14
 80 129 80 129 101 101.5 c 128,-1,15
 122 74 122 74 150 67 c 0,16,17
 169 62 169 62 214 62 c 0,0,1
251 523 m 0,18,19
 189 542 189 542 145 522 c 128,-1,20
 101 502 101 502 103 455 c 0,21,22
 105 415 105 415 134 389 c 0,23,24
 160 365 160 365 210 358 c 0,25,26
 225 356 225 356 266 394 c 0,27,28
 305 429 305 429 304 455 c 0,29,30
 302 507 302 507 251 523 c 0,18,19
343 462 m 0,31,32
 343 416 343 416 326 399 c 2,33,-1
 295 363 l 1,34,-1
 264 334 l 1,35,36
 296 313 296 313 328 284 c 0,37,38
 375 239 375 239 375 168 c 0,39,40
 375 129 375 129 341 92 c 0,41,42
 280 26 280 26 207 22 c 0,43,44
 136 18 136 18 77 79 c 0,45,46
 41 116 41 116 32 166 c 0,47,48
 18 240 18 240 68 283 c 0,49,50
 91 303 91 303 110 312 c 2,51,-1
 147 330 l 1,52,-1
 114 357 l 2,53,54
 94 373 94 373 75 402 c 0,55,56
 66 415 66 415 66 452 c 0,57,58
 66 524 66 524 128 553 c 0,59,60
 164 570 164 570 215 566.5 c 128,-1,61
 266 563 266 563 308 522 c 0,62,63
 343 488 343 488 343 462 c 0,31,32
EndSplineSet
EndChar

StartChar: nine
Encoding: 57 57 30
Width: 434
GlyphClass: 2
Flags: W
LayerCount: 2
Fore
SplineSet
211 535 m 0,0,1
 187 537 187 537 149 525 c 0,2,3
 116 515 116 515 96 481 c 0,4,5
 47 398 47 398 103 321 c 0,6,7
 128 288 128 288 140 283 c 0,8,9
 237 247 237 247 308 359 c 0,10,11
 336 402 336 402 331 427 c 0,12,13
 326 449 326 449 307 472 c 0,14,15
 254 532 254 532 211 535 c 0,0,1
249 249 m 0,16,17
 205 234 205 234 170 237 c 0,18,19
 140 240 140 240 125 248.5 c 128,-1,20
 110 257 110 257 84 286 c 0,21,22
 33 346 33 346 39 408 c 0,23,24
 43 452 43 452 59 483 c 0,25,26
 88 539 88 539 148 564 c 0,27,28
 178 576 178 576 203 573 c 0,29,30
 241 568 241 568 271 548 c 0,31,32
 325 511 325 511 356 461 c 1,33,-1
 374 468 l 1,34,-1
 383 466 l 1,35,-1
 391 434 l 1,36,-1
 379 407 l 1,37,38
 397 345 397 345 386 266 c 0,39,40
 377 195 377 195 367 172 c 0,41,42
 358 148 358 148 327 113 c 0,43,44
 270 49 270 49 183 52 c 0,45,46
 89 55 89 55 46 154 c 0,47,48
 25 204 25 204 50 225 c 1,49,-1
 70 213 l 1,50,-1
 92 148 l 1,51,52
 131 100 131 100 146 94 c 0,53,54
 172 84 172 84 216 92 c 128,-1,55
 260 100 260 100 284 120 c 0,56,57
 344 168 344 168 350 289 c 2,58,-1
 354 361 l 1,59,60
 298 267 298 267 249 249 c 0,16,17
EndSplineSet
EndChar

StartChar: colon
Encoding: 58 58 31
Width: 151
GlyphClass: 2
Flags: W
LayerCount: 2
Fore
SplineSet
46 120 m 0,0,1
 54 133 54 133 58.5 136 c 128,-1,2
 63 139 63 139 70.5 138.5 c 128,-1,3
 78 138 78 138 96 130 c 0,4,5
 120 121 120 121 120.5 101.5 c 128,-1,6
 121 82 121 82 98 67 c 0,7,8
 67 47 67 47 46.5 67.5 c 128,-1,9
 26 88 26 88 46 120 c 0,0,1
62 373 m 0,10,11
 41 373 41 373 33 394 c 128,-1,12
 25 415 25 415 39 430 c 0,13,14
 52 446 52 446 73.5 445.5 c 128,-1,15
 95 445 95 445 105 429 c 0,16,17
 115 415 115 415 98.5 394 c 128,-1,18
 82 373 82 373 62 373 c 0,10,11
EndSplineSet
EndChar

StartChar: semicolon
Encoding: 59 59 32
Width: 159
GlyphClass: 2
Flags: W
LayerCount: 2
Fore
SplineSet
42 100 m 128,-1,1
 59 114 59 114 70 112 c 0,2,3
 86 111 86 111 103 96 c 0,4,5
 121 80 121 80 120 42 c 0,6,7
 119 8 119 8 100 -6 c 0,8,9
 57 -37 57 -37 45 -35 c 0,10,11
 26 -33 26 -33 34 -21 c 0,12,13
 36 -18 36 -18 67 -2 c 128,-1,14
 98 14 98 14 98 38 c 0,15,16
 98 44 98 44 98 51 c 1,17,18
 88 46 88 46 78 41 c 0,19,20
 60 33 60 33 43 48 c 0,21,22
 28 62 28 62 26.5 74 c 128,-1,0
 25 86 25 86 42 100 c 128,-1,1
72 349 m 0,23,24
 52 349 52 349 43 372 c 128,-1,25
 34 395 34 395 48 412 c 0,26,27
 61 429 61 429 82.5 424 c 128,-1,28
 104 419 104 419 116 397 c 0,29,30
 126 380 126 380 111.5 364.5 c 128,-1,31
 97 349 97 349 72 349 c 0,23,24
EndSplineSet
EndChar

StartChar: less
Encoding: 60 60 33
Width: 424
GlyphClass: 2
Flags: W
LayerCount: 2
Fore
SplineSet
318 542 m 0,0,1
 339 542 339 542 330 518 c 0,2,3
 318 487 318 487 229 449 c 1,4,-1
 193 431 l 2,5,6
 111 390 111 390 91 373 c 2,7,8
 91 373 91 373 66 356 c 1,9,10
 92 316 92 316 144 269 c 1,11,-1
 244 194 l 2,12,13
 264 179 264 179 279 160.5 c 128,-1,14
 294 142 294 142 284 137 c 1,15,16
 277 124 277 124 228 159 c 0,17,18
 123 233 123 233 108 248 c 0,19,20
 46 311 46 311 39 324 c 0,21,22
 26 348 26 348 24 360 c 0,23,24
 23 369 23 369 39 386 c 0,25,26
 46 393 46 393 72 407 c 0,27,28
 145 448 145 448 260 515 c 0,29,30
 306 542 306 542 318 542 c 0,0,1
EndSplineSet
EndChar

StartChar: equal
Encoding: 61 61 34
Width: 435
GlyphClass: 2
Flags: W
LayerCount: 2
Fore
SplineSet
395 235 m 0,0,1
 395 224 395 224 386.5 221 c 128,-1,2
 378 218 378 218 349 217 c 0,3,4
 307 215 307 215 162 204 c 0,5,6
 87 199 87 199 62 206 c 0,7,8
 43 210 43 210 47 224 c 0,9,10
 48 233 48 233 70.5 237 c 128,-1,11
 93 241 93 241 156 243 c 128,-1,12
 219 245 219 245 250 248 c 128,-1,13
 281 251 281 251 331 252 c 0,14,15
 373 253 373 253 384 250 c 128,-1,16
 395 247 395 247 395 235 c 0,0,1
378 383 m 0,17,18
 346 383 346 383 204 376 c 0,19,20
 55 371 55 371 41 383 c 0,21,22
 26 396 26 396 31 402 c 0,23,24
 31 407 31 407 99 408.5 c 128,-1,25
 167 410 167 410 227 411.5 c 128,-1,26
 287 413 287 413 305 416 c 0,27,28
 327 422 327 422 342 422 c 0,29,30
 374 422 374 422 389 416 c 0,31,32
 408 408 408 408 404 395.5 c 128,-1,33
 400 383 400 383 378 383 c 0,17,18
EndSplineSet
EndChar

StartChar: greater
Encoding: 62 62 35
Width: 443
GlyphClass: 2
Flags: W
LayerCount: 2
Fore
SplineSet
414 308 m 0,0,1
 414 303 414 303 403 293 c 0,2,3
 389 279 389 279 297 244 c 0,4,5
 213 213 213 213 168 197 c 128,-1,6
 123 181 123 181 93.5 173.5 c 128,-1,7
 64 166 64 166 55.5 169 c 128,-1,8
 47 172 47 172 47 183 c 0,9,10
 47 198 47 198 60 198 c 0,11,12
 71 198 71 198 121 218.5 c 128,-1,13
 171 239 171 239 179 240 c 0,14,15
 200 245 200 245 236 258.5 c 128,-1,16
 272 272 272 272 286 276 c 0,17,18
 326 288 326 288 342 301 c 0,19,20
 355 311 355 311 354 315.5 c 128,-1,21
 353 320 353 320 335 335 c 2,22,-1
 244 403 l 1,23,24
 191 432 191 432 181 436 c 2,25,-1
 96 479 l 2,26,27
 45 503 45 503 37 514 c 0,28,29
 26 531 26 531 31 544 c 0,30,31
 36 559 36 559 49 551 c 0,32,33
 52 550 52 550 72 536.5 c 128,-1,34
 92 523 92 523 112 513 c 0,35,36
 211 466 211 466 248 444 c 0,37,38
 287 422 287 422 316 403 c 0,39,40
 322 398 322 398 371 356 c 0,41,42
 412 323 412 323 414 308 c 0,0,1
EndSplineSet
EndChar

StartChar: question
Encoding: 63 63 36
Width: 380
GlyphClass: 2
Flags: W
LayerCount: 2
Fore
SplineSet
183 99 m 0,0,1
 197 110 197 110 201 110.5 c 128,-1,2
 205 111 205 111 219 105 c 0,3,4
 245 95 245 95 233 67 c 0,5,6
 221 40 221 40 194 36 c 0,7,8
 185 35 185 35 176 38 c 0,9,10
 159 43 159 43 161.5 64.5 c 128,-1,11
 164 86 164 86 183 99 c 0,0,1
339 380 m 0,12,13
 311 332 311 332 251 300 c 0,14,15
 225 286 225 286 220 276.5 c 128,-1,16
 215 267 215 267 215 231 c 0,17,18
 215 182 215 182 199 175 c 0,19,20
 192 172 192 172 188 175 c 2,21,22
 188 175 188 175 179 183 c 1,23,-1
 176 221 l 2,24,25
 176 254 176 254 187 283 c 0,26,27
 200 316 200 316 250 345 c 0,28,29
 299 373 299 373 313 406.5 c 128,-1,30
 327 440 327 440 306 491 c 0,31,32
 280 553 280 553 192 550 c 0,33,34
 124 548 124 548 88 514.5 c 128,-1,35
 52 481 52 481 73 439 c 0,36,37
 85 414 85 414 110 413 c 0,38,39
 133 412 133 412 128 428 c 0,40,41
 126 434 126 434 127 442 c 0,42,43
 128 448 128 448 130 449 c 0,44,45
 136 456 136 456 148 448 c 0,46,47
 156 440 156 440 158 427 c 0,48,49
 161 408 161 408 151 396 c 0,50,51
 131 374 131 374 103 374 c 0,52,53
 77 374 77 374 60 390 c 0,54,55
 10 442 10 442 36 512 c 0,56,57
 39 520 39 520 56 537 c 0,58,59
 83 566 83 566 138 579 c 0,60,61
 183 589 183 589 215 583 c 0,62,63
 270 573 270 573 291 560 c 0,64,65
 405 494 405 494 339 380 c 0,12,13
EndSplineSet
EndChar

StartChar: at
Encoding: 64 64 37
Width: 727
GlyphClass: 2
Flags: W
LayerCount: 2
Fore
SplineSet
253 312 m 0,0,1
 237 281 237 281 232 241 c 0,2,3
 225 193 225 193 239 162 c 128,-1,4
 253 131 253 131 278 138 c 0,5,6
 296 143 296 143 325 168 c 0,7,8
 407 241 407 241 407 290 c 0,9,10
 407 323 407 323 371 348 c 0,11,12
 359 356 359 356 341 360.5 c 128,-1,13
 323 365 323 365 310 363 c 0,14,15
 276 358 276 358 253 312 c 0,0,1
618 433 m 0,16,17
 633 399 633 399 640 347 c 0,18,19
 643 318 643 318 618 232 c 0,20,21
 600 170 600 170 541.5 135 c 128,-1,22
 483 100 483 100 434 123 c 0,23,24
 421 129 421 129 416 140 c 0,25,26
 413 150 413 150 411 178 c 0,27,28
 410 196 410 196 409 214 c 1,29,30
 406 213 406 213 399 203 c 0,31,32
 380 176 380 176 349 142 c 0,33,34
 311 101 311 101 282.5 96.5 c 128,-1,35
 254 92 254 92 226 123 c 0,36,37
 198 153 198 153 196.5 209.5 c 128,-1,38
 195 266 195 266 218 317 c 128,-1,39
 241 368 241 368 278 383 c 0,40,41
 317 399 317 399 375 387 c 0,42,43
 405 381 405 381 420 355 c 0,44,45
 424 349 424 349 424.5 346 c 128,-1,46
 425 343 425 343 435 355 c 0,47,48
 443 366 443 366 448 366.5 c 128,-1,49
 453 367 453 367 462 360 c 0,50,51
 477 349 477 349 468 307 c 0,52,53
 442 191 442 191 449 164 c 0,54,55
 453 150 453 150 465 150 c 0,56,57
 543 146 543 146 587 248 c 0,58,59
 610 301 610 301 606 334 c 0,60,61
 593 469 593 469 495 503 c 0,62,63
 220 597 220 597 123 422 c 0,64,65
 -21 162 -21 162 170 20 c 0,66,67
 349 -111 349 -111 564 40 c 0,68,69
 621 80 621 80 630 114 c 0,70,71
 642 160 642 160 686 149 c 0,72,73
 714 142 714 142 704 125 c 0,74,75
 679 83 679 83 582 4 c 0,76,77
 533 -36 533 -36 482 -53 c 0,78,79
 329 -104 329 -104 226 -54 c 0,80,81
 67 24 67 24 46 125 c 0,82,83
 -21 441 -21 441 223 557 c 0,84,85
 265 577 265 577 344 575 c 0,86,87
 558 568 558 568 618 433 c 0,16,17
EndSplineSet
EndChar

StartChar: A
Encoding: 65 65 38
Width: 538
GlyphClass: 2
Flags: W
LayerCount: 2
Fore
SplineSet
380.5 548 m 128,-1,1
 377 548 377 548 365 529 c 0,2,3
 343 496 343 496 337 486 c 2,4,-1
 200 283 l 2,5,6
 185 260 185 260 188 260 c 2,7,-1
 210 263 l 2,8,9
 260 270 260 270 282 270 c 2,10,-1
 375 271 l 2,11,12
 405 272 405 272 408 273 c 2,13,14
 408 273 408 273 403 329 c 2,15,-1
 396 436 l 1,16,17
 386 497 386 497 385 521 c 0,18,0
 384 548 384 548 380.5 548 c 128,-1,1
272 226 m 0,19,20
 209 229 209 229 202 230 c 0,21,22
 163 230 163 230 162 228 c 128,-1,23
 161 226 161 226 138 192 c 0,24,25
 127 176 127 176 97 121 c 2,26,27
 97 121 97 121 79 88 c 0,28,29
 67 66 67 66 64 61 c 0,30,31
 56 43 56 43 42 43 c 0,32,33
 34 43 34 43 31.5 52 c 128,-1,34
 29 61 29 61 32 72 c 0,35,36
 40.3952941176 98.2352941176 40.3952941176 98.2352941176 64 134 c 2,37,-1
 97 184 l 2,38,39
 121 220 121 220 122 223 c 2,40,-1
 98 222 l 2,41,42
 77 221 77 221 68 238 c 0,43,44
 63 248 63 248 69 254 c 0,45,46
 69.619047619 254.619047619 69.619047619 254.619047619 100 256 c 2,47,-1
 144 258 l 1,48,49
 256 441 256 441 321 524 c 0,50,51
 350 561 350 561 350 571.5 c 128,-1,52
 350 582 350 582 360 592 c 0,53,54
 369 601 369 601 384 602 c 0,55,56
 436 607 436 607 439 594 c 0,57,58
 462 509 462 509 468 472 c 0,59,60
 475 432 475 432 483 300 c 0,61,62
 486 252 486 252 488.5 222.5 c 128,-1,63
 491 193 491 193 495.5 159 c 128,-1,64
 500 125 500 125 503 89 c 0,65,66
 507 44 507 44 505.5 34.5 c 0,67,68
 504 22 504 22 451 27 c 0,69,70
 432 29 432 29 431 63 c 0,71,72
 430 91 430 91 428 102.5 c 128,-1,73
 426 114 426 114 422 131 c 128,-1,74
 418 148 418 148 414 180 c 0,75,76
 409 222 409 222 404 233 c 1,77,78
 395 232 395 232 386 232 c 0,79,80
 288 225 288 225 272 226 c 0,19,20
EndSplineSet
EndChar

StartChar: B
Encoding: 66 66 39
Width: 500
GlyphClass: 2
Flags: W
LayerCount: 2
Fore
SplineSet
344 271 m 0,0,1
 305 298 305 298 130 307 c 1,2,3
 130 289 130 289 131 233.5 c 128,-1,4
 132 178 132 178 133 126 c 128,-1,5
 134 74 134 74 134 58 c 1,6,7
 241 25 241 25 332 54 c 0,8,9
 407 77 407 77 415 94 c 0,10,11
 456 194 456 194 344 271 c 0,0,1
130 566 m 1,12,-1
 130 368 l 1,13,14
 211 366 211 366 247 374 c 0,15,16
 272 380 272 380 312 405 c 128,-1,17
 352 430 352 430 363 447 c 0,18,19
 376 467 376 467 372 498 c 0,20,21
 367 527 367 527 348 542 c 0,22,23
 253 616 253 616 130 566 c 1,12,-1
402 521 m 0,24,25
 423 472 423 472 394 426 c 0,26,27
 365 379 365 379 298 356 c 2,28,-1
 251 340 l 1,29,-1
 301 327 l 2,30,31
 446 289 446 289 469 154 c 0,32,33
 474 125 474 125 457.5 92.5 c 128,-1,34
 441 60 441 60 413 44 c 0,35,36
 372 19 372 19 312 8 c 0,37,38
 221 -9 221 -9 113 27 c 0,39,40
 92 34 92 34 75.5 40.5 c 128,-1,41
 59 47 59 47 50 53 c 0,42,43
 42 59 42 59 39 62 c 128,-1,44
 36 65 36 65 31.5 69.5 c 128,-1,45
 27 74 27 74 32 79 c 0,46,47
 40 87 40 87 54 88 c 0,48,49
 56 87 56 87 73 81 c 0,50,51
 82 78 82 78 91 76 c 1,52,53
 92 88 92 88 93 101 c 0,54,55
 97 138 97 138 96 191 c 0,56,57
 95 250 95 250 94 309 c 1,58,59
 74 310 74 310 66 334 c 0,60,61
 56 366 56 366 72 367 c 0,62,63
 85 368 85 368 94 370 c 0,64,65
 95 374 95 374 94 436 c 0,66,67
 93 480 93 480 90 524 c 0,68,69
 89 538 89 538 88 552 c 1,70,-1
 69 550 l 1,71,72
 56 556 56 556 52 582 c 0,73,74
 49 607 49 607 233 623 c 0,75,76
 354 634 354 634 402 521 c 0,24,25
EndSplineSet
EndChar

StartChar: C
Encoding: 67 67 40
Width: 536
GlyphClass: 2
Flags: W
LayerCount: 2
Fore
SplineSet
404 576 m 0,0,1
 454 548 454 548 485 504 c 0,2,3
 510 468 510 468 505 455 c 0,4,5
 500 441 500 441 489.5 441.5 c 128,-1,6
 479 442 479 442 473 458 c 0,7,8
 468 472 468 472 447.5 497.5 c 128,-1,9
 427 523 427 523 413.5 530.5 c 128,-1,10
 400 538 400 538 367 552 c 0,11,12
 252 599 252 599 143 487 c 0,13,14
 115 459 115 459 94 413 c 128,-1,15
 73 367 73 367 68 328 c 0,16,17
 51 185 51 185 129 112 c 0,18,19
 163 80 163 80 184 72 c 0,20,21
 206 64 206 64 254 62 c 0,22,23
 324 59 324 59 399 102 c 0,24,25
 418 112 418 112 431 134.5 c 128,-1,26
 444 157 444 157 445 179 c 0,27,28
 446 200 446 200 460 193 c 0,29,30
 476 186 476 186 478 162 c 0,31,32
 480 142 480 142 472.5 128 c 128,-1,33
 465 114 465 114 437 88 c 0,34,35
 372 23 372 23 286 23 c 2,36,-1
 231 23 l 2,37,38
 179 22 179 22 125 62 c 128,-1,39
 71 102 71 102 46 159 c 0,40,41
 32 190 32 190 30 278 c 0,42,43
 28 372 28 372 71 444 c 0,44,45
 99 491 99 491 128 524 c 0,46,47
 138 536 138 536 162.5 553.5 c 128,-1,48
 187 571 187 571 208 582 c 0,49,50
 235 598 235 598 273 602 c 0,51,52
 302 605 302 605 328 602 c 0,53,54
 365 599 365 599 404 576 c 0,0,1
EndSplineSet
EndChar

StartChar: D
Encoding: 68 68 41
Width: 569
GlyphClass: 2
Flags: W
LayerCount: 2
Fore
SplineSet
185 64 m 2,0,1
 212 50 212 50 365 67 c 0,2,3
 452 77 452 77 484 162 c 0,4,5
 506 219 506 219 504 260 c 0,6,7
 502 303 502 303 493 330 c 0,8,9
 483 360 483 360 461 388 c 0,10,11
 421 440 421 440 390 463 c 0,12,13
 330 506 330 506 295 514 c 0,14,15
 256 523 256 523 204 523 c 0,16,17
 155 523 155 523 148 518 c 1,18,19
 145 436 145 436 146 314 c 0,20,21
 147 180 147 180 147 99 c 0,22,23
 147 88 147 88 155 80 c 2,24,-1
 185 64 l 2,0,1
425 486 m 0,25,26
 542 379 542 379 538 251 c 0,27,28
 538 202 538 202 534 186 c 0,29,30
 528 164 528 164 509 130 c 0,31,32
 477 72 477 72 427 48 c 0,33,34
 380 24 380 24 287 21 c 0,35,36
 230 19 230 19 192.5 22 c 128,-1,37
 155 25 155 25 133 32.5 c 128,-1,38
 111 40 111 40 105 52 c 0,39,40
 98 66 98 66 105 83 c 0,41,42
 114 106 114 106 111 304 c 0,43,44
 108 479 108 479 97 504 c 0,45,46
 89 521 89 521 67 506 c 0,47,48
 49 494 49 494 39 509 c 0,49,50
 24 532 24 532 32 536 c 0,51,52
 34 537 34 537 37 536 c 0,53,54
 46 533 46 533 76 542 c 0,55,56
 93 547 93 547 99.5 551.5 c 128,-1,57
 106 556 106 556 103 563 c 0,58,59
 99 574 99 574 110 597 c 0,60,61
 118 613 118 613 130 607 c 1,62,-1
 139 584 l 2,63,64
 143 572 143 572 148 561 c 0,65,66
 148 559 148 559 212 558 c 0,67,68
 347 556 347 556 425 486 c 0,25,26
EndSplineSet
EndChar

StartChar: E
Encoding: 69 69 42
Width: 509
GlyphClass: 2
Flags: W
LayerCount: 2
Fore
SplineSet
67 604 m 0,0,1
 75 630 75 630 84 626 c 0,2,3
 89 623 89 623 94 620 c 0,4,5
 103 615 103 615 102 605.5 c 128,-1,6
 101 596 101 596 100 586 c 1,7,-1
 133 591 l 2,8,9
 191 600 191 600 331.5 602.5 c 128,-1,10
 472 605 472 605 476 598 c 0,11,12
 485 583 485 583 454 576 c 0,13,14
 417 567 417 567 293 563 c 0,15,16
 126 557 126 557 97 551 c 1,17,-1
 96 539 l 2,18,19
 94 527 94 527 93 501 c 0,20,21
 91 422 91 422 89 344 c 1,22,23
 89 344 89 344 109 340 c 0,24,25
 211 331 211 331 229 330 c 0,26,27
 377 321 377 321 364 302 c 0,28,29
 362 299 362 299 357 296 c 0,30,31
 344 289 344 289 246.5 291.5 c 128,-1,32
 149 294 149 294 87 302 c 1,33,34
 88 248 88 248 88 195 c 2,35,-1
 92 79 l 1,36,37
 98 65 98 65 300 59 c 0,38,39
 454 54 454 54 436 41 c 1,40,-1
 416 13 l 2,41,42
 414 10 414 10 403 19 c 0,43,44
 398 23 398 23 250 26 c 0,45,46
 113 29 113 29 97 35 c 0,47,48
 74 44 74 44 69 52 c 0,49,50
 61 64 61 64 57 104 c 128,-1,51
 53 144 53 144 53 198 c 0,52,53
 53 253 53 253 51 308 c 1,54,55
 51 308 51 308 31 318 c 1,56,-1
 19 341 l 1,57,58
 24 350 24 350 34 349 c 2,59,-1
 52 348 l 2,60,61
 53 351 53 351 55 418 c 0,62,63
 56 443 56 443 58 489 c 0,64,65
 62 590 62 590 67 604 c 0,0,1
EndSplineSet
EndChar

StartChar: F
Encoding: 70 70 43
Width: 459
GlyphClass: 2
Flags: W
LayerCount: 2
Fore
SplineSet
155 551 m 0,0,1
 140 551 140 551 132.5 550.5 c 128,-1,2
 125 550 125 550 117 545 c 128,-1,3
 109 540 109 540 106.5 534 c 128,-1,4
 104 528 104 528 102 511 c 128,-1,5
 100 494 100 494 99.5 476 c 128,-1,6
 99 458 99 458 99 423 c 2,7,-1
 99 342 l 1,8,-1
 206 342 l 2,9,10
 332 342 332 342 335 326 c 0,11,12
 336 321 336 321 332 315 c 0,13,14
 326 305 326 305 222 307 c 0,15,16
 116 309 116 309 107 303 c 0,17,18
 95 295 95 295 94 234 c 0,19,20
 92 183 92 183 98 131 c 0,21,22
 103 87 103 87 98 66 c 0,23,24
 94 49 94 49 77 45 c 0,25,26
 65 42 65 42 65 84 c 0,27,28
 66 208 66 208 61 256 c 128,-1,29
 56 304 56 304 42 316 c 0,30,31
 21 333 21 333 36 340 c 0,32,33
 42 343 42 343 44 343 c 2,34,-1
 55 343 l 2,35,36
 55 344 55 344 56 350 c 0,37,38
 60 365 60 365 61.5 380 c 128,-1,39
 63 395 63 395 64 414.5 c 128,-1,40
 65 434 65 434 65 437 c 0,41,42
 74 476 74 476 64 539 c 0,43,44
 60 565 60 565 56 563 c 0,45,46
 46 557 46 557 47 567 c 0,47,48
 47 579 47 579 59 592 c 0,49,50
 70 605 70 605 74 606 c 0,51,52
 82 606 82 606 94 598 c 0,53,54
 105 591 105 591 175 586 c 0,55,56
 195 585 195 585 346 584 c 0,57,58
 408 583 408 583 423 574 c 0,59,60
 435 567 435 567 424 555 c 0,61,62
 417 548 417 548 371.5 544.5 c 128,-1,63
 326 541 326 541 285 544 c 2,64,-1
 210 543 l 1,65,66
 198 551 198 551 155 551 c 0,0,1
EndSplineSet
EndChar

StartChar: G
Encoding: 71 71 44
Width: 599
GlyphClass: 2
Flags: W
LayerCount: 2
Fore
SplineSet
333 304 m 0,0,1
 356 303 356 303 410.5 310 c 128,-1,2
 465 317 465 317 483 317 c 2,3,-1
 540 317 l 2,4,5
 555 317 555 317 562.5 314 c 128,-1,6
 570 311 570 311 569 305 c 0,7,8
 562 277 562 277 526 277 c 0,9,10
 511 277 511 277 508 260 c 0,11,12
 505 238 505 238 510 147 c 0,13,14
 516 45 516 45 503 35 c 0,15,16
 499 32 499 32 494 31.5 c 128,-1,17
 489 31 489 31 488 33 c 0,18,19
 480 41 480 41 475 110 c 0,20,21
 474 127 474 127 464 146 c 1,22,-1
 459 132 l 2,23,24
 451 112 451 112 438 101 c 2,25,26
 438 101 438 101 389 52 c 1,27,28
 360 38 360 38 287.5 35.5 c 128,-1,29
 215 33 215 33 181 47 c 0,30,31
 151 60 151 60 108 98 c 128,-1,32
 65 136 65 136 62 151 c 0,33,34
 59 167 59 167 47 190 c 128,-1,35
 35 213 35 213 31 282 c 0,36,37
 26 364 26 364 53 429 c 0,38,39
 69 468 69 468 96 511 c 0,40,41
 125 556 125 556 172 577 c 0,42,43
 378 668 378 668 476 497 c 0,44,45
 480 490 480 490 488 481 c 1,46,47
 488 481 488 481 490 471 c 0,48,49
 496 449 496 449 496 447 c 0,50,51
 493 433 493 433 479 433 c 0,52,53
 470 433 470 433 455 465 c 0,54,55
 450 476 450 476 412 514 c 0,56,57
 333 591 333 591 184 545 c 1,58,59
 99 514 99 514 70 366 c 0,60,61
 41 213 41 213 140 118 c 0,62,63
 167 92 167 92 202 81.5 c 128,-1,64
 237 71 237 71 298 70 c 0,65,66
 355 69 355 69 400 114 c 256,67,68
 445 159 445 159 451 223 c 2,69,-1
 456 275 l 1,70,-1
 376 275 l 2,71,72
 317 275 317 275 310 276 c 0,73,74
 294 278 294 278 294 287 c 0,75,76
 294 306 294 306 333 304 c 0,0,1
EndSplineSet
EndChar

StartChar: H
Encoding: 72 72 45
Width: 496
GlyphClass: 2
Flags: W
LayerCount: 2
Fore
SplineSet
79 38 m 0,0,1
 69 38 69 38 66.5 63 c 128,-1,2
 64 88 64 88 64 176 c 0,3,4
 64 196 64 196 64 212.5 c 128,-1,5
 64 229 64 229 63.5 244.5 c 128,-1,6
 63 260 63 260 63 272 c 128,-1,7
 63 284 63 284 62.5 293 c 128,-1,8
 62 302 62 302 61.5 306 c 128,-1,9
 61 310 61 310 60 310 c 0,10,11
 53 304 53 304 38 321 c 0,12,13
 23 337 23 337 40 343 c 0,14,15
 43 344 43 344 47 344 c 0,16,17
 58 344 58 344 64 361.5 c 128,-1,18
 70 379 70 379 78 439 c 0,19,20
 93 547 93 547 97 587 c 0,21,22
 99 603 99 603 113 603 c 0,23,24
 120 603 120 603 123 597.5 c 128,-1,25
 126 592 126 592 125.5 569.5 c 128,-1,26
 125 547 125 547 122 512 c 0,27,28
 116 440 116 440 112 406 c 0,29,30
 107 363 107 363 110 354 c 0,31,32
 112 343 112 343 131 340 c 0,33,34
 183 332 183 332 270 340 c 0,35,36
 333 347 333 347 337 347 c 2,37,-1
 408 347 l 1,38,-1
 412 440 l 2,39,40
 414 496 414 496 418 532 c 0,41,42
 421 552 421 552 431 588 c 0,43,44
 434 599 434 599 439.5 606 c 128,-1,45
 445 613 445 613 450 612 c 0,46,47
 465 607 465 607 453 508 c 0,48,49
 452 500 452 500 442.5 292.5 c 128,-1,50
 433 85 433 85 426 67 c 1,51,52
 407 49 407 49 403 89 c 0,53,54
 400 118 400 118 401 187 c 0,55,56
 403 307 403 307 392 307 c 0,57,58
 334 305 334 305 277 303 c 0,59,60
 149 299 149 299 101 301 c 1,61,62
 96 212 96 212 94 101 c 0,63,64
 93 38 93 38 79 38 c 0,0,1
EndSplineSet
EndChar

StartChar: I
Encoding: 73 73 46
Width: 308
GlyphClass: 2
Flags: W
LayerCount: 2
Fore
SplineSet
221 567 m 2,0,-1
 184 567 l 1,1,2
 184 515 184 515 184 440.5 c 128,-1,3
 184 366 184 366 183.5 297.5 c 128,-1,4
 183 229 183 229 180 165.5 c 128,-1,5
 177 102 177 102 171 72 c 1,6,-1
 222 72 l 2,7,8
 254 72 254 72 262.5 68.5 c 128,-1,9
 271 65 271 65 269 54 c 0,10,11
 267 44 267 44 252.5 40.5 c 128,-1,12
 238 37 238 37 189 35 c 2,13,14
 189 35 189 35 83 39 c 0,15,16
 73 39 73 39 64 45.5 c 128,-1,17
 55 52 55 52 57 59 c 0,18,19
 57 74 57 74 96 70 c 0,20,21
 134 66 134 66 136 72 c 0,22,23
 136 82 136 82 139 106 c 0,24,25
 143 131 143 131 146 249 c 128,-1,26
 149 367 149 367 149 458.5 c 128,-1,27
 149 550 149 550 146 566 c 1,28,29
 89 558 89 558 46 575 c 0,30,31
 22 584 22 584 35 594 c 0,32,33
 45 600 45 600 154 602.5 c 128,-1,34
 263 605 263 605 273 599 c 0,35,36
 287 590 287 590 264 577 c 0,37,38
 244 567 244 567 221 567 c 2,0,-1
EndSplineSet
EndChar

StartChar: J
Encoding: 74 74 47
Width: 545
GlyphClass: 2
Flags: W
LayerCount: 2
Fore
SplineSet
264 -114 m 2,0,-1
 314 -102 l 2,1,2
 322 -100 322 -100 351 -68 c 0,3,4
 401 -13 401 -13 404 337 c 2,5,-1
 406 550 l 2,6,7
 403 550 403 550 391.5 547.5 c 128,-1,8
 380 545 380 545 372 544 c 128,-1,9
 364 543 364 543 354 542.5 c 128,-1,10
 344 542 344 542 337 543.5 c 128,-1,11
 330 545 330 545 327 549 c 0,12,13
 313 572 313 572 354 577 c 2,14,-1
 402 583 l 2,15,16
 462 587 462 587 465 588 c 0,17,18
 482 595 482 595 495 592.5 c 128,-1,19
 508 590 508 590 512 580 c 0,20,21
 520 563 520 563 510 556.5 c 128,-1,22
 500 550 500 550 471 554 c 2,23,-1
 435 559 l 1,24,-1
 437 337 l 2,25,26
 439 146 439 146 429 55 c 0,27,28
 420 -28 420 -28 394 -67 c 0,29,30
 367 -106 367 -106 344 -122 c 0,31,32
 205 -209 205 -209 80 -80 c 0,33,34
 32 -30 32 -30 30 36 c 0,35,36
 29 77 29 77 32.5 94.5 c 128,-1,37
 36 112 36 112 46 126 c 0,38,39
 55 137 55 137 60 138.5 c 128,-1,40
 65 140 65 140 72 133 c 0,41,42
 84 121 84 121 73 108 c 0,43,44
 70 104 70 104 67.5 89 c 128,-1,45
 65 74 65 74 64 56 c 0,46,47
 63 -7 63 -7 120 -66 c 0,48,49
 183 -133 183 -133 264 -114 c 2,0,-1
EndSplineSet
EndChar

StartChar: K
Encoding: 75 75 48
Width: 493
GlyphClass: 2
Flags: W
LayerCount: 2
Fore
SplineSet
277 467 m 2,0,1
 277 467 277 467 424 594 c 0,2,3
 436 604 436 604 444 606 c 0,4,5
 450 607 450 607 458 600 c 0,6,7
 466 592 466 592 461 583.5 c 128,-1,8
 456 575 456 575 430 554 c 0,9,10
 403 532 403 532 354 485 c 0,11,12
 319 451 319 451 273 413 c 0,13,14
 262 404 262 404 248.5 394 c 128,-1,15
 235 384 235 384 226 377.5 c 128,-1,16
 217 371 217 371 215 369 c 0,17,18
 208 361 208 361 260 309 c 0,19,20
 299 271 299 271 346 212 c 0,21,22
 443 90 443 90 448 74 c 0,23,24
 455 50 455 50 440 46 c 0,25,26
 428 43 428 43 404 75 c 2,27,28
 404 75 404 75 329 175 c 0,29,30
 299 215 299 215 274 242 c 0,31,32
 246 271 246 271 218 300 c 0,33,34
 182 340 182 340 179 339 c 2,35,-1
 160 323 l 2,36,37
 145 311 145 311 132 302 c 0,38,39
 98 274 98 274 76 263 c 2,40,-1
 64 259 l 1,41,-1
 64 242 l 1,42,-1
 67 154 l 2,43,44
 73 74 73 74 54 55 c 128,-1,45
 35 36 35 36 31 77 c 0,46,47
 29 100 29 100 31 144 c 0,48,49
 32 169 32 169 36 262 c 0,50,51
 43 434 43 434 44 436 c 0,52,53
 45 517 45 517 47 551 c 0,54,55
 49 593 49 593 59 603 c 0,56,57
 83 627 83 627 80 520 c 0,58,59
 78 477 78 477 75 422 c 128,-1,60
 72 367 72 367 73 365 c 0,61,62
 74 338 74 338 72 307 c 1,63,64
 94 319 94 319 102 325 c 0,65,66
 132 347 132 347 178 385 c 0,67,68
 263 455 263 455 277 467 c 2,0,1
EndSplineSet
EndChar

StartChar: L
Encoding: 76 76 49
Width: 437
GlyphClass: 2
Flags: W
LayerCount: 2
Fore
SplineSet
407 68 m 0,0,1
 407 55 407 55 340 49 c 128,-1,2
 273 43 273 43 183 47 c 0,3,4
 91 51 91 51 68 51 c 0,5,6
 48 52 48 52 43.5 55.5 c 128,-1,7
 39 59 39 59 43 70 c 0,8,9
 50 84 50 84 50.5 114.5 c 128,-1,10
 51 145 51 145 45 251 c 0,11,12
 32 483 32 483 30 536 c 0,13,14
 29 604 29 604 39 614 c 0,15,16
 40 615 40 615 46 611 c 0,17,18
 56 605 56 605 64 546 c 0,19,20
 67 530 67 530 68.5 504 c 128,-1,21
 70 478 70 478 70.5 453.5 c 128,-1,22
 71 429 71 429 71.5 407.5 c 128,-1,23
 72 386 72 386 72 383 c 0,24,25
 74 326 74 326 82 217 c 128,-1,26
 90 108 90 108 97 100 c 0,27,28
 106 86 106 86 166 84 c 0,29,30
 376 73 376 73 380 85 c 0,31,32
 383 96 383 96 397 86 c 0,33,34
 407 78 407 78 407 68 c 0,0,1
EndSplineSet
EndChar

StartChar: M
Encoding: 77 77 50
Width: 573
GlyphClass: 2
Flags: W
LayerCount: 2
Fore
SplineSet
88 587 m 1,0,1
 85 587 85 587 122 531 c 0,2,3
 162 472 162 472 195 419 c 2,4,-1
 263 311 l 2,5,6
 272 297 272 297 282 300 c 0,7,8
 290 301 290 301 311 325 c 0,9,10
 329 344 329 344 394 428 c 128,-1,11
 459 512 459 512 473 528 c 0,12,13
 496 553 496 553 496 565 c 0,14,15
 495 579 495 579 539 572 c 1,16,-1
 542 319 l 2,17,18
 545 65 545 65 535 37 c 0,19,20
 531 25 531 25 520 29 c 0,21,22
 511 33 511 33 508.5 71 c 128,-1,23
 506 109 506 109 506 235 c 2,24,-1
 506 513 l 1,25,26
 475 467 475 467 450 439 c 0,27,28
 399 380 399 380 349 314 c 0,29,30
 294 242 294 242 252 258 c 0,31,32
 241 262 241 262 237 278 c 0,33,34
 232 297 232 297 222 309 c 0,35,36
 206 329 206 329 161 402 c 0,37,38
 96 505 96 505 88 510 c 0,39,40
 83 513 83 513 81 504 c 0,41,42
 80 499 80 499 79 474 c 0,43,44
 76 416 76 416 71.5 376.5 c 128,-1,45
 67 337 67 337 67 325.5 c 128,-1,46
 67 314 67 314 67 213 c 0,47,48
 68 103 68 103 63.5 73 c 128,-1,49
 59 43 59 43 42 43 c 0,50,51
 31 43 31 43 30 73 c 128,-1,52
 29 103 29 103 33 225 c 0,53,54
 46 577 46 577 62 588 c 0,55,56
 88 604 88 604 88 587 c 1,0,1
EndSplineSet
EndChar

StartChar: N
Encoding: 78 78 51
Width: 466
GlyphClass: 2
Flags: W
LayerCount: 2
Fore
SplineSet
406 619 m 0,0,1
 417 619 417 619 423 611 c 0,2,3
 426 606 426 606 429 478 c 0,4,5
 432 372 432 372 429 332 c 0,6,7
 425 268 425 268 435 113 c 0,8,9
 441 23 441 23 422 24 c 0,10,11
 408 25 408 25 381 60 c 0,12,13
 350 101 350 101 342 118 c 0,14,15
 336 131 336 131 321 146 c 0,16,17
 311 155 311 155 246 248 c 128,-1,18
 181 341 181 341 180 342 c 0,19,20
 161 368 161 368 128 420 c 2,21,-1
 94 472 l 1,22,-1
 81 488 l 1,23,-1
 72 493 l 1,24,25
 70 489 70 489 68 440 c 0,26,27
 66 408 66 408 65.5 361 c 128,-1,28
 65 314 65 314 65 233 c 0,29,30
 65 48 65 48 58 48 c 1,31,-1
 46 38 l 1,32,33
 36 38 36 38 33 112.5 c 128,-1,34
 30 187 30 187 30 440 c 0,35,36
 30 529 30 529 33 549 c 128,-1,37
 36 569 36 569 50 573 c 0,38,39
 63 576 63 576 67 572.5 c 128,-1,40
 71 569 71 569 74 560 c 0,41,42
 74 558 74 558 82 547 c 0,43,44
 89 537 89 537 109 512 c 128,-1,45
 129 487 129 487 136 477 c 128,-1,46
 143 467 143 467 210 361 c 0,47,48
 245 307 245 307 249 303 c 0,49,50
 263 291 263 291 294 239 c 1,51,-1
 390 112 l 2,52,53
 394 106 394 106 400 103 c 1,54,-1
 396 172 l 1,55,-1
 394 437 l 2,56,57
 393 619 393 619 406 619 c 0,0,1
EndSplineSet
EndChar

StartChar: O
Encoding: 79 79 52
Width: 570
GlyphClass: 2
Flags: W
LayerCount: 2
Fore
SplineSet
119 442 m 0,0,1
 105 416 105 416 91 390.5 c 128,-1,2
 77 365 77 365 80 363 c 1,3,4
 81 367 81 367 76 352 c 0,5,6
 45 255 45 255 97 180 c 1,7,8
 154 81 154 81 292 70 c 0,9,10
 322 68 322 68 365.5 87.5 c 128,-1,11
 409 107 409 107 434 135 c 0,12,13
 443 144 443 144 454 163.5 c 128,-1,14
 465 183 465 183 470 195.5 c 128,-1,15
 475 208 475 208 486.5 236.5 c 128,-1,16
 498 265 498 265 498 266 c 0,17,18
 501 273 501 273 504 328 c 0,19,20
 508 410 508 410 449 477 c 0,21,22
 418 514 418 514 411 520 c 0,23,24
 394 533 394 533 367 542 c 0,25,26
 327 556 327 556 314 556 c 128,-1,27
 301 556 301 556 257 544 c 0,28,29
 227 536 227 536 200 525 c 0,30,31
 153 505 153 505 119 442 c 0,0,1
144 69.5 m 128,-1,33
 108 94 108 94 78 142 c 0,34,35
 50 184 50 184 37 227 c 0,36,37
 13 308 13 308 69 426 c 0,38,39
 89 468 89 468 116 501 c 0,40,41
 144 536 144 536 174.5 552 c 128,-1,42
 205 568 205 568 214 568 c 0,43,44
 217 569 217 569 254 582 c 0,45,46
 291 596 291 596 331 592 c 128,-1,47
 371 588 371 588 402 572 c 0,48,49
 432 557 432 557 477.5 502.5 c 128,-1,50
 523 448 523 448 534 414 c 0,51,52
 540 396 540 396 540 350 c 128,-1,53
 540 304 540 304 535 278 c 0,54,55
 516 185 516 185 460.5 117.5 c 128,-1,56
 405 50 405 50 339 37 c 0,57,58
 307 31 307 31 253 37 c 0,59,32
 180 45 180 45 144 69.5 c 128,-1,33
EndSplineSet
EndChar

StartChar: P
Encoding: 80 80 53
Width: 460
GlyphClass: 2
Flags: W
LayerCount: 2
Fore
SplineSet
357 511 m 0,0,1
 330 540 330 540 277.5 555 c 128,-1,2
 225 570 225 570 180 556 c 1,3,4
 114 544 114 544 88 532 c 1,5,6
 88 532 88 532 82 420 c 0,7,8
 80 319 80 319 83 293.5 c 128,-1,9
 86 268 86 268 166 260.5 c 128,-1,10
 246 253 246 253 337 306 c 0,11,12
 354 316 354 316 372.5 342.5 c 128,-1,13
 391 369 391 369 396 392 c 0,14,15
 400 411 400 411 386.5 451.5 c 128,-1,16
 373 492 373 492 357 511 c 0,0,1
59 587 m 2,17,18
 58 604 58 604 72 605 c 0,19,20
 87 606 87 606 88 591 c 0,21,22
 88 579 88 579 92 578 c 0,23,24
 98 577 98 577 164 591 c 0,25,26
 218 602 218 602 240 601 c 0,27,28
 259 600 259 600 312 582 c 0,29,30
 389 555 389 555 411 499 c 0,31,32
 419 478 419 478 424.5 452 c 128,-1,33
 430 426 430 426 430 410 c 0,34,35
 430 365 430 365 406 326 c 0,36,37
 387 294 387 294 360 274 c 0,38,39
 311 237 311 237 222 224 c 1,40,-1
 105 230 l 1,41,-1
 81 233 l 1,42,-1
 80 216 l 2,43,44
 79 209 79 209 79 142 c 0,45,46
 79 36 79 36 64 23 c 0,47,48
 55 15 55 15 51.5 15.5 c 128,-1,49
 48 16 48 16 45 24 c 0,50,51
 38 44 38 44 44 224 c 0,52,53
 49 415 49 415 49 494 c 0,54,55
 49 508 49 508 49 521 c 1,56,-1
 40 517 l 1,57,58
 9 532 9 532 35 560 c 1,59,-1
 57 571 l 1,60,-1
 59 587 l 2,17,18
EndSplineSet
EndChar

StartChar: Q
Encoding: 81 81 54
Width: 655
GlyphClass: 2
Flags: W
LayerCount: 2
Fore
SplineSet
67 327 m 0,0,1
 47 214 47 214 138 117 c 0,2,3
 169 84 169 84 242 66 c 0,4,5
 286 56 286 56 340 65 c 2,6,7
 340 65 340 65 380 72 c 0,8,9
 405 78 405 78 414 81 c 1,10,11
 414 81 414 81 386 103 c 0,12,13
 331 146 331 146 293 135 c 0,14,15
 270 128 270 128 262 130 c 0,16,17
 246 132 246 132 245.5 146 c 128,-1,18
 245 160 245 160 278 171 c 0,19,20
 310 182 310 182 349.5 172 c 128,-1,21
 389 162 389 162 414.5 134 c 128,-1,22
 440 106 440 106 444 106 c 0,23,24
 447 106 447 106 464 122 c 0,25,26
 500 152 500 152 519 199 c 0,27,28
 531 228 531 228 531 311 c 128,-1,29
 531 394 531 394 518 417 c 0,30,31
 497 458 497 458 464 491.5 c 128,-1,32
 431 525 431 525 408 529 c 0,33,34
 316 544 316 544 250 531 c 0,35,36
 230 527 230 527 194 506 c 0,37,38
 87 442 87 442 67 327 c 0,0,1
532 34 m 2,39,40
 569 13 569 13 584 23 c 0,41,42
 595 30 595 30 610 22.5 c 128,-1,43
 625 15 625 15 625 3 c 0,44,45
 625 -5 625 -5 608 -11 c 0,46,47
 550 -34 550 -34 498 1 c 2,48,-1
 430 48 l 2,49,50
 428 49 428 49 369 35 c 0,51,52
 251 6 251 6 170 52 c 0,53,54
 125 76 125 76 101 103 c 0,55,56
 30 181 30 181 30 293 c 0,57,58
 29 408 29 408 99 475 c 0,59,60
 122 497 122 497 156 521 c 0,61,62
 186 543 186 543 200 547 c 0,63,64
 207 549 207 549 222.5 556 c 128,-1,65
 238 563 238 563 252 566.5 c 128,-1,66
 266 570 266 570 285 572 c 0,67,68
 345 579 345 579 402.5 566 c 128,-1,69
 460 553 460 553 486 527 c 0,70,71
 556 457 556 457 568 351 c 0,72,73
 581 233 581 233 537 152 c 0,74,75
 530 139 530 139 497 98 c 1,76,-1
 473 73 l 1,77,-1
 532 34 l 2,39,40
EndSplineSet
EndChar

StartChar: R
Encoding: 82 82 55
Width: 569
GlyphClass: 2
Flags: W
LayerCount: 2
Fore
SplineSet
185 247 m 0,0,1
 107 293 107 293 127 308 c 0,2,3
 131 311 131 311 158 309 c 0,4,5
 225 306 225 306 295 324 c 0,6,7
 350 338 350 338 363 345 c 0,8,9
 393 362 393 362 402 381 c 0,10,11
 417 412 417 412 413.5 448 c 128,-1,12
 410 484 410 484 390 507 c 0,13,14
 355 547 355 547 282 566 c 128,-1,15
 209 585 209 585 153 569 c 0,16,17
 115 558 115 558 107 548 c 1,18,19
 107 533 107 533 108 513 c 0,20,21
 108 455 108 455 107 448 c 0,22,23
 105 387 105 387 106 208 c 0,24,25
 108 61 108 61 97 46 c 0,26,27
 88 33 88 33 77 38 c 0,28,29
 70 41 70 41 70 225 c 0,30,31
 70 531 70 531 68 532 c 0,32,33
 52 519 52 519 42 522 c 0,34,35
 10 531 10 531 22 550 c 1,36,-1
 40 565 l 2,37,38
 55 576 55 576 69 587 c 1,39,40
 69 605 69 605 83 610 c 0,41,42
 99 615 99 615 100 614 c 0,43,44
 100 613 100 613 102 592 c 1,45,-1
 109 596 l 2,46,47
 184 639 184 639 308 596 c 0,48,49
 366 576 366 576 401 546 c 0,50,51
 429 522 429 522 442 477 c 0,52,53
 450 449 450 449 452 430 c 0,54,55
 457 366 457 366 403 325 c 0,56,57
 382 309 382 309 338 293.5 c 128,-1,58
 294 278 294 278 247 275 c 0,59,60
 228 275 228 275 227 273 c 0,61,62
 223 265 223 265 240 256 c 0,63,64
 310 222 310 222 355 191 c 0,65,66
 403 158 403 158 479 100 c 0,67,68
 530 62 530 62 537 57 c 0,69,70
 548 47 548 47 544 34 c 0,71,72
 542 24 542 24 530 23 c 0,73,74
 523 22 523 22 448 73 c 0,75,76
 354 137 354 137 334 153 c 0,77,78
 303 177 303 177 185 247 c 0,0,1
EndSplineSet
EndChar

StartChar: S
Encoding: 83 83 56
Width: 462
GlyphClass: 2
Flags: W
LayerCount: 2
Fore
SplineSet
64 72 m 0,0,1
 56 85 56 85 50 98 c 0,2,3
 32 133 32 133 31 154 c 0,4,5
 29 194 29 194 44 193 c 0,6,7
 67 192 67 192 71 156 c 0,8,9
 77 91 77 91 168 62 c 0,10,11
 290 24 290 24 371 115 c 0,12,13
 389 135 389 135 393.5 148 c 128,-1,14
 398 161 398 161 395 191 c 0,15,16
 390 250 390 250 346.5 277.5 c 128,-1,17
 303 305 303 305 215 305 c 0,18,19
 120 305 120 305 60 371 c 0,20,21
 37 396 37 396 32.5 409.5 c 128,-1,22
 28 423 28 423 31 458 c 0,23,24
 33 491 33 491 40.5 507.5 c 128,-1,25
 48 524 48 524 70 546 c 0,26,27
 106 582 106 582 142 593 c 0,28,29
 168 601 168 601 214 601 c 0,30,31
 248 601 248 601 305 591 c 0,32,33
 322 588 322 588 340 575 c 128,-1,34
 358 562 358 562 371.5 545.5 c 128,-1,35
 385 529 385 529 395 511 c 128,-1,36
 405 493 405 493 404 479 c 0,37,38
 404 457 404 457 406 448 c 0,39,40
 406 445 406 445 398 436 c 0,41,42
 384 419 384 419 375.5 423 c 128,-1,43
 367 427 367 427 369 449 c 0,44,45
 374 506 374 506 325.5 538.5 c 128,-1,46
 277 571 277 571 200 563 c 0,47,48
 130 555 130 555 100 529.5 c 128,-1,49
 70 504 70 504 64 446 c 0,50,51
 60 409 60 409 110 378 c 0,52,53
 162 344 162 344 233 340 c 0,54,55
 442 329 442 329 431 163 c 0,56,57
 429 131 429 131 421 117 c 128,-1,58
 413 103 413 103 382 75 c 0,59,60
 335 33 335 33 296 22 c 0,61,62
 252 9 252 9 198 16 c 0,63,64
 87 33 87 33 64 72 c 0,0,1
EndSplineSet
EndChar

StartChar: T
Encoding: 84 84 57
Width: 514
GlyphClass: 2
Flags: W
LayerCount: 2
Fore
SplineSet
484 554 m 0,0,1
 486 542 486 542 479 540 c 128,-1,2
 472 538 472 538 440 543 c 0,3,4
 383 552 383 552 277 539 c 1,5,6
 280 441 280 441 273 252.5 c 128,-1,7
 266 64 266 64 258 45 c 1,8,9
 219 35 219 35 224 66 c 0,10,11
 245 185 245 185 245 417 c 0,12,13
 245 418 245 418 248 453 c 2,14,-1
 255 538 l 1,15,-1
 147 533 l 2,16,17
 82 530 82 530 57 532 c 0,18,19
 36 533 36 533 32 543 c 0,20,21
 27 558 27 558 31 562 c 1,22,23
 29 564 29 564 64.5 566 c 128,-1,24
 100 568 100 568 151 570 c 128,-1,25
 202 572 202 572 253.5 573.5 c 128,-1,26
 305 575 305 575 341 577 c 0,27,28
 479 585 479 585 484 554 c 0,0,1
EndSplineSet
EndChar

StartChar: U
Encoding: 85 85 58
Width: 464
GlyphClass: 2
Flags: W
LayerCount: 2
Fore
SplineSet
240 58 m 0,0,1
 285 61 285 61 290 61 c 0,2,3
 317 62 317 62 346 98 c 0,4,5
 378 136 378 136 383 174 c 0,6,7
 391 229 391 229 394 240 c 0,8,9
 397 255 397 255 398.5 387.5 c 128,-1,10
 400 520 400 520 397 534 c 0,11,12
 390 565 390 565 414 568 c 0,13,14
 422 568 422 568 424 554 c 0,15,16
 425 547 425 547 426 544 c 0,17,18
 433 527 433 527 434 393 c 1,19,-1
 424 193 l 2,20,21
 423 182 423 182 413 147 c 0,22,23
 387 55 387 55 311 30 c 0,24,25
 231 4 231 4 144 50 c 0,26,27
 107 70 107 70 85.5 100 c 128,-1,28
 64 130 64 130 48 184 c 0,29,30
 39 214 39 214 32.5 380.5 c 128,-1,31
 26 547 26 547 33 564 c 0,32,33
 37 573 37 573 40 573 c 0,34,35
 45 573 45 573 53 564 c 0,36,37
 68 547 68 547 67 444 c 0,38,39
 66 295 66 295 83 214 c 0,40,41
 100 132 100 132 138 99 c 0,42,43
 189 55 189 55 240 58 c 0,0,1
EndSplineSet
EndChar

StartChar: V
Encoding: 86 86 59
Width: 527
GlyphClass: 2
Flags: W
LayerCount: 2
Fore
SplineSet
209 154 m 0,0,1
 209 163 209 163 152 285 c 0,2,3
 82 438 82 438 53 492 c 0,4,5
 18 558 18 558 40 566 c 1,6,-1
 45 566 l 2,7,8
 55 566 55 566 57 560 c 2,9,10
 57 560 57 560 64 547 c 0,11,12
 78 516 78 516 80 513 c 0,13,14
 113 459 113 459 131 418 c 2,15,-1
 234 191 l 2,16,17
 274 96 274 96 281 96 c 0,18,19
 283 96 283 96 285 101 c 2,20,-1
 319 175 l 1,21,-1
 368 316 l 1,22,-1
 436 516 l 2,23,24
 461 597 461 597 468 609 c 0,25,26
 472 617 472 617 481 616 c 128,-1,27
 490 615 490 615 495 606 c 0,28,29
 506 588 506 588 440 407 c 0,30,31
 408 319 408 319 403 300 c 0,32,33
 390 241 390 241 342.5 136 c 128,-1,34
 295 31 295 31 281 26 c 0,35,36
 274 24 274 24 241.5 82 c 128,-1,37
 209 140 209 140 209 154 c 0,0,1
EndSplineSet
EndChar

StartChar: W
Encoding: 87 87 60
Width: 775
GlyphClass: 2
Flags: W
LayerCount: 2
Fore
SplineSet
705 611 m 0,0,1
 705 619 705 619 715 623 c 128,-1,2
 725 627 725 627 735 623 c 0,3,4
 747 618 747 618 745 611 c 2,5,-1
 713 519 l 2,6,7
 694 455 694 455 673 389.5 c 128,-1,8
 652 324 652 324 652 323 c 0,9,10
 645 292 645 292 622 226.5 c 128,-1,11
 599 161 599 161 594 145 c 0,12,13
 584 107 584 107 559 65 c 128,-1,14
 534 23 534 23 523 25 c 0,15,16
 511 27 511 27 503 40 c 0,17,18
 500 44 500 44 474 101 c 0,19,20
 463 125 463 125 430.5 198 c 128,-1,21
 398 271 398 271 385 299 c 1,22,23
 331 187 331 187 280 115 c 0,24,25
 236 53 236 53 235 50 c 0,26,27
 224 26 224 26 210.5 29.5 c 128,-1,28
 197 33 197 33 186 62 c 0,29,30
 177 85 177 85 146 184 c 0,31,32
 113 292 113 292 111 295 c 0,33,34
 91 337 91 337 66 420 c 0,35,36
 59 445 59 445 54 469 c 0,37,38
 48 505 48 505 33 533 c 0,39,40
 25 548 25 548 30.5 557.5 c 128,-1,41
 36 567 36 567 52 567 c 0,42,43
 62 567 62 567 94 470 c 0,44,45
 113 413 113 413 152 284 c 0,46,47
 174 207 174 207 186 179 c 0,48,49
 202 140 202 140 212 87 c 1,50,51
 213 88 213 88 229.5 107 c 128,-1,52
 246 126 246 126 330 270 c 1,53,54
 367 347 367 347 384 353 c 0,55,56
 394 356 394 356 398 339 c 0,57,58
 401 328 401 328 406 324 c 0,59,60
 420 314 420 314 433 282 c 0,61,62
 441 262 441 262 442 259 c 2,63,-1
 460 214 l 2,64,65
 468 199 468 199 478.5 177.5 c 128,-1,66
 489 156 489 156 500 134.5 c 128,-1,67
 511 113 511 113 520 100 c 0,68,69
 529 85 529 85 531 88 c 0,70,71
 554 131 554 131 568 177 c 0,72,73
 590 251 590 251 594 264 c 0,74,75
 626 363 626 363 626 366 c 0,76,77
 637 392 637 392 644 416 c 2,78,-1
 676 520 l 2,79,80
 690 566 690 566 694 572 c 0,81,82
 705 589 705 589 705 611 c 0,0,1
EndSplineSet
EndChar

StartChar: X
Encoding: 88 88 61
Width: 517
GlyphClass: 2
Flags: W
LayerCount: 2
Fore
SplineSet
81 54 m 2,0,1
 81 54 81 54 66 34 c 1,2,-1
 58 27 l 1,3,-1
 44 22 l 1,4,-1
 35 31 l 1,5,6
 37 41 37 41 46 58 c 0,7,8
 47 60 47 60 70 99 c 0,9,10
 91 135 91 135 104 153 c 2,11,-1
 130 190 l 2,12,13
 160 231 160 231 170 247 c 0,14,15
 182 264 182 264 194 282 c 0,16,17
 218 321 218 321 222.5 324.5 c 128,-1,18
 227 328 227 328 208.5 356 c 128,-1,19
 190 384 190 384 172 412 c 0,20,21
 157 434 157 434 130 467 c 0,22,23
 112 489 112 489 96 516.5 c 128,-1,24
 80 544 80 544 56 574 c 0,25,26
 45 588 45 588 36.5 605 c 128,-1,27
 28 622 28 622 31 627 c 0,28,29
 41 639 41 639 51 635 c 0,30,31
 58 632 58 632 61 629 c 0,32,33
 62 628 62 628 97 579 c 0,34,35
 137 525 137 525 167 479 c 0,36,37
 191 442 191 442 213 417 c 0,38,39
 240 386 240 386 248 382 c 0,40,41
 257 376 257 376 267 387 c 2,42,-1
 295 419 l 1,43,-1
 312 440 l 2,44,45
 314 440 314 440 332 466 c 0,46,47
 350 493 350 493 360 511 c 0,48,49
 367 523 367 523 416 582 c 0,50,51
 430 599 430 599 436 601 c 128,-1,52
 442 603 442 603 450 593 c 128,-1,53
 458 583 458 583 455 575.5 c 128,-1,54
 452 568 452 568 434 549 c 0,55,56
 418 533 418 533 382 480 c 2,57,-1
 318 389 l 2,58,59
 284 340 284 340 284 324 c 0,60,61
 284 304 284 304 365 215 c 0,62,63
 395 182 395 182 456 90 c 0,64,65
 487 44 487 44 487 34 c 0,66,67
 485 2 485 2 449 43 c 0,68,69
 430 64 430 64 399 107 c 0,70,71
 366 153 366 153 328 200 c 0,72,73
 276 266 276 266 269 278 c 2,74,-1
 255 303 l 1,75,76
 191 222 191 222 156 169 c 0,77,78
 82 56 82 56 81 54 c 2,0,1
EndSplineSet
EndChar

StartChar: Y
Encoding: 89 89 62
Width: 569
GlyphClass: 2
Flags: W
LayerCount: 2
Fore
SplineSet
47 534 m 0,0,1
 47 634 47 634 68 608 c 1,2,-1
 71 602 l 2,3,4
 77 592 77 592 80 526 c 0,5,6
 83 463 83 463 103 418 c 2,7,8
 103 418 103 418 121 378 c 1,9,10
 121 378 121 378 144 354 c 2,11,-1
 158 338 l 1,12,13
 201 313 201 313 222.5 307.5 c 128,-1,14
 244 302 244 302 304 301 c 0,15,16
 340 301 340 301 345 302 c 0,17,18
 415 317 415 317 452 380 c 0,19,20
 472 414 472 414 478 492 c 2,21,-1
 482 595 l 2,22,23
 483 605 483 605 501 605 c 128,-1,24
 519 605 519 605 520 588 c 0,25,26
 524 536 524 536 522 508.5 c 128,-1,27
 520 481 520 481 508 437 c 0,28,29
 489 370 489 370 470 344 c 0,30,31
 455 322 455 322 414 295 c 128,-1,32
 373 268 373 268 341 263 c 0,33,34
 317 259 317 259 316 258 c 0,35,36
 316 202 316 202 316 151 c 0,37,38
 316 79 316 79 313.5 61 c 128,-1,39
 311 43 311 43 301 43 c 0,40,41
 287 43 287 43 281 84 c 128,-1,42
 275 125 275 125 280 193 c 0,43,44
 284 253 284 253 282 258 c 1,45,46
 264 259 264 259 256 261 c 0,47,48
 203 272 203 272 173 286 c 0,49,50
 162 291 162 291 128 324 c 0,51,52
 75 373 75 373 60 428 c 0,53,54
 47 476 47 476 47 534 c 0,0,1
EndSplineSet
EndChar

StartChar: Z
Encoding: 90 90 63
Width: 488
GlyphClass: 2
Flags: W
LayerCount: 2
Fore
SplineSet
66 127 m 0,0,1
 65 133 65 133 90 162 c 0,2,3
 105 180 105 180 115 194 c 0,4,5
 148 238 148 238 186 296 c 0,6,7
 201 318 201 318 242 370 c 2,8,9
 242 370 242 370 287 427 c 0,10,11
 290 431 290 431 320 470 c 2,12,13
 320 470 320 470 366 528 c 1,14,15
 366 528 366 528 401 592 c 1,16,17
 401 592 401 592 242 608 c 1,18,19
 139 608 139 608 69 603 c 0,20,21
 41 601 41 601 34 601 c 0,22,23
 28 602 28 602 30 616 c 0,24,25
 32 635 32 635 42 636 c 0,26,27
 74 639 74 639 122 643 c 0,28,29
 335 657 335 657 442 617 c 0,30,31
 464 609 464 609 448 582 c 0,32,33
 432 557 432 557 425 548 c 0,34,35
 407 526 407 526 394 508 c 0,36,37
 331 425 331 425 323 414 c 2,38,39
 323 414 323 414 225 288 c 0,40,41
 209 266 209 266 144 180 c 0,42,43
 141 176 141 176 114 140 c 0,44,45
 95 116 95 116 95 108 c 0,46,47
 95 98 95 98 349 98 c 0,48,49
 450 98 450 98 457 91 c 0,50,51
 460 88 460 88 458 81 c 0,52,53
 455 70 455 70 421 67 c 0,54,55
 401 65 401 65 251 64 c 0,56,57
 127 63 127 63 87 66 c 128,-1,58
 47 69 47 69 43 78 c 0,59,60
 36 95 36 95 47 112 c 0,61,62
 51 118 51 118 62 114 c 128,-1,63
 73 110 73 110 71 115 c 0,64,65
 68 121 68 121 66 127 c 0,0,1
EndSplineSet
EndChar

StartChar: bracketleft
Encoding: 91 91 64
Width: 247
GlyphClass: 2
Flags: W
LayerCount: 2
Fore
SplineSet
106 -43 m 1,0,1
 116 -51 116 -51 139 -46 c 0,2,3
 179 -37 179 -37 182 -41 c 0,4,5
 200 -62 200 -62 183 -79 c 0,6,7
 172 -90 172 -90 164 -90 c 0,8,9
 89 -93 89 -93 77 -82 c 0,10,11
 36 -42 36 -42 38 102 c 0,12,13
 39 175 39 175 40 184 c 0,14,15
 42 491 42 491 64 633 c 0,16,17
 71 679 71 679 98 688 c 0,18,19
 106 691 106 691 185 691 c 0,20,21
 187 691 187 691 191 688 c 0,22,23
 203 681 203 681 199 669 c 0,24,25
 196 659 196 659 186 658 c 0,26,27
 146 657 146 657 138 656 c 0,28,29
 101 653 101 653 100 632 c 2,30,31
 100 632 100 632 84 512 c 1,32,33
 84 512 84 512 78 388 c 1,34,35
 77 274 77 274 75 234 c 0,36,37
 72 184 72 184 76 105 c 0,38,39
 78 48 78 48 88 8 c 2,40,41
 88 8 88 8 106 -43 c 1,0,1
EndSplineSet
EndChar

StartChar: backslash
Encoding: 92 92 65
Width: 351
GlyphClass: 2
Flags: W
LayerCount: 2
Fore
SplineSet
197 204 m 0,0,1
 47 546 47 546 33 578 c 0,2,3
 10 628 10 628 22 639 c 0,4,5
 27 644 27 644 45 625 c 0,6,7
 64 606 64 606 80 568 c 0,8,9
 120 480 120 480 154 382 c 1,10,-1
 291 103 l 2,11,12
 327 31 327 31 327 31 c 2,13,14
 330 23 330 23 335 16 c 1,15,-1
 332 11 l 1,16,17
 332 11 332 11 320 10 c 0,18,19
 302 9 302 9 290 23 c 0,20,21
 277 38 277 38 244 107 c 0,22,23
 201 195 201 195 197 204 c 0,0,1
EndSplineSet
EndChar

StartChar: bracketright
Encoding: 93 93 66
Width: 262
GlyphClass: 2
Flags: W
LayerCount: 2
Fore
SplineSet
150 -22 m 0,0,1
 170 14 170 14 173 40 c 0,2,3
 180 101 180 101 181 120 c 0,4,5
 181 183 181 183 180 246 c 2,6,7
 180 246 180 246 187 468 c 0,8,9
 189 537 189 537 183 566 c 2,10,11
 183 566 183 566 171 622 c 1,12,13
 156 641 156 641 99 644 c 0,14,15
 46 646 46 646 46 680 c 0,16,17
 46 686 46 686 54 685 c 128,-1,18
 62 684 62 684 74 684 c 0,19,20
 158 684 158 684 164 680 c 0,21,22
 199 664 199 664 206 652 c 0,23,24
 212 640 212 640 216 598 c 0,25,26
 218 576 218 576 222 548 c 0,27,28
 227 506 227 506 224 464 c 0,29,30
 216 349 216 349 212 214 c 0,31,32
 208 59 208 59 199 13 c 0,33,34
 185 -66 185 -66 114 -74 c 0,35,36
 70 -80 70 -80 60 -84 c 0,37,38
 57 -86 57 -86 41 -76 c 0,39,40
 27 -66 27 -66 31 -62 c 0,41,42
 39 -54 39 -54 56 -52 c 0,43,44
 137 -48 137 -48 150 -22 c 0,0,1
EndSplineSet
EndChar

StartChar: asciicircum
Encoding: 94 94 67
Width: 397
GlyphClass: 2
Flags: W
LayerCount: 2
Fore
SplineSet
130 588 m 0,0,1
 136 596 136 596 138 599 c 2,2,-1
 162 635 l 2,3,4
 168 644 168 644 172 645 c 0,5,6
 177 646 177 646 174 653 c 128,-1,7
 171 660 171 660 169 667 c 0,8,9
 168 670 168 670 175 674 c 0,10,11
 180 678 180 678 190 678 c 128,-1,12
 200 678 200 678 243 620 c 0,13,14
 300 544 300 544 340 472 c 0,15,16
 362 433 362 433 365 432 c 0,17,18
 369 429 369 429 357 412 c 0,19,20
 349 401 349 401 345 406 c 2,21,-1
 316 444 l 1,22,-1
 249 546 l 1,23,-1
 212 598 l 1,24,-1
 200 617 l 1,25,26
 194 616 194 616 150.5 559.5 c 128,-1,27
 107 503 107 503 100 491.5 c 128,-1,28
 93 480 93 480 76 457 c 0,29,30
 74 453 74 453 48 431 c 0,31,32
 41 425 41 425 36 431 c 0,33,34
 29 439 29 439 28 442 c 0,35,36
 24 448 24 448 45 472 c 0,37,38
 51 479 51 479 88 530 c 0,39,40
 122 578 122 578 130 588 c 0,0,1
EndSplineSet
EndChar

StartChar: underscore
Encoding: 95 95 68
Width: 477
GlyphClass: 2
Flags: W
LayerCount: 2
Fore
SplineSet
131 26 m 0,0,1
 332 36 332 36 371 35 c 0,2,3
 440 34 440 34 445 21 c 0,4,5
 452 5 452 5 425 0 c 0,6,7
 403 -3 403 -3 355 -4 c 0,8,9
 202 -8 202 -8 164 -10 c 0,10,11
 82 -13 82 -13 58.5 -11.5 c 128,-1,12
 35 -10 35 -10 31 -1 c 0,13,14
 24 14 24 14 51 19 c 0,15,16
 73 24 73 24 131 26 c 0,0,1
EndSplineSet
EndChar

StartChar: grave
Encoding: 96 96 69
Width: 163
GlyphClass: 2
Flags: W
LayerCount: 2
Fore
SplineSet
41 579 m 0,0,1
 23 609 23 609 36 617 c 0,2,3
 51 626 51 626 55 624 c 0,4,5
 60 622 60 622 74 599 c 2,6,7
 74 599 74 599 89 575 c 1,8,9
 107 557 107 557 124 524 c 0,10,11
 138 497 138 497 132 488 c 0,12,13
 126 480 126 480 119.5 482.5 c 128,-1,14
 113 485 113 485 98 501 c 0,15,16
 67 535 67 535 41 579 c 0,0,1
EndSplineSet
EndChar

StartChar: a
Encoding: 97 97 70
Width: 460
GlyphClass: 2
Flags: W
LayerCount: 2
Fore
SplineSet
274 208 m 0,0,1
 299 266 299 266 308 311 c 0,2,3
 312 332 312 332 303 345 c 0,4,5
 290.746835443 362.82278481 290.746835443 362.82278481 260 376 c 0,6,7
 179 409 179 409 157 385 c 0,8,9
 119 331 l 0,10,11
 90 280 90 280 92 232 c 0,12,13
 97 124 97 124 121 102 c 1,14,-1
 162 91 l 1,15,16
 233 114 233 114 274 208 c 0,0,1
338 391 m 0,17,18
 338 412 338 412 352 412 c 0,19,20
 416.423220515 430.923842747 416.423220515 430.923842747 411 402 c 0,21,22
 387 274 387 274 386 175 c 0,23,24
 386 130.666666667 386 130.666666667 396 114 c 0,25,26
 400.953488372 105.744186047 400.953488372 105.744186047 403 106 c 0,27,28
 429 112 429 112 428.5 101.5 c 0,29,30
 428.376885101 86.7517594277 428.376885101 86.7517594277 419 78 c 0,31,32
 395 53 395 53 358 70 c 0,33,34
 314 90 314 90 318 155 c 0,35,36
 321 196 321 196 315.5 198 c 128,-1,37
 310 200 310 200 289 163 c 0,38,39
 267 125 267 125 236 94 c 0,40,41
 202 61 202 61 186 61 c 0,42,43
 181 61 181 61 172.5 59.5 c 128,-1,44
 164 58 164 58 160 58 c 0,45,46
 85.6691505216 67.0402384501 85.6691505216 67.0402384501 65 94 c 2,47,-1
 42 124 l 0,48,49
 31 138 31 138 30 203 c 0,50,51
 27 425 27 425 184 436 c 0,52,53
 198 437 198 437 221 431 c 0,54,55
 270 419 270 419 312 390 c 0,56,57
 332 376 332 376 335 376.5 c 128,-1,58
 338 377 338 377 338 391 c 0,17,18
EndSplineSet
EndChar

StartChar: b
Encoding: 98 98 71
Width: 444
GlyphClass: 2
Flags: W
LayerCount: 2
Fore
SplineSet
295 397 m 2,0,1
 232 429 232 429 225 409 c 0,2,3
 220 394 220 394 226 388 c 0,4,5
 236 378 236 378 261.5 375 c 128,-1,6
 287 372 287 372 302.5 378 c 128,-1,7
 318 384 318 384 317 385 c 2,8,-1
 295 397 l 2,0,1
142 659 m 1,9,10
 125 656 125 656 117 604 c 0,11,12
 112 571 112 571 107 459 c 0,13,14
 106 424 106 424 105 388 c 1,15,16
 115 398 115 398 131 444 c 0,17,18
 137 461 137 461 154 531 c 0,19,20
 168 585 168 585 168 591 c 0,21,22
 170 637 170 637 162 647 c 1,23,-1
 142 659 l 1,9,10
206 607 m 0,24,25
 206 580 206 580 188 520 c 0,26,27
 163 437 163 437 158 422 c 0,28,29
 147 388 147 388 130 360 c 0,30,31
 105 316 105 316 105 314 c 0,32,33
 105 305 105 305 100 265 c 0,34,35
 94 220 94 220 108 180 c 0,36,37
 127 128 127 128 153 111 c 0,38,39
 190 86 190 86 234 87 c 0,40,41
 280 88 280 88 312 114 c 0,42,43
 352 147 352 147 364 207 c 0,44,45
 379 277 379 277 352 330 c 0,46,47
 347 340 347 340 341 349 c 1,48,49
 307 342 307 342 252 344 c 0,50,51
 199 346 199 346 190 389 c 0,52,53
 185 415 185 415 199 433 c 0,54,55
 216 454 216 454 254 447 c 0,56,57
 291 440 291 440 322 422 c 0,58,59
 353 403 353 403 354 402 c 0,60,61
 360 402 360 402 383 417 c 0,62,63
 410 435 410 435 420 422 c 0,64,65
 426 414 426 414 424 408 c 0,66,67
 420 394 420 394 410 387 c 0,68,69
 404 383 404 383 377 366 c 1,70,71
 388 346 388 346 392 337 c 0,72,73
 420 271 420 271 396 187 c 0,74,75
 371 103 371 103 314 72 c 0,76,77
 251 38 251 38 194 52 c 0,78,79
 37 89 37 89 32 222 c 1,80,-1
 34 247 l 1,81,82
 20 223 l 1,83,-1
 11 209 l 1,84,85
 -34 205 -34 205 1 258 c 0,86,87
 33 307 33 307 35 318 c 1,88,89
 40 378 40 378 41 431 c 0,90,91
 46 598 46 598 116 689 c 0,92,93
 134 712 134 712 165 688 c 0,94,95
 206 656 206 656 206 607 c 0,24,25
EndSplineSet
EndChar

StartChar: c
Encoding: 99 99 72
Width: 329
GlyphClass: 2
Flags: WO
LayerCount: 2
Fore
SplineSet
154 402 m 0,0,1
 110 402 110 402 100 381 c 0,2,3
 84 347 84 347 79 314 c 0,4,5
 71 257 71 257 71 254 c 0,6,7
 73 133 73 133 104 111 c 0,8,9
 130 92 130 92 171 98 c 0,10,11
 210 103 210 103 226 117 c 0,12,13
 235 125 235 125 263 170 c 0,14,15
 290 213 290 213 299 206 c 0,16,17
 306 200 306 200 299 177 c 0,18,19
 277 111 277 111 226 80 c 0,20,21
 195 61 195 61 132 67 c 0,22,23
 74 73 74 73 50 96 c 0,24,25
 22 122 22 122 6.5 165 c 128,-1,26
 -9 208 -9 208 -5 260 c 0,27,28
 -2 293 -2 293 5.5 315.5 c 128,-1,29
 13 338 13 338 26 360 c 0,30,31
 73 444 73 444 171 435 c 0,32,33
 218 431 218 431 240 405 c 0,34,35
 261 380 261 380 274 350 c 0,36,37
 287 318 287 318 281 311 c 0,38,39
 261 288 261 288 238 289 c 0,40,41
 206 291 206 291 211 325 c 1,42,-1
 227 357 l 1,43,44
 221 383 221 383 202 392.5 c 128,-1,45
 183 402 183 402 154 402 c 0,0,1
EndSplineSet
EndChar

StartChar: d
Encoding: 100 100 73
Width: 504
GlyphClass: 2
Flags: W
LayerCount: 2
Fore
SplineSet
238 406 m 0,0,1
 184 435 184 435 149 423 c 0,2,3
 82 400 82 400 64 283 c 0,4,5
 57 233 57 233 69 189 c 0,6,7
 78 157 78 157 100 136 c 0,8,9
 125 110 125 110 141 107 c 0,10,11
 188 99 188 99 229 142 c 0,12,13
 261 176 261 176 290 235.5 c 128,-1,14
 319 295 319 295 290 346 c 0,15,16
 281 363 281 363 265 381.5 c 128,-1,17
 249 400 249 400 238 406 c 0,0,1
354 358 m 1,18,19
 368 374 368 374 395.5 449.5 c 128,-1,20
 423 525 423 525 423 564 c 0,21,22
 423 606 423 606 409 603 c 0,23,24
 391 598 391 598 372 538 c 0,25,26
 372 537 372 537 361 453 c 0,27,28
 356 417 356 417 354 393 c 0,29,30
 352 360 352 360 354 358 c 1,18,19
420 397 m 0,31,32
 404 359 404 359 381 332 c 0,33,34
 368 317 368 317 356 302 c 1,35,36
 354 280 354 280 353 257 c 0,37,38
 352 231 352 231 357 206 c 0,39,40
 358 201 358 201 367 172 c 0,41,42
 378 135 378 135 405 108 c 0,43,44
 414 99 414 99 420 99 c 0,45,46
 423 99 423 99 434 117 c 0,47,48
 451 145 451 145 466 128 c 0,49,50
 482 109 482 109 462 86 c 256,51,52
 442 63 442 63 414 64 c 0,53,54
 369 64 369 64 338 136 c 0,55,56
 320 178 320 178 318 189 c 2,57,-1
 315 198 l 1,58,59
 306 172 306 172 270 126 c 0,60,61
 238 85 238 85 191 70 c 0,62,63
 102 42 102 42 48 128 c 0,64,65
 44 135 44 135 31 190 c 0,66,67
 22 230 22 230 30 288 c 0,68,69
 39 350 39 350 51 372 c 0,70,71
 83 434 83 434 123 454 c 0,72,73
 143 464 143 464 201 460 c 0,74,75
 243 457 243 457 290 413 c 2,76,-1
 318 387 l 1,77,78
 331 532 331 532 332 534 c 0,79,80
 352 599 352 599 367 613 c 0,81,82
 390 634 390 634 410 634 c 0,83,84
 433 634 433 634 447 614 c 0,85,86
 465 590 465 590 462 554 c 0,87,88
 457 481 457 481 420 397 c 0,31,32
EndSplineSet
EndChar

StartChar: e
Encoding: 101 101 74
Width: 421
GlyphClass: 2
Flags: W
LayerCount: 2
Fore
SplineSet
290 375 m 0,0,1
 226 437 226 437 151 398 c 0,2,3
 138 391 138 391 114 366 c 0,4,5
 90 340 90 340 84 314 c 2,6,7
 84 314 84 314 80 286 c 1,8,9
 80 286 80 286 117 270 c 0,10,11
 173 250 173 250 231 258 c 0,12,13
 303 267 303 267 320 296 c 0,14,15
 331 315 331 315 324 332 c 128,-1,16
 317 349 317 349 290 375 c 0,0,1
300 236 m 128,-1,18
 214 200 214 200 124 228 c 0,19,20
 108 233 108 233 78 245 c 1,21,-1
 82 229 l 1,22,23
 122 138 122 138 185 117 c 0,24,25
 240 98 240 98 290 118 c 0,26,27
 337 135 337 135 346 168 c 0,28,29
 353 194 353 194 373 186 c 0,30,31
 383 182 383 182 383 161 c 128,-1,32
 383 140 383 140 347 110.5 c 128,-1,33
 311 81 311 81 275 74 c 0,34,35
 175 54 175 54 107 118 c 0,36,37
 42 180 42 180 42 256 c 1,38,-1
 36 256 l 1,39,40
 19 305 19 305 44 298 c 1,41,-1
 55 346 l 1,42,43
 80 390 80 390 102 408 c 0,44,45
 200 484 200 484 297 417 c 0,46,47
 337 389 337 389 352 355 c 0,48,17
 386 272 386 272 300 236 c 128,-1,18
EndSplineSet
EndChar

StartChar: f
Encoding: 102 102 75
Width: 304
GlyphClass: 2
Flags: W
LayerCount: 2
Fore
SplineSet
96 166 m 0,0,1
 98 122 98 122 100 77 c 0,2,3
 102 -2 102 -2 109 -31 c 0,4,5
 125 -105 125 -105 163 -110 c 0,6,7
 203 -115 203 -115 211 -100 c 0,8,9
 243 -36 243 -36 236 12 c 0,10,11
 223 97 223 97 199 134 c 0,12,13
 163 189 163 189 153 188 c 0,14,15
 117 188 117 188 98 196 c 1,16,-1
 98 196 l 1,17,18
 95 194 95 194 96 166 c 0,0,1
213 602 m 0,19,20
 185 626 185 626 163 571 c 0,21,22
 144 521 144 521 144 520 c 0,23,24
 135 450 135 450 122 380 c 0,25,26
 113 328 113 328 116 326 c 2,27,-1
 126 334 l 1,28,-1
 168 399 l 1,29,30
 275 548 275 548 213 602 c 0,19,20
193 370 m 0,31,32
 158 313 158 313 156 312 c 0,33,34
 126 284 126 284 123 281 c 1,35,36
 151 266 151 266 167 250 c 0,37,38
 184 233 184 233 184 230 c 0,39,40
 210 229 210 229 221 236 c 0,41,42
 243 251 243 251 252 246 c 0,43,44
 275 233 275 233 259 217 c 0,45,46
 244 203 244 203 240 202 c 0,47,48
 232 199 232 199 222 196 c 0,49,50
 212 194 212 194 197 193 c 1,51,52
 207 176 207 176 218 161 c 0,53,54
 241 129 241 129 253 72 c 0,55,56
 268 -3 268 -3 260 -60 c 0,57,58
 252 -115 252 -115 222 -136 c 0,59,60
 202 -150 202 -150 177 -151 c 0,61,62
 136 -153 136 -153 111 -126 c 0,63,64
 100 -114 100 -114 84 -88 c 0,65,66
 75 -73 75 -73 67 67 c 0,67,68
 64 121 64 121 65 158 c 0,69,70
 67 200 67 200 66 204 c 2,71,-1
 66 238 l 1,72,73
 39 218 39 218 28 216 c 0,74,75
 -1 210 -1 210 2 238 c 0,76,77
 4 253 4 253 36 270 c 0,78,79
 56 281 56 281 64 286 c 0,80,81
 71 292 71 292 73 300 c 256,82,83
 75 308 75 308 79 337 c 256,84,85
 83 366 83 366 86 383 c 0,86,87
 113 557 113 557 122 573 c 0,88,89
 168 663 168 663 228 641 c 0,90,91
 253 632 253 632 263 601 c 0,92,93
 290 524 290 524 193 370 c 0,31,32
EndSplineSet
EndChar

StartChar: g
Encoding: 103 103 76
Width: 381
GlyphClass: 2
Flags: W
LayerCount: 2
Fore
SplineSet
144 -118 m 1,0,1
 144 -118 144 -118 202 -121 c 1,2,3
 223 -116 223 -116 244 -102 c 2,4,5
 244 -102 244 -102 281 -72 c 1,6,-1
 249 -50 l 2,7,8
 212 -20 212 -20 182 -13 c 0,9,10
 77 12 77 12 74 -41 c 0,11,12
 70 -107 70 -107 144 -118 c 1,0,1
138 99 m 0,13,14
 181 93 181 93 206 125 c 0,15,16
 275 217 275 217 285 292 c 0,17,18
 290 332 290 332 268 354 c 0,19,20
 228 396 228 396 155 393 c 0,21,22
 122 392 122 392 99 373 c 0,23,24
 61 343 61 343 59 262 c 0,25,26
 58 219 58 219 69 182 c 0,27,28
 91 106 91 106 138 99 c 0,13,14
306 383 m 2,29,30
 306 387 306 387 306 396.5 c 128,-1,31
 306 406 306 406 306 410.5 c 128,-1,32
 306 415 306 415 308 422 c 0,33,34
 309 429 309 429 312.5 429.5 c 128,-1,35
 316 430 316 430 323 429 c 0,36,37
 336 427 336 427 338 395 c 0,38,39
 345 251 345 251 346 229 c 0,40,41
 351 41 351 41 335 -35 c 1,42,-1
 326 -66 l 1,43,44
 346 -82 346 -82 351 -98 c 0,45,46
 362 -137 362 -137 348 -140 c 0,47,48
 338 -142 338 -142 334 -132 c 0,49,50
 330 -121 330 -121 329 -119 c 0,51,52
 321 -105 321 -105 308 -95 c 1,53,54
 300 -100 300 -100 278 -120 c 0,55,56
 240 -153 240 -153 169 -152 c 0,57,58
 132 -151 132 -151 86 -129 c 0,59,60
 38 -106 38 -106 37 -51 c 0,61,62
 36 22 36 22 100 26 c 0,63,64
 135 28 135 28 176 19 c 0,65,66
 225 8 225 8 253 -11 c 0,67,68
 274 -26 274 -26 295 -42 c 1,69,70
 303 -22 303 -22 309 84 c 128,-1,71
 315 190 315 190 310 243 c 1,72,73
 292 199 292 199 287 188 c 0,74,75
 252 107 252 107 200 76 c 0,76,77
 160 52 160 52 124 64 c 0,78,79
 83 77 83 77 54 128 c 0,80,81
 24 180 24 180 25 244 c 0,82,83
 26 309 26 309 47 360 c 0,84,85
 80 439 80 439 177 428 c 0,86,87
 228 423 228 423 259 407 c 2,88,-1
 306 383 l 2,29,30
EndSplineSet
EndChar

StartChar: h
Encoding: 104 104 77
Width: 442
GlyphClass: 2
Flags: W
LayerCount: 2
Fore
SplineSet
57 280 m 0,0,1
 43 265 43 265 28 251 c 0,2,3
 12 237 12 237 -1 237 c 0,4,5
 -26 238 -26 238 20 296 c 0,6,7
 42 324 42 324 46 344 c 256,8,9
 50 364 50 364 49 450 c 0,10,11
 49 612 49 612 64 651 c 0,12,13
 83 698 83 698 124 684 c 0,14,15
 142 678 142 678 154 642 c 0,16,17
 163 615 163 615 161 573 c 0,18,19
 158 449 158 449 134 414 c 0,20,21
 131 409 131 409 111 364 c 0,22,23
 90 320 90 320 88 315 c 2,24,-1
 88 302 l 1,25,26
 179 421 179 421 217 436 c 0,27,28
 260 452 260 452 291 411 c 0,29,30
 329 361 329 361 330 254 c 0,31,32
 332 117 332 117 355 100 c 0,33,34
 363 94 363 94 368 98 c 0,35,36
 372 101 372 101 379 119 c 0,37,38
 386 138 386 138 391 142 c 256,39,40
 396 146 396 146 403 139 c 0,41,42
 412 130 412 130 412 125 c 0,43,44
 406 71 406 71 388 57 c 0,45,46
 367 40 367 40 344 52 c 0,47,48
 323 62 323 62 310 97 c 0,49,50
 300 121 300 121 293 256 c 0,51,52
 290 316 290 316 277 356 c 0,53,54
 264 395 264 395 246 402 c 0,55,56
 229 409 229 409 214 398 c 0,57,58
 199 388 199 388 168 349 c 0,59,60
 93 253 93 253 98 123 c 0,61,62
 100 77 100 77 98 64 c 0,63,64
 96 50 96 50 86 48 c 0,65,66
 59 43 59 43 58 211 c 0,67,68
 58 281 58 281 57 280 c 0,0,1
102 651 m 0,69,70
 88 641 88 641 89 614 c 0,71,72
 89 580 89 580 89 543 c 2,73,-1
 89 389 l 2,74,75
 89 392 89 392 115 467 c 0,76,77
 132 518 132 518 130 576 c 0,78,79
 129 610 129 610 123 625 c 0,80,81
 111 657 111 657 102 651 c 0,69,70
EndSplineSet
EndChar

StartChar: i
Encoding: 105 105 78
Width: 134
GlyphClass: 2
Flags: W
LayerCount: 2
Fore
SplineSet
45 424 m 0,0,1
 59 444 59 444 73 417 c 0,2,3
 82 401 82 401 78 383 c 0,4,5
 74 364 74 364 72 217 c 0,6,7
 70 112 70 112 70 84 c 0,8,9
 68 57 68 57 58 57 c 128,-1,10
 48 57 48 57 45.5 89.5 c 128,-1,11
 43 122 43 122 42 237 c 0,12,13
 42 417 42 417 45 424 c 0,0,1
56 509 m 0,14,15
 42 509 42 509 34 529 c 128,-1,16
 26 549 26 549 32 573 c 0,17,18
 42 610 42 610 89 585 c 0,19,20
 108 575 108 575 101 550 c 0,21,22
 91 509 91 509 56 509 c 0,14,15
EndSplineSet
EndChar

StartChar: j
Encoding: 106 106 79
Width: 325
GlyphClass: 2
Flags: W
LayerCount: 2
Fore
SplineSet
33 51 m 0,0,1
 6 23 6 23 -2 0 c 0,2,3
 -19 -51 -19 -51 41 -87 c 0,4,5
 69 -104 69 -104 77 -104 c 0,6,7
 150 -108 150 -108 173 -32 c 0,8,9
 187 13 187 13 190 52 c 2,10,11
 190 52 190 52 192 88 c 1,12,13
 192 88 192 88 161 94 c 0,14,15
 85 104 85 104 33 51 c 0,0,1
223.5 55 m 128,-1,17
 220 33 220 33 215 -4 c 0,18,19
 204 -124 204 -124 110 -135 c 0,20,21
 69 -140 69 -140 19 -117 c 0,22,23
 -37 -92 -37 -92 -37 -13 c 0,24,25
 -37 -2 -37 -2 -34 11 c 0,26,27
 -19 69 -19 69 49 110 c 0,28,29
 90 138 90 138 192 132 c 1,30,-1
 192 232 l 1,31,-1
 198 382 l 2,32,33
 200 420 200 420 211 424 c 0,34,35
 234 433 234 433 234 428 c 0,36,37
 234 379 234 379 230 333 c 0,38,39
 225 262 225 262 227 196 c 0,40,41
 228 162 228 162 229 127 c 1,42,43
 251 121 251 121 265 113 c 0,44,45
 300 93 300 93 290 69 c 0,46,47
 282 50 282 50 279 47 c 0,48,49
 275 42 275 42 269 49 c 0,50,51
 259 61 259 61 258 62 c 0,52,53
 246 74 246 74 227 78 c 1,54,16
 227 77 227 77 223.5 55 c 128,-1,17
209 518 m 128,-1,56
 181 518 181 518 174 544 c 0,57,58
 165 579 165 579 185 599 c 0,59,60
 191 605 191 605 197 605 c 0,61,62
 208 605 208 605 225 600 c 0,63,64
 252 592 252 592 244.5 555 c 128,-1,55
 237 518 237 518 209 518 c 128,-1,56
EndSplineSet
EndChar

StartChar: k
Encoding: 107 107 80
Width: 435
GlyphClass: 2
Flags: W
LayerCount: 2
Fore
SplineSet
155 285 m 256,0,1
 172 289 172 289 215 323 c 0,2,3
 284 377 284 377 264 414 c 0,4,5
 256 429 256 429 235 422 c 0,6,7
 217 416 217 416 197 392 c 0,8,9
 173 363 173 363 159 332 c 0,10,11
 137 282 137 282 138 281 c 2,12,13
 138 281 138 281 155 285 c 256,0,1
114 454 m 0,14,15
 120 464 120 464 133 530 c 0,16,17
 136 545 136 545 138 574 c 0,18,19
 141 622 141 622 111 618 c 0,20,21
 93 616 93 616 89 547 c 2,22,-1
 88 477 l 1,23,24
 88 477 88 477 85 392 c 1,25,26
 85 392 85 392 114 454 c 0,14,15
124 396 m 1,27,28
 124 396 124 396 92 346 c 1,29,30
 92 318 92 318 92 292 c 1,31,32
 106 315 106 315 130 362 c 0,33,34
 151 404 151 404 185 430 c 0,35,36
 226 464 226 464 256 456 c 0,37,38
 340 434 340 434 290 351 c 0,39,40
 267 313 267 313 237 295 c 2,41,-1
 187 265 l 2,42,43
 186 262 186 262 300 138 c 0,44,45
 334 101 334 101 360 103 c 0,46,47
 372 104 372 104 376.5 106 c 128,-1,48
 381 108 381 108 383 109 c 2,49,-1
 392 110 l 1,50,51
 410 96 410 96 400 80 c 0,52,53
 387 57 387 57 354 58 c 0,54,55
 315 59 315 59 289 87 c 2,56,-1
 221 166 l 1,57,-1
 146 250 l 1,58,59
 136 246 136 246 130 245 c 0,60,61
 107 241 107 241 102 142 c 0,62,63
 97 53 97 53 92 45 c 0,64,65
 88 39 88 39 73 46 c 0,66,67
 64 50 64 50 61 76 c 128,-1,68
 58 102 58 102 58 183 c 0,69,70
 58 317 58 317 54 319 c 1,71,72
 42 306 42 306 24 291.5 c 128,-1,73
 6 277 6 277 1 281 c 0,74,75
 -9 291 -9 291 -5 305 c 128,-1,76
 -1 319 -1 319 13 331 c 0,77,78
 32 348 32 348 52 366 c 1,79,80
 58 377 58 377 55 470 c 0,81,82
 49 665 49 665 113 666 c 0,83,84
 164 667 164 667 168 612 c 0,85,86
 174 526 174 526 164 497 c 0,87,88
 144 440 144 440 124 396 c 1,27,28
EndSplineSet
EndChar

StartChar: l
Encoding: 108 108 81
Width: 222
GlyphClass: 2
Flags: W
LayerCount: 2
Fore
SplineSet
151 478 m 0,0,1
 163 523 163 523 150 563 c 0,2,3
 144 582 144 582 136 587 c 0,4,5
 115 602 115 602 111 579 c 2,6,7
 111 579 111 579 99 511 c 0,8,9
 95 485 95 485 94 338 c 1,10,-1
 95 306 l 1,11,12
 119 356 119 356 151 478 c 0,0,1
127 307 m 0,13,14
 108 267 108 267 100 251 c 1,15,16
 99 228 99 228 101 203 c 0,17,18
 108 126 108 126 121 107 c 0,19,20
 130 94 130 94 141 94 c 256,21,22
 152 94 152 94 157 109 c 0,23,24
 164 127 164 127 178 127 c 0,25,26
 188 127 188 127 191 116 c 0,27,28
 194 104 194 104 190 89 c 0,29,30
 184 71 184 71 174 63 c 0,31,32
 151 44 151 44 130 51 c 0,33,34
 108 58 108 58 91 91 c 0,35,36
 73 124 73 124 69 169 c 0,37,38
 64 229 64 229 63 230 c 0,39,40
 38 213 38 213 31 209 c 0,41,42
 11 196 11 196 11 216 c 0,43,44
 11 235 11 235 29 248 c 0,45,46
 46 261 46 261 61 278 c 1,47,48
 61 377 61 377 64 445 c 0,49,50
 65 468 65 468 69 500 c 0,51,52
 72 533 72 533 73 546 c 0,53,54
 88 646 88 646 132 637 c 0,55,56
 141 635 141 635 164 611 c 0,57,58
 188 585 188 585 190 533 c 0,59,60
 192 443 192 443 127 307 c 0,13,14
EndSplineSet
EndChar

StartChar: m
Encoding: 109 109 82
Width: 675
GlyphClass: 2
Flags: W
LayerCount: 2
Fore
SplineSet
627 112 m 0,0,1
 627 126 627 126 639 133 c 1,2,3
 639 133 639 133 645 132 c 0,4,5
 659 118 659 118 656 110 c 0,6,7
 642 67 642 67 616 53 c 0,8,9
 612 51 612 51 609 50 c 0,10,11
 581 42 581 42 555 77 c 0,12,13
 512 134 512 134 523 220 c 0,14,15
 546 397 546 397 513 402 c 0,16,17
 499 404 499 404 456 357 c 0,18,19
 425 323 425 323 401 281 c 0,20,21
 362 211 362 211 366 145 c 0,22,23
 370 75 370 75 353 52 c 0,24,25
 346 42 346 42 338 50 c 0,26,27
 331 57 331 57 324 141 c 0,28,29
 320 187 320 187 316.5 238 c 128,-1,30
 313 289 313 289 311.5 306 c 128,-1,31
 310 323 310 323 306.5 345 c 128,-1,32
 303 367 303 367 298 377.5 c 128,-1,33
 293 388 293 388 283 404 c 1,34,-1
 252 366 l 1,35,36
 165 253 165 253 147 131 c 0,37,38
 137 62 137 62 121 57 c 0,39,40
 112 54 112 54 106 71 c 0,41,42
 101 85 101 85 100 111 c 0,43,44
 94 226 94 226 81 395 c 0,45,46
 79 422 79 422 81 431.5 c 128,-1,47
 83 441 83 441 91 441 c 0,48,49
 101 441 101 441 104 437.5 c 128,-1,50
 107 434 107 434 108 423.5 c 128,-1,51
 109 413 109 413 111 407 c 0,52,53
 122 368 122 368 127 213 c 1,54,55
 136 254 136 254 177 318 c 0,56,57
 231 403 231 403 259 422 c 0,58,59
 272 431 272 431 283 431 c 0,60,61
 302 431 302 431 321 409 c 0,62,63
 348 378 348 378 348 318 c 0,64,65
 348 276 348 276 372 310 c 2,66,-1
 387 331 l 2,67,68
 409 362 409 362 450.5 398 c 128,-1,69
 492 434 492 434 511 442 c 0,70,71
 540 454 540 454 554 420 c 0,72,73
 566 391 566 391 568 357 c 2,74,-1
 564 190 l 2,75,76
 562 122 562 122 567 111 c 0,77,78
 575 93 575 93 586 88 c 128,-1,79
 597 83 597 83 611 96 c 0,80,81
 627 111 627 111 627 112 c 0,0,1
EndSplineSet
EndChar

StartChar: n
Encoding: 110 110 83
Width: 416
GlyphClass: 2
Flags: W
LayerCount: 2
Fore
SplineSet
63 327 m 2,0,-1
 63 215 l 1,1,2
 63 215 63 215 76 240 c 0,3,4
 108 301 108 301 128 330 c 0,5,6
 239 485 239 485 278 417 c 0,7,8
 308 364 308 364 313 251 c 0,9,10
 317 151 317 151 322 120 c 0,11,12
 326 92 326 92 330 94 c 128,-1,13
 334 96 334 96 340 104 c 0,14,15
 347 113 347 113 351 135 c 0,16,17
 354 151 354 151 364 156 c 0,18,19
 389 168 389 168 388 156 c 0,20,21
 387 138 387 138 385 126 c 0,22,23
 378 85 378 85 365.5 71.5 c 128,-1,24
 353 58 353 58 334 53 c 0,25,26
 313 47 313 47 297 66 c 0,27,28
 287 77 287 77 282 165 c 0,29,30
 274 293 274 293 270 331 c 0,31,32
 266 364 266 364 254 383 c 0,33,34
 245 398 245 398 237 394 c 0,35,36
 226 389 226 389 199 360 c 0,37,38
 172 330 172 330 139 279 c 0,39,40
 81 192 81 192 77 106 c 0,41,42
 74 42 74 42 53 44 c 0,43,44
 35 46 35 46 32 116 c 0,45,46
 28 211 28 211 30 321 c 0,47,48
 32 425 32 425 37 431 c 2,49,-1
 48 445 l 1,50,51
 58 441 58 441 60.5 419 c 128,-1,52
 63 397 63 397 63 327 c 2,0,-1
EndSplineSet
EndChar

StartChar: o
Encoding: 111 111 84
Width: 414
GlyphClass: 2
Flags: W
LayerCount: 2
Fore
SplineSet
128 364 m 2,0,1
 128 364 128 364 130 378 c 1,2,3
 116 370 116 370 103 355 c 0,4,5
 57 305 57 305 60 223 c 0,6,7
 64 148 64 148 121 110 c 0,8,9
 185 69 185 69 264 107 c 0,10,11
 335 141 335 141 329 256 c 0,12,13
 325 303 325 303 309 324 c 1,14,15
 309 324 309 324 294 317 c 0,16,17
 212 280 212 280 152 324 c 0,18,19
 124 345 124 345 128 364 c 2,0,1
260 388 m 0,20,21
 238 404 238 404 211.5 409.5 c 128,-1,22
 185 415 185 415 174 404 c 128,-1,23
 163 393 163 393 165 376 c 0,24,25
 167 358 167 358 183 347 c 0,26,27
 197 337 197 337 225.5 337 c 128,-1,28
 254 337 254 337 267 346 c 0,29,30
 276 352 276 352 286 359 c 1,31,32
 285 370 285 370 260 388 c 0,20,21
293 410 m 0,33,34
 307 395 307 395 315 380 c 1,35,36
 326 386 326 386 336 398 c 0,37,38
 358 427 358 427 380 420 c 0,39,40
 388 417 388 417 387 402 c 0,41,42
 387 382 387 382 376 368 c 0,43,44
 370 359 370 359 345 341 c 1,45,46
 345 336 345 336 355 299 c 0,47,48
 372 237 372 237 353 171 c 128,-1,49
 334 105 334 105 290 76 c 0,50,51
 262 58 262 58 204 55 c 0,52,53
 143 52 143 52 121 64 c 0,54,55
 36 109 36 109 29 220 c 0,56,57
 24 296 24 296 41 331 c 0,58,59
 69 390 69 390 124 417 c 1,60,-1
 139 427 l 1,61,-1
 139 427 l 1,62,63
 164 457 164 457 198 452 c 0,64,65
 231 447 231 447 259 433 c 0,66,67
 284 420 284 420 293 410 c 0,33,34
EndSplineSet
EndChar

StartChar: p
Encoding: 112 112 85
Width: 429
GlyphClass: 2
Flags: W
LayerCount: 2
Fore
SplineSet
260 142 m 1,0,1
 260 142 260 142 294 206 c 1,2,3
 294 206 294 206 231 175 c 1,4,5
 208 155 208 155 195.5 128 c 128,-1,6
 183 101 183 101 193 94 c 0,7,8
 207 86 207 86 229 106 c 2,9,10
 229 106 229 106 260 142 c 1,0,1
333 255 m 1,11,12
 350 255 350 255 366 256 c 2,13,14
 366 256 366 256 375 256 c 1,15,16
 416 230 416 230 403 224 c 0,17,18
 374 209 374 209 369.5 217 c 128,-1,19
 365 225 365 225 334 212 c 1,20,21
 332 183 332 183 324 172 c 0,22,23
 285 111 285 111 272 98 c 2,24,-1
 246 71 l 2,25,26
 232 58 232 58 203 58 c 0,27,28
 176 57 176 57 166 70 c 0,29,30
 153 86 153 86 154 115 c 0,31,32
 156 187 156 187 256 232 c 1,33,-1
 292 243 l 2,34,35
 293 244 293 244 291 275 c 0,36,37
 288 313 288 313 262 356 c 0,38,39
 235 403 235 403 209 402 c 0,40,41
 191 402 191 402 162.5 371.5 c 128,-1,42
 134 341 134 341 120 303 c 0,43,44
 86 213 86 213 83 198 c 0,45,46
 78 178 78 178 73 70 c 128,-1,47
 68 -38 68 -38 67 -95 c 0,48,49
 66 -192 66 -192 36 -192 c 1,50,51
 32 -167 32 -167 32 10 c 0,52,53
 34 188 34 188 36 364 c 0,54,55
 37 541 37 541 44 546 c 0,56,57
 69 557 69 557 74 524 c 0,58,59
 75 518 75 518 74 458 c 0,60,61
 72 374 72 374 71 290 c 1,62,-1
 87 324 l 2,63,64
 135 420 135 420 175 436 c 0,65,66
 218 453 218 453 244 434 c 0,67,68
 325 380 325 380 333 255 c 1,11,12
EndSplineSet
EndChar

StartChar: q
Encoding: 113 113 86
Width: 441
GlyphClass: 2
Flags: W
LayerCount: 2
Fore
SplineSet
130 88 m 0,0,1
 163 81 163 81 173 85 c 0,2,3
 196 96 196 96 225 132 c 0,4,5
 261 176 261 176 283 223 c 0,6,7
 292 242 292 242 302 295 c 0,8,9
 306 315 306 315 283.5 343 c 128,-1,10
 261 371 261 371 224 390 c 0,11,12
 138 434 138 434 90 354 c 0,13,14
 78 334 78 334 72 312 c 0,15,16
 63 279 63 279 64 241 c 0,17,18
 66 105 66 105 130 88 c 0,0,1
320.5 459 m 128,-1,20
 325 469 325 469 339 470 c 0,21,22
 353 470 353 470 354.5 443 c 128,-1,23
 356 416 356 416 351 264 c 0,24,25
 349 211 349 211 347 152 c 0,26,27
 343 25 343 25 332 -54 c 1,28,-1
 328 -107 l 1,29,-1
 362 -92 l 1,30,31
 402 -90 402 -90 416 -94 c 0,32,33
 423 -97 423 -97 421 -109 c 0,34,35
 418 -127 418 -127 380 -130 c 0,36,37
 339 -134 339 -134 321 -148 c 0,38,39
 288 -175 288 -175 289 -138 c 0,40,41
 290 -108 290 -108 291 -95 c 0,42,43
 299 -14 299 -14 302 30 c 0,44,45
 310 124 310 124 313 154 c 0,46,47
 318 195 318 195 311 195 c 1,48,49
 307 186 307 186 305 183 c 0,50,51
 284 150 284 150 262 122 c 0,52,53
 227 76 227 76 221 72 c 0,54,55
 100 -7 100 -7 47 137 c 0,56,57
 -2 273 -2 273 62 386 c 0,58,59
 121 489 121 489 260 412 c 0,60,61
 275 404 275 404 293.5 389.5 c 128,-1,62
 312 375 312 375 316 372 c 1,63,19
 316 449 316 449 320.5 459 c 128,-1,20
EndSplineSet
EndChar

StartChar: r
Encoding: 114 114 87
Width: 287
GlyphClass: 2
Flags: W
LayerCount: 2
Fore
SplineSet
113 344 m 0,0,1
 115 343 115 343 119 349.5 c 128,-1,2
 123 356 123 356 128 364.5 c 128,-1,3
 133 373 133 373 138 382 c 0,4,5
 161 430 161 430 193 436 c 0,6,7
 207 439 207 439 231.5 424.5 c 128,-1,8
 256 410 256 410 257 399 c 0,9,10
 257 372 257 372 238 373 c 0,11,12
 228 374 228 374 222 387 c 0,13,14
 206 427 206 427 163 364 c 0,15,16
 161 361 161 361 136 308 c 0,17,18
 124 290 124 290 117.5 264.5 c 128,-1,19
 111 239 111 239 108 154 c 0,20,21
 106 119 106 119 96 77 c 0,22,23
 91 57 91 57 83 57 c 0,24,25
 73 57 73 57 70.5 86.5 c 128,-1,26
 68 116 68 116 68 219 c 0,27,28
 68 385 68 385 53 398 c 0,29,30
 45 405 45 405 29 392 c 256,31,32
 13 379 13 379 3 390 c 0,33,34
 -7 399 -7 399 5 416 c 0,35,36
 27 449 27 449 66 435 c 0,37,38
 80 430 80 430 93 386 c 0,39,40
 105 348 105 348 113 344 c 0,0,1
EndSplineSet
EndChar

StartChar: s
Encoding: 115 115 88
Width: 344
GlyphClass: 2
Flags: W
LayerCount: 2
Fore
SplineSet
232 437 m 0,0,1
 284 417 284 417 284 368 c 0,2,3
 284 347 284 347 277 337.5 c 128,-1,4
 270 328 270 328 262 335 c 0,5,6
 259 337 259 337 249 363 c 0,7,8
 228 422 228 422 117 413 c 0,9,10
 101 412 101 412 81 375 c 0,11,12
 68 351 68 351 67.5 340.5 c 128,-1,13
 67 330 67 330 76 313 c 0,14,15
 96 277 96 277 163 271 c 0,16,17
 232 263 232 263 266 234 c 0,18,19
 319 189 319 189 314 134.5 c 128,-1,20
 309 80 309 80 250 52 c 0,21,22
 187 22 187 22 106 44 c 0,23,24
 68 54 68 54 45.5 83 c 128,-1,25
 23 112 23 112 33 139 c 0,26,27
 42 161 42 161 53.5 156 c 128,-1,28
 65 151 65 151 67 125 c 0,29,30
 69 98 69 98 77 90 c 0,31,32
 89 79 89 79 131 73.5 c 128,-1,33
 173 68 173 68 201 74 c 0,34,35
 274 90 274 90 274 140 c 0,36,37
 274 162 274 162 255 190 c 0,38,39
 227 230 227 230 171 233 c 0,40,41
 117 234 117 234 80 258.5 c 128,-1,42
 43 283 43 283 35 321 c 0,43,44
 27 362 27 362 50 402 c 0,45,46
 100 488 100 488 232 437 c 0,0,1
EndSplineSet
EndChar

StartChar: t
Encoding: 116 116 89
Width: 258
GlyphClass: 2
Flags: W
LayerCount: 2
Fore
SplineSet
101 589 m 1,0,1
 99 594 99 594 103 593 c 0,2,3
 114 589 114 589 111 495 c 0,4,5
 110 463 110 463 109 431 c 1,6,7
 174 441 174 441 193.5 439 c 128,-1,8
 213 437 213 437 213 423 c 0,9,10
 213 406 213 406 202 404 c 0,11,12
 193 402 193 402 156 397 c 128,-1,13
 119 392 119 392 107 390 c 1,14,-1
 105 281 l 2,15,16
 106 250 106 250 113 171 c 0,17,18
 119 108 119 108 121 105 c 0,19,20
 127 98 127 98 135 96 c 0,21,22
 159 89 159 89 169 104 c 0,23,24
 182 121 182 121 188 123 c 128,-1,25
 194 125 194 125 202 115 c 0,26,27
 208 108 208 108 209 104.5 c 128,-1,28
 210 101 210 101 208 98 c 2,29,-1
 187 72 l 1,30,31
 164 52 164 52 150 52 c 0,32,33
 109 52 109 52 85 102 c 0,34,35
 79 115 79 115 72 266 c 0,36,37
 71 287 71 287 70 317 c 128,-1,38
 69 347 69 347 68.5 362.5 c 128,-1,39
 68 378 68 378 68 381 c 0,40,41
 68 386 68 386 68 390 c 1,42,43
 54 390 54 390 54 390 c 1,44,-1
 5 394 l 2,45,46
 -2 395 -2 395 -6.5 397.5 c 128,-1,47
 -11 400 -11 400 -10 403 c 0,48,49
 -10 422 -10 422 6 428 c 0,50,51
 12 431 12 431 33 431 c 0,52,53
 50 431 50 431 68 431 c 1,54,55
 68 444 68 444 69 453 c 0,56,57
 76 544 76 544 76 552 c 0,58,59
 79 591 79 591 84 589 c 1,60,61
 93 605 93 605 101 589 c 1,0,1
EndSplineSet
EndChar

StartChar: u
Encoding: 117 117 90
Width: 455
GlyphClass: 2
Flags: W
LayerCount: 2
Fore
SplineSet
242 236 m 0,0,1
 273 291 273 291 280 305 c 0,2,3
 297 338 297 338 305 379 c 0,4,5
 317 441 317 441 337 441 c 0,6,7
 348 441 348 441 349 421 c 128,-1,8
 350 401 350 401 345 322 c 0,9,10
 338 206 338 206 338 193 c 0,11,12
 339 169 339 169 347 131 c 128,-1,13
 355 93 355 93 361 87 c 0,14,15
 367 80 367 80 384 91 c 0,16,17
 394 97 394 97 394 98 c 0,18,19
 401 124 401 124 412 113 c 0,20,21
 413 112 413 112 419 109 c 0,22,23
 431 104 431 104 432 101 c 0,24,25
 433 99 433 99 430 92 c 0,26,27
 417 56 417 56 408.5 54.5 c 128,-1,28
 400 53 400 53 377 48 c 0,29,30
 341 40 341 40 327 64 c 0,31,32
 312 89 312 89 306 170 c 2,33,-1
 300 258 l 1,34,35
 215 109 215 109 199 92 c 0,36,37
 149 35 149 35 84 76 c 0,38,39
 43 102 43 102 35 174 c 0,40,41
 24 271 24 271 33 419 c 0,42,43
 34 436 34 436 38 439 c 128,-1,44
 42 442 42 442 55 433 c 0,45,46
 69 424 69 424 66 366 c 0,47,48
 63 303 63 303 64 243 c 0,49,50
 65 189 65 189 75 160.5 c 128,-1,51
 85 132 85 132 108 109 c 0,52,53
 127 90 127 90 150 102 c 0,54,55
 166 109 166 109 195 153 c 0,56,57
 199 159 199 159 242 236 c 0,0,1
EndSplineSet
EndChar

StartChar: v
Encoding: 118 118 91
Width: 366
GlyphClass: 2
Flags: W
LayerCount: 2
Fore
SplineSet
41 421 m 0,0,1
 52 421 52 421 57 412.5 c 128,-1,2
 62 404 62 404 69 373 c 0,3,4
 84 290 84 290 158 122 c 0,5,6
 164 107 164 107 170 112 c 0,7,8
 179 121 179 121 232 247 c 0,9,10
 262 316 262 316 274 338 c 2,11,-1
 298 392 l 2,12,13
 309 412 309 412 322 412 c 0,14,15
 336 412 336 412 336 397 c 0,16,17
 336 386 336 386 325.5 361.5 c 128,-1,18
 315 337 315 337 302 318 c 0,19,20
 297 310 297 310 246 182 c 0,21,22
 204 76 204 76 183 50 c 0,23,24
 174 40 174 40 169.5 39.5 c 128,-1,25
 165 39 165 39 156 47 c 0,26,27
 135 69 135 69 87 202 c 128,-1,28
 39 335 39 335 31 395 c 0,29,30
 28 421 28 421 41 421 c 0,0,1
EndSplineSet
EndChar

StartChar: w
Encoding: 119 119 92
Width: 573
GlyphClass: 2
Flags: W
LayerCount: 2
Fore
SplineSet
512 412 m 0,0,1
 533 417 533 417 541 417 c 0,2,3
 546 417 546 417 546 416 c 0,4,5
 548 411 548 411 548 338 c 0,6,7
 548 101 548 101 460 72 c 0,8,9
 442 66 442 66 425 66 c 0,10,11
 393 66 393 66 368 92 c 0,12,13
 322 140 322 140 308 172 c 2,14,-1
 288 228 l 1,15,-1
 242 122 l 1,16,17
 202 67 202 67 195 67 c 0,18,19
 193 67 193 67 180 63 c 0,20,21
 161 57 161 57 147 57 c 0,22,23
 131 57 131 57 122 65 c 0,24,25
 106 79 106 79 82 118.5 c 128,-1,26
 58 158 58 158 53 183 c 0,27,28
 52 188 52 188 46 212 c 0,29,30
 38 246 38 246 38 247 c 0,31,32
 30 259 30 259 30 352 c 0,33,34
 30 427 30 427 36 436 c 1,35,-1
 60 430 l 1,36,-1
 60 356 l 2,37,38
 60 210 60 210 131 104 c 0,39,40
 141 89 141 89 154 89 c 0,41,42
 166 89 166 89 180 102 c 0,43,44
 199 120 199 120 224 180 c 0,45,46
 249 239 249 239 256 278 c 2,47,-1
 269 330 l 1,48,49
 290 345 290 345 320 332 c 0,50,51
 325 329 325 329 325 286 c 0,52,53
 325 236 325 236 333 208 c 0,54,55
 361 109 361 109 420 109 c 0,56,57
 439 109 439 109 460 124 c 0,58,59
 478 137 478 137 484 164 c 2,60,-1
 505 261 l 2,61,62
 511 307 511 307 511 341 c 0,63,64
 511 371 511 371 507 388 c 0,65,66
 502 410 502 410 512 412 c 0,0,1
EndSplineSet
EndChar

StartChar: x
Encoding: 120 120 93
Width: 442
GlyphClass: 2
Flags: W
LayerCount: 2
Fore
SplineSet
213 294 m 0,0,1
 219 288 219 288 233 310 c 0,2,3
 255 345 255 345 257 348 c 0,4,5
 291 403 291 403 300 416 c 0,6,7
 325 450 325 450 346 427 c 0,8,9
 360 412 360 412 332 387 c 1,10,-1
 302 346 l 2,11,12
 297 338 297 338 268 296 c 0,13,14
 248 269 248 269 243 256 c 1,15,-1
 297 171 l 1,16,-1
 337 116 l 1,17,18
 362 91 362 91 367 91 c 128,-1,19
 372 91 372 91 385 109 c 0,20,21
 393 120 393 120 397.5 120.5 c 128,-1,22
 402 121 402 121 408 112 c 0,23,24
 416 99 416 99 410.5 83 c 128,-1,25
 405 67 405 67 390 56 c 0,26,27
 367 39 367 39 338 62 c 0,28,29
 316 79 316 79 263 156 c 0,30,31
 224 213 224 213 218 215 c 0,32,33
 214 216 214 216 210 208 c 0,34,35
 209 206 209 206 207 202 c 0,36,37
 178 147 178 147 138 94 c 0,38,39
 101 44 101 44 86 43 c 0,40,41
 72 42 72 42 86 78 c 0,42,43
 92 93 92 93 103 107 c 0,44,45
 110 116 110 116 115.5 124 c 128,-1,46
 121 132 121 132 123.5 137 c 128,-1,47
 126 142 126 142 125 142 c 0,48,49
 124 144 124 144 157 198 c 0,50,51
 181 236 181 236 184 248 c 128,-1,52
 187 260 187 260 177 281 c 0,53,54
 166 304 166 304 136 344 c 0,55,56
 73 429 73 429 45 416 c 0,57,58
 30 409 30 409 30 425 c 0,59,60
 30 450 30 450 65 450 c 0,61,62
 81 450 81 450 102 436 c 0,63,64
 136 413 136 413 165 368 c 0,65,66
 212 295 212 295 213 294 c 0,0,1
EndSplineSet
EndChar

StartChar: y
Encoding: 121 121 94
Width: 372
GlyphClass: 2
Flags: W
LayerCount: 2
Fore
SplineSet
62 -16 m 0,0,1
 -14 -46 -14 -46 69 -101 c 0,2,3
 90 -115 90 -115 101.5 -118.5 c 128,-1,4
 113 -122 113 -122 145 -120 c 0,5,6
 196 -116 196 -116 210 -97 c 0,7,8
 234 -64 234 -64 233 -60 c 2,9,-1
 174 -21 l 2,10,11
 124 9 124 9 62 -16 c 0,0,1
177 13 m 0,12,13
 215 0 215 0 248 -25 c 1,14,15
 257 -16 257 -16 265 14 c 0,16,17
 269 29 269 29 273 50 c 0,18,19
 278 78 278 78 282.5 122 c 128,-1,20
 287 166 287 166 288 194 c 0,21,22
 289 229 289 229 288 230 c 2,23,-1
 264 186 l 2,24,25
 183 30 183 30 104 64 c 0,26,27
 55 86 55 86 43 166 c 0,28,29
 35 222 35 222 34 316 c 0,30,31
 32 412 32 412 39 421 c 0,32,33
 57 442 57 442 69 404 c 0,34,35
 76 383 76 383 73 350 c 0,36,37
 65 247 65 247 81 148 c 0,38,39
 88 104 88 104 119 97 c 0,40,41
 169 85 169 85 239 220 c 0,42,43
 277 293 277 293 289 340 c 0,44,45
 313 431 313 431 315 434 c 0,46,47
 324 447 324 447 341 430 c 1,48,49
 348 408 348 408 341 352 c 0,50,51
 327 243 327 243 328 230 c 0,52,53
 328 217 328 217 319 130 c 0,54,55
 310 41 310 41 300 0 c 0,56,57
 296 -17 296 -17 283 -49 c 1,58,59
 303 -74 303 -74 307 -80 c 0,60,61
 328 -115 328 -115 313 -125 c 0,62,63
 307 -129 307 -129 302.5 -129.5 c 128,-1,64
 298 -130 298 -130 291 -123.5 c 128,-1,65
 284 -117 284 -117 279.5 -111.5 c 128,-1,66
 275 -106 275 -106 269 -98 c 128,-1,67
 263 -90 263 -90 261 -88 c 2,68,-1
 240 -114 l 2,69,70
 218 -142 218 -142 194 -152 c 0,71,72
 169 -162 169 -162 129 -160 c 0,73,74
 86 -158 86 -158 53 -138.5 c 128,-1,75
 20 -119 20 -119 7 -92 c 0,76,77
 -7 -64 -7 -64 -5.5 -48.5 c 128,-1,78
 -4 -33 -4 -33 15 -13 c 0,79,80
 40 15 40 15 67 24 c 0,81,82
 107 36 107 36 177 13 c 0,12,13
EndSplineSet
EndChar

StartChar: z
Encoding: 122 122 95
Width: 388
GlyphClass: 2
Flags: W
LayerCount: 2
Fore
SplineSet
230 81 m 0,0,1
 224 92 224 92 224 93 c 1,2,3
 190 86 190 86 161 67 c 0,4,5
 136 49 136 49 93 3 c 0,6,7
 55 -36 55 -36 72 -79 c 128,-1,8
 89 -122 89 -122 142 -121 c 0,9,10
 184 -121 184 -121 210 -84 c 0,11,12
 235 -49 235 -49 236 14 c 0,13,14
 237 69 237 69 230 81 c 0,0,1
245 140 m 2,15,16
 277 140 277 140 303 128 c 0,17,18
 322 120 322 120 343 97 c 0,19,20
 368 70 368 70 355 58.5 c 128,-1,21
 342 47 342 47 316 72 c 0,22,23
 285 101 285 101 261 97 c 2,24,-1
 255 96 l 2,25,26
 258 96 258 96 263 86 c 1,27,-1
 263 86 l 1,28,29
 272 72 272 72 272 12 c 0,30,31
 271 -79 271 -79 213 -132 c 0,32,33
 191 -152 191 -152 178.5 -156 c 128,-1,34
 166 -160 166 -160 133 -157 c 0,35,36
 87 -152 87 -152 59 -126 c 128,-1,37
 31 -100 31 -100 30 -62 c 0,38,39
 30 -4 30 -4 98 60 c 0,40,41
 131 91 131 91 152 104 c 2,42,43
 152 104 152 104 190 128 c 1,44,45
 179 138 179 138 169 144 c 0,46,47
 160 149 160 149 147 153 c 0,48,49
 127 160 127 160 118 168 c 128,-1,50
 109 176 109 176 111.5 183.5 c 128,-1,51
 114 191 114 191 129 197 c 0,52,53
 150 205 150 205 172 224 c 0,54,55
 224 267 224 267 215 329 c 0,56,57
 209 372 209 372 192 390 c 0,58,59
 152 433 152 433 104 385 c 0,60,61
 79 360 79 360 79 352 c 128,-1,62
 79 344 79 344 64 344 c 0,63,64
 42 344 42 344 52 373 c 0,65,66
 58 391 58 391 73 409 c 0,67,68
 89 429 89 429 102 433 c 0,69,70
 247 479 247 479 247 321 c 0,71,72
 246 282 246 282 236 254 c 0,73,74
 223 220 223 220 204 207 c 0,75,76
 179 190 179 190 170 182 c 1,77,78
 198 169 198 169 228 138 c 1,79,-1
 245 140 l 2,15,16
EndSplineSet
EndChar

StartChar: braceleft
Encoding: 123 123 96
Width: 308
GlyphClass: 2
Flags: W
LayerCount: 2
Fore
SplineSet
214 -59 m 0,0,1
 225 -67 225 -67 234 -62 c 0,2,3
 263 -49 263 -49 263 -86 c 0,4,5
 263 -88 263 -88 256 -95 c 0,6,7
 245 -106 245 -106 238 -106 c 0,8,9
 228 -105 228 -105 201 -90 c 0,10,11
 127 -49 127 -49 122 88 c 0,12,13
 120 146 120 146 115.5 169.5 c 128,-1,14
 111 193 111 193 94 226 c 0,15,16
 78 257 78 257 48 260 c 0,17,18
 32 262 32 262 25.5 266.5 c 128,-1,19
 19 271 19 271 19 282 c 0,20,21
 19 299 19 299 39 305 c 0,22,23
 100 325 100 325 116 362 c 0,24,25
 121 374 121 374 121 385 c 0,26,27
 128 557 128 557 140 617 c 0,28,29
 147 649 147 649 183 664 c 0,30,31
 208 675 208 675 250 675 c 0,32,33
 252 675 252 675 256 672 c 0,34,35
 268 665 268 665 264 653 c 0,36,37
 261 644 261 644 253 642 c 128,-1,38
 245 640 245 640 213 638 c 0,39,40
 187 636 187 636 176 607 c 0,41,42
 167 582 167 582 164 501 c 0,43,44
 161 406 161 406 154 373 c 0,45,46
 147 341 147 341 127 319 c 0,47,48
 102 292 102 292 91 286 c 1,49,50
 93 285 93 285 100 280 c 0,51,52
 127 261 127 261 140 218 c 0,53,54
 151 183 151 183 155 97 c 0,55,56
 158 34 158 34 171 -2 c 0,57,58
 183 -36 183 -36 214 -59 c 0,0,1
EndSplineSet
EndChar

StartChar: ellipsis
Encoding: 8230 8230 97
Width: 388
GlyphClass: 2
Flags: W
LayerCount: 2
Fore
SplineSet
283 111 m 0,0,1
 302 125 302 125 322.5 113.5 c 128,-1,2
 343 102 343 102 344 83 c 0,3,4
 345 55 345 55 326 43 c 128,-1,5
 307 31 307 31 283 44 c 0,6,7
 263 55 263 55 263 75.5 c 128,-1,8
 263 96 263 96 283 111 c 0,0,1
169.5 109 m 128,-1,10
 187 123 187 123 207.5 111.5 c 128,-1,11
 228 100 228 100 229 75 c 0,12,13
 230 47 230 47 211 35 c 0,14,15
 194 24 194 24 168 36 c 0,16,17
 152 44 152 44 152 70 c 0,18,9
 152 95 152 95 169.5 109 c 128,-1,10
50 117 m 0,19,20
 69 131 69 131 89.5 119.5 c 128,-1,21
 110 108 110 108 111 83 c 0,22,23
 112 55 112 55 93 43 c 128,-1,24
 74 31 74 31 50 44 c 0,25,26
 30 55 30 55 30 78.5 c 128,-1,27
 30 102 30 102 50 117 c 0,19,20
EndSplineSet
EndChar

StartChar: braceright
Encoding: 125 125 98
Width: 302
GlyphClass: 2
Flags: W
LayerCount: 2
Fore
SplineSet
138 -4 m 128,-1,1
 157 26 157 26 159 42 c 0,2,3
 167 107 167 107 167 121 c 0,4,5
 169 206 169 206 170 240 c 0,6,7
 172 266 172 266 181 280 c 1,8,-1
 199 290 l 1,9,10
 199 290 199 290 216 306 c 1,11,12
 209 311 209 311 198 318 c 0,13,14
 171 335 171 335 175 469 c 0,15,16
 177 534 177 534 171 567 c 0,17,18
 167 589 167 589 152 605 c 0,19,20
 122 639 122 639 94 645 c 0,21,22
 53 655 53 655 53 681 c 0,23,24
 53 685 53 685 61 686.5 c 128,-1,25
 69 688 69 688 80 685 c 0,26,27
 90 683 90 683 138 658 c 0,28,29
 166 644 166 644 180 629 c 0,30,31
 182 626 182 626 195 600 c 0,32,33
 206 576 206 576 209.5 549 c 128,-1,34
 213 522 213 522 212 465 c 0,35,36
 211 403 211 403 214 382 c 0,37,38
 216 360 216 360 229 346 c 0,39,40
 246 328 246 328 257 325 c 0,41,42
 265 323 265 323 266 322 c 0,43,44
 271 317 271 317 272 310 c 0,45,46
 274 294 274 294 269 290 c 0,47,48
 252 276 252 276 232 266.5 c 128,-1,49
 212 257 212 257 207 248 c 0,50,51
 201 236 201 236 200 215 c 0,52,53
 194 40 194 40 185 14 c 0,54,55
 164 -47 164 -47 114 -73 c 0,56,57
 88 -86 88 -86 73 -86.5 c 128,-1,58
 58 -87 58 -87 41 -74 c 0,59,60
 27 -64 27 -64 31 -60 c 0,61,62
 34 -57 34 -57 56 -51 c 0,63,0
 119 -34 119 -34 138 -4 c 128,-1,1
EndSplineSet
EndChar

StartChar: asciitilde
Encoding: 126 126 99
Width: 437
GlyphClass: 2
Flags: W
LayerCount: 2
Fore
SplineSet
367 319 m 0,0,1
 367 342 367 342 381 347 c 0,2,3
 405 357 405 357 407 330 c 0,4,5
 410 292 410 292 379 261 c 0,6,7
 377 259 377 259 376 258 c 0,8,9
 299 199 299 199 237 262 c 0,10,11
 224 275 224 275 202 310 c 1,12,13
 115 413 115 413 70 305 c 0,14,15
 53 265 53 265 45 261 c 0,16,17
 35 257 35 257 32 266 c 0,18,19
 25 283 25 283 32 310 c 0,20,21
 44 354 44 354 79 373 c 0,22,23
 115 391 115 391 122 391 c 0,24,25
 136 392 136 392 166 377 c 0,26,27
 207 355 207 355 233 320 c 0,28,29
 294 238 294 238 348 282 c 0,30,31
 367 297 367 297 367 319 c 0,0,1
EndSplineSet
EndChar

StartChar: notequal
Encoding: 8800 8800 100
Width: 427
GlyphClass: 2
Flags: W
LayerCount: 2
Fore
SplineSet
285 329 m 0,0,1
 216 226 216 226 144 141 c 0,2,3
 108 98 108 98 93 105 c 0,4,5
 82 110 82 110 96 131 c 0,6,7
 132 188 132 188 132 188 c 1,8,9
 232 309 232 309 234 313 c 2,10,-1
 277 386 l 2,11,12
 279 389 279 389 337 460 c 0,13,14
 342 466 342 466 347 473 c 1,15,-1
 353 473 l 1,16,17
 353 473 353 473 369 474 c 1,18,19
 385 461 385 461 374 450 c 0,20,21
 311 376 311 376 318 373 c 1,22,23
 318 373 318 373 285 329 c 0,0,1
397 215 m 0,24,25
 397 204 397 204 388.5 201 c 128,-1,26
 380 198 380 198 351 197 c 0,27,28
 309 195 309 195 164 184 c 0,29,30
 89 179 89 179 64 186 c 0,31,32
 45 190 45 190 49 204 c 0,33,34
 50 213 50 213 72.5 217 c 128,-1,35
 95 221 95 221 158 223 c 128,-1,36
 221 225 221 225 252 228 c 128,-1,37
 283 231 283 231 333 232 c 0,38,39
 375 233 375 233 386 230 c 128,-1,40
 397 227 397 227 397 215 c 0,24,25
47 348 m 0,41,42
 50 348 50 348 220 365 c 0,43,44
 366 380 366 380 383 368 c 0,45,46
 397 359 397 359 394 350 c 0,47,48
 393 344 393 344 327 339 c 0,49,50
 260 333 260 333 199 328 c 0,51,52
 132 322 132 322 122 319 c 0,53,54
 101 312 101 312 85 311 c 0,55,56
 54 309 54 309 38 314 c 0,57,58
 19 321 19 321 22 333 c 0,59,60
 25 344 25 344 47 348 c 0,41,42
EndSplineSet
EndChar

StartChar: quotesinglbase
Encoding: 8218 8218 101
Width: 159
GlyphClass: 2
Flags: W
LayerCount: 2
Fore
SplineSet
42 100 m 128,-1,1
 59 114 59 114 70 112 c 0,2,3
 86 111 86 111 103 96 c 0,4,5
 121 80 121 80 120 42 c 0,6,7
 119 8 119 8 100 -6 c 0,8,9
 57 -37 57 -37 45 -35 c 0,10,11
 26 -33 26 -33 34 -21 c 0,12,13
 36 -18 36 -18 67 -2 c 128,-1,14
 98 14 98 14 98 38 c 0,15,16
 98 44 98 44 98 51 c 1,17,18
 88 46 88 46 78 41 c 0,19,20
 60 33 60 33 43 48 c 0,21,22
 28 62 28 62 26.5 74 c 128,-1,0
 25 86 25 86 42 100 c 128,-1,1
EndSplineSet
EndChar

StartChar: plusminus
Encoding: 177 177 102
Width: 454
GlyphClass: 2
Flags: W
LayerCount: 2
Fore
SplineSet
121 183 m 0,0,1
 322 193 322 193 361 192 c 0,2,3
 430 191 430 191 435 178 c 0,4,5
 442 162 442 162 415 157 c 0,6,7
 393 154 393 154 345 153 c 0,8,9
 192 149 192 149 154 147 c 0,10,11
 72 144 72 144 48.5 145.5 c 128,-1,12
 25 147 25 147 21 156 c 0,13,14
 14 171 14 171 41 176 c 0,15,16
 63 181 63 181 121 183 c 0,0,1
417 314 m 0,17,18
 372 301 372 301 230 303 c 1,19,20
 226 296 226 296 226 292 c 0,21,22
 223 268 223 268 224 251 c 0,23,24
 225 230 225 230 222 222 c 128,-1,25
 219 214 219 214 210 214 c 0,26,27
 195 214 195 214 193 226 c 0,28,29
 191 248 191 248 192 305 c 1,30,-1
 111 305 l 2,31,32
 57 305 57 305 43.5 307.5 c 128,-1,33
 30 310 30 310 30 322 c 0,34,35
 30 333 30 333 44 336 c 0,36,37
 52 339 52 339 106 340 c 0,38,39
 185 342 185 342 186 346 c 2,40,41
 186 346 186 346 187 373 c 2,42,43
 187 373 187 373 190 406 c 0,44,45
 194 468 194 468 220 446 c 0,46,47
 230 437 230 437 229 385 c 2,48,-1
 228 344 l 1,49,50
 262 346 262 346 305 349 c 2,51,-1
 355 352 l 1,52,53
 424 367 424 367 424 328 c 0,54,55
 424 316 424 316 417 314 c 0,17,18
EndSplineSet
EndChar

StartChar: dagger
Encoding: 8224 8224 103
Width: 324
GlyphClass: 2
Flags: W
LayerCount: 2
Fore
SplineSet
166 593 m 256,0,1
 178 589 178 589 174 495 c 0,2,3
 173 463 173 463 172 431 c 1,4,5
 224 434 224 434 268 434 c 0,6,7
 286 434 286 434 286 415 c 0,8,9
 286 397 286 397 275 396 c 0,10,11
 268 395 268 395 230 394 c 2,12,13
 230 394 230 394 170 390 c 1,14,-1
 168 281 l 1,15,16
 174 97 174 97 176 81 c 0,17,18
 184 19 184 19 184 15 c 0,19,20
 191 -20 191 -20 183 -30 c 0,21,22
 172 -45 172 -45 129 -22 c 1,23,-1
 131 16 l 1,24,25
 136 201 136 201 135 266 c 0,26,27
 135 287 135 287 133 317 c 0,28,29
 132 347 132 347 132 362 c 0,30,31
 131 378 131 378 131 381 c 0,32,33
 131 386 131 386 131 390 c 1,34,-1
 117 390 l 1,35,-1
 38 394 l 2,36,37
 35 394 35 394 27 398 c 0,38,39
 23 399 23 399 23 403 c 0,40,41
 23 432 23 432 39 432 c 0,42,43
 44 433 44 433 66 431 c 0,44,45
 99 429 99 429 131 431 c 1,46,47
 132 444 132 444 132 453 c 0,48,49
 136 512 136 512 139 552 c 0,50,51
 142 591 142 591 145 593 c 0,52,53
 154 597 154 597 166 593 c 256,0,1
EndSplineSet
EndChar

StartChar: daggerdbl
Encoding: 8225 8225 104
Width: 324
GlyphClass: 2
Flags: W
LayerCount: 2
Fore
SplineSet
109 129 m 0,0,1
 210 138 210 138 219 138 c 0,2,3
 286 137 286 137 293 124 c 0,4,5
 303 104 303 104 273 103 c 0,6,7
 219 100 219 100 203 99 c 0,8,9
 146 93 146 93 142 93 c 0,10,11
 60 83 60 83 44 85 c 0,12,13
 29 86 29 86 21 102 c 0,14,15
 13 119 13 119 41 122 c 2,16,17
 41 122 41 122 109 129 c 0,0,1
166 593 m 256,18,19
 178 589 178 589 174 495 c 0,20,21
 173 463 173 463 172 431 c 1,22,23
 224 434 224 434 268 434 c 0,24,25
 286 434 286 434 286 415 c 0,26,27
 286 397 286 397 275 396 c 0,28,29
 268 395 268 395 230 394 c 2,30,-1
 170 390 l 1,31,-1
 168 281 l 1,32,33
 174 97 174 97 176 81 c 0,34,35
 184 19 184 19 184 15 c 0,36,37
 191 -20 191 -20 183 -30 c 0,38,39
 172 -45 172 -45 129 -22 c 1,40,-1
 131 16 l 1,41,42
 136 201 136 201 135 266 c 0,43,44
 135 287 135 287 133 317 c 0,45,46
 132 347 132 347 132 362 c 0,47,48
 131 378 131 378 131 381 c 0,49,50
 131 386 131 386 131 390 c 1,51,-1
 117 390 l 1,52,-1
 38 394 l 2,53,54
 35 394 35 394 27 398 c 0,55,56
 23 399 23 399 23 403 c 0,57,58
 23 432 23 432 39 432 c 0,59,60
 44 433 44 433 66 431 c 0,61,62
 99 429 99 429 131 431 c 1,63,64
 132 444 132 444 132 453 c 0,65,66
 136 512 136 512 139 552 c 0,67,68
 142 591 142 591 145 593 c 0,69,70
 154 597 154 597 166 593 c 256,18,19
EndSplineSet
EndChar

StartChar: summation
Encoding: 8721 8721 105
Width: 440
GlyphClass: 2
Flags: W
LayerCount: 2
Fore
SplineSet
36 64 m 0,0,1
 62 82 62 82 79 109 c 0,2,3
 87 124 87 124 143 180 c 2,4,-1
 224 263 l 2,5,6
 242 280 242 280 239 292 c 0,7,8
 233 316 233 316 212 334 c 0,9,10
 154 382 154 382 125 410 c 0,11,12
 105 428 105 428 64 482 c 0,13,14
 46 505 46 505 32 503 c 0,15,16
 21 500 21 500 24 545 c 1,17,-1
 228 556 l 1,18,19
 343 568 343 568 353 568 c 0,20,21
 390 564 390 564 399 529 c 1,22,23
 399 529 399 529 395 478 c 1,24,25
 395 478 395 478 373 474 c 1,26,27
 353 523 353 523 347 525 c 0,28,29
 341 528 341 528 298 526 c 2,30,-1
 77 516 l 1,31,32
 98 495 98 495 122 465 c 0,33,34
 171 407 171 407 221 375 c 0,35,36
 235 366 235 366 275 317 c 0,37,38
 302 286 302 286 283 267 c 0,39,40
 280 263 280 263 237 214 c 1,41,42
 237 214 237 214 161 142 c 0,43,44
 109 91 109 91 100 66 c 0,45,46
 98 61 98 61 105 60 c 0,47,48
 109 59 109 59 129 60 c 0,49,50
 172 60 172 60 209 59 c 0,51,52
 248 58 248 58 250 58 c 0,53,54
 259 59 259 59 341 66 c 0,55,56
 361 68 361 68 363 68 c 2,57,-1
 386 117 l 1,58,59
 386 117 386 117 412 90 c 1,60,61
 416 64 416 64 390 48 c 0,62,63
 369 34 369 34 367 33 c 256,64,65
 365 32 365 32 333 31 c 0,66,67
 47 20 47 20 38 35 c 0,68,69
 26 57 26 57 36 64 c 0,0,1
EndSplineSet
EndChar

StartChar: acute
Encoding: 180 180 106
Width: 197
GlyphClass: 2
Flags: W
LayerCount: 2
Fore
SplineSet
137 554 m 0,0,1
 168 570 168 570 175 556 c 0,2,3
 183 540 183 540 181 537 c 0,4,5
 178 532 178 532 155 520 c 2,6,7
 155 520 155 520 130 506 c 1,8,9
 102 481 102 481 58 462 c 0,10,11
 30 449 30 449 22 456 c 0,12,13
 14 462 14 462 17 469 c 0,14,15
 20 475 20 475 37 489 c 0,16,17
 77 523 77 523 137 554 c 0,0,1
EndSplineSet
EndChar

StartChar: dieresis
Encoding: 168 168 107
Width: 298
GlyphClass: 2
Flags: W
LayerCount: 2
Fore
SplineSet
266 566 m 0,0,1
 272 553 272 553 257.5 537 c 128,-1,2
 243 521 243 521 219 516 c 0,3,4
 181 508 181 508 183 562 c 0,5,6
 183 583 183 583 209 588 c 0,7,8
 250 597 250 597 266 566 c 0,0,1
56 509 m 0,9,10
 42 509 42 509 34 529 c 128,-1,11
 26 549 26 549 32 573 c 0,12,13
 42 610 42 610 89 585 c 0,14,15
 108 575 108 575 101 550 c 0,16,17
 91 509 91 509 56 509 c 0,9,10
EndSplineSet
EndChar

StartChar: oslash
Encoding: 248 248 108
Width: 414
GlyphClass: 2
Flags: W
LayerCount: 2
Fore
SplineSet
62 93 m 0,0,1
 142 202 142 202 260 330 c 0,2,3
 307 381 307 381 320 376 c 0,4,5
 338 370 338 370 322 347 c 0,6,7
 309 326 309 326 278 292 c 0,8,9
 130 125 130 125 111 93 c 0,10,11
 99 74 99 74 69 44 c 0,12,13
 53 28 53 28 43 31 c 0,14,15
 29 34 29 34 42 59 c 0,16,17
 50 76 50 76 62 93 c 0,0,1
128 364 m 2,18,-1
 130 378 l 1,19,20
 116 370 116 370 103 355 c 0,21,22
 57 305 57 305 60 223 c 0,23,24
 64 148 64 148 121 110 c 0,25,26
 185 69 185 69 264 107 c 0,27,28
 335 141 335 141 329 256 c 0,29,30
 325 303 325 303 309 324 c 1,31,-1
 294 317 l 2,32,33
 212 280 212 280 152 324 c 0,34,35
 124 345 124 345 128 364 c 2,18,-1
260 388 m 0,36,37
 238 404 238 404 211.5 409.5 c 128,-1,38
 185 415 185 415 174 404 c 128,-1,39
 163 393 163 393 165 376 c 0,40,41
 167 358 167 358 183 347 c 0,42,43
 197 337 197 337 225.5 337 c 128,-1,44
 254 337 254 337 267 346 c 0,45,46
 276 352 276 352 286 359 c 1,47,48
 285 370 285 370 260 388 c 0,36,37
293 410 m 0,49,50
 307 395 307 395 315 380 c 1,51,52
 326 386 326 386 336 398 c 0,53,54
 358 427 358 427 380 420 c 0,55,56
 388 417 388 417 387 402 c 0,57,58
 387 382 387 382 376 368 c 0,59,60
 370 359 370 359 345 341 c 1,61,62
 345 336 345 336 355 299 c 0,63,64
 372 237 372 237 353 171 c 128,-1,65
 334 105 334 105 290 76 c 0,66,67
 262 58 262 58 204 55 c 0,68,69
 143 52 143 52 121 64 c 0,70,71
 36 109 36 109 29 220 c 0,72,73
 24 296 24 296 41 331 c 0,74,75
 69 390 69 390 124 417 c 1,76,-1
 139 427 l 1,77,-1
 139 427 l 1,78,79
 164 457 164 457 198 452 c 0,80,81
 231 447 231 447 259 433 c 0,82,83
 284 420 284 420 293 410 c 0,49,50
EndSplineSet
EndChar

StartChar: pi
Encoding: 960 960 109
Width: 433
GlyphClass: 2
Flags: W
LayerCount: 2
Fore
SplineSet
363 409 m 0,0,1
 363 432 363 432 377 437 c 0,2,3
 400 446 400 446 404 420 c 256,4,5
 408 394 408 394 386 362 c 0,6,7
 379 352 379 352 372 348 c 0,8,9
 356 340 356 340 341 336 c 1,10,11
 322 133 322 133 348 138 c 1,12,13
 348 138 348 138 380 150 c 1,14,15
 384 139 384 139 380 128 c 0,16,17
 370 99 370 99 350 88 c 1,18,-1
 326 82 l 2,19,20
 293 74 293 74 296 128 c 2,21,-1
 302 331 l 1,22,23
 292 334 292 334 251 343 c 1,24,-1
 198 361 l 1,25,26
 198 361 198 361 156 375 c 1,27,28
 166 222 166 222 134 143 c 1,29,30
 134 143 134 143 109 92 c 1,31,-1
 103 96 l 1,32,33
 68 102 68 102 70 127 c 0,34,35
 70 138 70 138 87 154 c 1,36,-1
 111 202 l 2,37,38
 132 252 132 252 127 319 c 0,39,40
 124 360 124 360 122 376 c 1,41,42
 87 370 87 370 74 355 c 0,43,44
 44 322 44 322 41 321 c 0,45,46
 31 318 31 318 28 326 c 0,47,48
 26 331 26 331 28 340 c 0,49,50
 37 375 37 375 59 398 c 0,51,52
 86 426 86 426 116.5 422.5 c 128,-1,53
 147 419 147 419 168 413 c 2,54,-1
 228 389 l 1,55,56
 318 359 318 359 344 372 c 0,57,58
 363 380 363 380 363 409 c 0,0,1
EndSplineSet
EndChar

StartChar: quotedblbase
Encoding: 8222 8222 110
Width: 263
GlyphClass: 2
Flags: W
LayerCount: 2
Fore
SplineSet
79 59 m 0,0,1
 79 61 79 61 78 63 c 0,2,3
 64 64 64 64 54 67 c 0,4,5
 17 77 17 77 35 125 c 0,6,7
 41 141 41 141 68 140.5 c 128,-1,8
 95 140 95 140 103 124 c 0,9,10
 111 107 111 107 108 68 c 0,11,12
 103 9 103 9 82 -12 c 0,13,14
 64 -29 64 -29 48 -31 c 0,15,16
 29 -33 29 -33 31 -28 c 0,17,18
 40 -4 40 -4 56 10 c 0,19,20
 79 31 79 31 79 59 c 0,0,1
136 -29 m 0,21,22
 136 -15 136 -15 146 -15 c 0,23,24
 164 -15 164 -15 183 15 c 0,25,26
 195 35 195 35 195 60 c 1,27,28
 184 58 184 58 169 67 c 2,29,30
 169 67 169 67 149 78 c 0,31,32
 140 85 140 85 145 110 c 0,33,34
 149 129 149 129 167 142 c 0,35,36
 181 152 181 152 200.5 139.5 c 128,-1,37
 220 127 220 127 227 104 c 0,38,39
 236 73 236 73 228 38.5 c 128,-1,40
 220 4 220 4 199 -19 c 0,41,42
 173 -47 173 -47 149 -43 c 0,43,44
 137 -41 137 -41 136 -29 c 0,21,22
EndSplineSet
EndChar

StartChar: perthousand
Encoding: 8240 8240 111
Width: 801
GlyphClass: 2
Flags: W
LayerCount: 2
Fore
SplineSet
717 163 m 0,0,1
 698 180 698 180 672.5 178.5 c 128,-1,2
 647 177 647 177 629 157 c 0,3,4
 600 126 600 126 611 98 c 256,5,6
 622 70 622 70 664 65 c 0,7,8
 705 60 705 60 726 98.5 c 128,-1,9
 747 137 747 137 717 163 c 0,0,1
625 202 m 0,10,11
 671 230 671 230 716.5 210 c 128,-1,12
 762 190 762 190 769 139 c 0,13,14
 774 100 774 100 752.5 71 c 128,-1,15
 731 42 731 42 699.5 32 c 128,-1,16
 668 22 668 22 634 34 c 0,17,18
 602 44 602 44 584 80 c 0,19,20
 572 104 572 104 572 114.5 c 128,-1,21
 572 125 572 125 584 150 c 0,22,23
 601 188 601 188 625 202 c 0,10,11
475 196 m 0,24,25
 440 215 440 215 408 200 c 0,26,27
 378 185 378 185 370 145 c 0,28,29
 366 126 366 126 371.5 116 c 128,-1,30
 377 106 377 106 401 90 c 128,-1,31
 425 74 425 74 436 71 c 0,32,33
 445 69 445 69 465 75 c 128,-1,34
 485 81 485 81 499 108 c 0,35,36
 511 132 511 132 501 158 c 0,37,38
 488 189 488 189 475 196 c 0,24,25
546 147 m 0,39,40
 545 128 545 128 528 94 c 0,41,42
 502 42 502 42 464 40 c 0,43,44
 434 38 434 38 404 46 c 0,45,46
 366 56 366 56 348 91.5 c 128,-1,47
 330 127 330 127 340 167 c 0,48,49
 349 209 349 209 383 230 c 0,50,51
 418 253 418 253 458 242 c 0,52,53
 480 236 480 236 514 202 c 0,54,55
 546 169 546 169 546 147 c 0,39,40
179 560 m 0,56,57
 160 577 160 577 134.5 575.5 c 128,-1,58
 109 574 109 574 91 554 c 0,59,60
 62 523 62 523 73 494 c 0,61,62
 84 467 84 467 126 462 c 0,63,64
 167 457 167 457 188 495.5 c 128,-1,65
 209 534 209 534 179 560 c 0,56,57
87 599 m 0,66,67
 133 627 133 627 178.5 607 c 128,-1,68
 224 587 224 587 231 536 c 0,69,70
 236 497 236 497 214.5 468 c 128,-1,71
 193 439 193 439 161.5 429 c 128,-1,72
 130 419 130 419 96 430 c 0,73,74
 64 441 64 441 46 477 c 0,75,76
 34 501 34 501 34 511.5 c 128,-1,77
 34 522 34 522 46 547 c 0,78,79
 63 585 63 585 87 599 c 0,66,67
441 625 m 0,80,81
 449 625 449 625 451.5 617.5 c 128,-1,82
 454 610 454 610 450 602 c 2,83,-1
 424 551 l 2,84,85
 416 532 416 532 405 518 c 2,86,-1
 370 446 l 1,87,-1
 237 190 l 2,88,89
 161 39 161 39 148 31 c 0,90,91
 142 27 142 27 135.5 31 c 128,-1,92
 129 35 129 35 127.5 42.5 c 128,-1,93
 126 50 126 50 131 57 c 0,94,95
 136 65 136 65 146 95 c 0,96,97
 151 107 151 107 210 222 c 2,98,-1
 259 321 l 2,99,100
 265 331 265 331 292 383 c 0,101,102
 382 552 382 552 384 555 c 0,103,104
 417 617 417 617 441 625 c 0,80,81
EndSplineSet
EndChar

StartChar: caron
Encoding: 711 711 112
Width: 455
GlyphClass: 2
Flags: W
LayerCount: 2
Fore
SplineSet
233 439 m 0,0,1
 211 439 211 439 190 464 c 2,2,3
 190 464 190 464 107 574 c 1,4,5
 107 607 107 607 98 607 c 1,6,7
 118 606 118 606 140 582 c 0,8,9
 188 532 188 532 235 481 c 1,10,-1
 268 508 l 1,11,12
 370 602 370 602 375 604 c 0,13,14
 398 611 398 611 382 589 c 0,15,16
 363 562 363 562 343 535 c 0,17,18
 312 496 312 496 312 496 c 1,19,20
 276 439 276 439 233 439 c 0,0,1
EndSplineSet
EndChar

StartChar: Oslash
Encoding: 216 216 114
Width: 570
GlyphClass: 2
Flags: W
LayerCount: 2
Fore
SplineSet
193 226 m 0,0,1
 429 515 429 515 451 542 c 0,2,3
 486 585 486 585 500 580 c 0,4,5
 508 578 508 578 498 553 c 0,6,7
 490 528 490 528 464 496 c 0,8,9
 404 420 404 420 332 345 c 1,10,-1
 147 96 l 2,11,12
 99 31 99 31 99 31 c 2,13,14
 93 25 93 25 89 17 c 1,15,-1
 83 17 l 1,16,17
 83 17 83 17 76 28 c 0,18,19
 68 43 68 43 75 60 c 0,20,21
 82 79 82 79 128 140 c 0,22,23
 187 218 187 218 193 226 c 0,0,1
119 442 m 0,24,25
 105 416 105 416 91 390.5 c 128,-1,26
 77 365 77 365 80 363 c 1,27,28
 81 367 81 367 76 352 c 0,29,30
 45 255 45 255 97 180 c 1,31,32
 154 81 154 81 292 70 c 0,33,34
 322 68 322 68 365.5 87.5 c 128,-1,35
 409 107 409 107 434 135 c 0,36,37
 443 144 443 144 454 163.5 c 128,-1,38
 465 183 465 183 470 195.5 c 128,-1,39
 475 208 475 208 486.5 236.5 c 128,-1,40
 498 265 498 265 498 266 c 0,41,42
 501 273 501 273 504 328 c 0,43,44
 508 410 508 410 449 477 c 0,45,46
 418 514 418 514 411 520 c 0,47,48
 394 533 394 533 367 542 c 0,49,50
 327 556 327 556 314 556 c 128,-1,51
 301 556 301 556 257 544 c 0,52,53
 227 536 227 536 200 525 c 0,54,55
 153 505 153 505 119 442 c 0,24,25
144 69.5 m 128,-1,57
 108 94 108 94 78 142 c 0,58,59
 50 184 50 184 37 227 c 0,60,61
 13 308 13 308 69 426 c 0,62,63
 89 468 89 468 116 501 c 0,64,65
 144 536 144 536 174.5 552 c 128,-1,66
 205 568 205 568 214 568 c 0,67,68
 217 569 217 569 254 582 c 0,69,70
 291 596 291 596 331 592 c 128,-1,71
 371 588 371 588 402 572 c 0,72,73
 432 557 432 557 477.5 502.5 c 128,-1,74
 523 448 523 448 534 414 c 0,75,76
 540 396 540 396 540 350 c 128,-1,77
 540 304 540 304 535 278 c 0,78,79
 516 185 516 185 460.5 117.5 c 128,-1,80
 405 50 405 50 339 37 c 0,81,82
 307 31 307 31 253 37 c 0,83,56
 180 45 180 45 144 69.5 c 128,-1,57
EndSplineSet
EndChar

StartChar: product
Encoding: 8719 8719 115
Width: 484
GlyphClass: 2
Flags: W
LayerCount: 2
Fore
SplineSet
28 554 m 0,0,1
 23 559 23 559 23 566 c 128,-1,2
 23 573 23 573 28 578 c 0,3,4
 48 599 48 599 86 603 c 0,5,6
 103 604 103 604 160 602 c 0,7,8
 235 600 235 600 237 599 c 0,9,10
 265 596 265 596 297 597 c 0,11,12
 357 600 357 600 416 603 c 2,13,-1
 417 603 l 1,14,15
 423 607 423 607 430 605 c 0,16,17
 437 604 437 604 441 598 c 256,18,19
 445 592 445 592 444 585 c 256,20,21
 443 578 443 578 437 574 c 2,22,-1
 431 570 l 2,23,24
 428 568 428 568 422 568 c 0,25,26
 327 567 327 567 305 564 c 0,27,28
 273 560 273 560 234 563 c 0,29,30
 194 566 194 566 160 568 c 0,31,32
 129 569 129 569 101 568 c 1,33,34
 98 495 98 495 99 400 c 0,35,36
 99 343 99 343 96 188 c 2,37,-1
 94 49 l 2,38,39
 94 42 94 42 89 37.5 c 128,-1,40
 84 33 84 33 77 33.5 c 128,-1,41
 70 34 70 34 65 39.5 c 128,-1,42
 60 45 60 45 60 52 c 2,43,-1
 62 191 l 2,44,45
 65 345 65 345 65 401 c 0,46,47
 64 492 64 492 67 562 c 1,48,49
 58 559 58 559 52 553 c 0,50,51
 48 548 48 548 41 549 c 0,52,53
 34 549 34 549 28 554 c 0,0,1
358 34 m 1,54,55
 358 91 358 91 355 129 c 0,56,57
 348 225 348 225 348 241 c 0,58,59
 348 269 348 269 352.5 324 c 128,-1,60
 357 379 357 379 357 404.5 c 128,-1,61
 357 430 357 430 353.5 484 c 128,-1,62
 350 538 350 538 350 566 c 0,63,64
 350 572 350 572 350 578.5 c 128,-1,65
 350 585 350 585 355 590 c 256,66,67
 360 595 360 595 367 594.5 c 128,-1,68
 374 594 374 594 379 589 c 256,69,70
 384 584 384 584 384 577 c 256,71,72
 384 570 384 570 384 564 c 0,73,74
 384 538 384 538 388 484 c 0,75,76
 391 431 391 431 391 403 c 0,77,78
 391 384 391 384 390 360 c 0,79,80
 388 337 388 337 387 319 c 0,81,82
 385 301 385 301 383.5 278.5 c 128,-1,83
 382 256 382 256 382 238 c 0,84,85
 382 224 382 224 389 130 c 0,86,87
 390 117 390 117 390 26 c 0,88,89
 390 25 390 25 383 18 c 0,90,91
 376 10 376 10 357 16 c 0,92,93
 352 17 352 17 358 34 c 1,54,55
EndSplineSet
EndChar

StartChar: ordfeminine
Encoding: 170 170 116
Width: 299
GlyphClass: 2
Flags: W
LayerCount: 2
Fore
SplineSet
153 470 m 0,0,1
 173 509 173 509 173 509 c 2,2,3
 171 510 171 510 164 526 c 0,4,5
 162 529 162 529 146 535 c 0,6,7
 112 549 112 549 90 538 c 0,8,9
 75 531 75 531 66 518 c 0,10,11
 52 498 52 498 54 479 c 0,12,13
 56 441 56 441 75 429 c 1,14,-1
 101 425 l 1,15,16
 134 434 134 434 153 470 c 0,0,1
204 558 m 0,17,18
 204 580 204 580 214 583 c 0,19,20
 244 592 244 592 242 577 c 0,21,22
 235 506 235 506 225 447 c 0,23,24
 222 427 222 427 231 429 c 0,25,26
 261 434 261 434 263 433 c 0,27,28
 279 418 279 418 267 411 c 0,29,30
 261 407 261 407 252 399 c 0,31,32
 238 387 238 387 216 395 c 0,33,34
 188 405 188 405 192 438 c 0,35,36
 195 458 195 458 191 460 c 0,37,38
 188 461 188 461 175 442 c 256,39,40
 162 423 162 423 143 407 c 0,41,42
 125 392 125 392 114 391 c 0,43,44
 62 385 62 385 42 407 c 2,45,-1
 29 423 l 2,46,47
 22 429 22 429 21 463 c 0,48,49
 20 583 20 583 113 581 c 0,50,51
 121 581 121 581 135 578 c 0,52,53
 164 573 164 573 189 558 c 0,54,55
 197 552 197 552 202 551 c 0,56,57
 204 550 204 550 204 558 c 0,17,18
EndSplineSet
EndChar

StartChar: hungarumlaut
Encoding: 733 733 117
Width: 324
GlyphClass: 2
Flags: W
LayerCount: 2
Fore
SplineSet
256 546 m 0,0,1
 287 562 287 562 294 548 c 0,2,3
 302 532 302 532 300 529 c 0,4,5
 297 524 297 524 274 512 c 2,6,7
 274 512 274 512 249 498 c 0,8,9
 242 495 242 495 187 454 c 0,10,11
 165 438 165 438 151 448 c 0,12,13
 135 460 135 460 136 461 c 0,14,15
 143 474 143 474 156 481 c 0,16,17
 206 514 206 514 256 546 c 0,0,1
137 554 m 0,18,19
 168 570 168 570 175 556 c 0,20,21
 183 540 183 540 181 537 c 0,22,23
 178 532 178 532 155 520 c 2,24,-1
 130 506 l 1,25,26
 102 481 102 481 58 462 c 0,27,28
 30 449 30 449 22 456 c 0,29,30
 14 462 14 462 17 469 c 0,31,32
 20 475 20 475 37 489 c 0,33,34
 77 523 77 523 137 554 c 0,18,19
EndSplineSet
EndChar

StartChar: Oacute
Encoding: 211 211 118
Width: 570
GlyphClass: 2
Flags: W
LayerCount: 2
Fore
SplineSet
336 716 m 0,0,1
 367 732 367 732 374 718 c 0,2,3
 382 702 382 702 380 698 c 0,4,5
 377 694 377 694 354 681 c 2,6,7
 354 681 354 681 329 668 c 1,8,9
 301 643 301 643 257 624 c 0,10,11
 229 611 229 611 221 618 c 0,12,13
 213 624 213 624 216 631 c 0,14,15
 219 637 219 637 236 651 c 0,16,17
 276 685 276 685 336 716 c 0,0,1
119 442 m 0,18,19
 105 416 105 416 91 390.5 c 128,-1,20
 77 365 77 365 80 363 c 1,21,22
 81 367 81 367 76 352 c 0,23,24
 45 255 45 255 97 180 c 1,25,26
 154 81 154 81 292 70 c 0,27,28
 322 68 322 68 365.5 87.5 c 128,-1,29
 409 107 409 107 434 135 c 0,30,31
 443 144 443 144 454 163.5 c 128,-1,32
 465 183 465 183 470 195.5 c 128,-1,33
 475 208 475 208 486.5 236.5 c 128,-1,34
 498 265 498 265 498 266 c 0,35,36
 501 273 501 273 504 328 c 0,37,38
 508 410 508 410 449 477 c 0,39,40
 418 514 418 514 411 520 c 0,41,42
 394 533 394 533 367 542 c 0,43,44
 327 556 327 556 314 556 c 128,-1,45
 301 556 301 556 257 544 c 0,46,47
 227 536 227 536 200 525 c 0,48,49
 153 505 153 505 119 442 c 0,18,19
144 69.5 m 128,-1,51
 108 94 108 94 78 142 c 0,52,53
 50 184 50 184 37 227 c 0,54,55
 13 308 13 308 69 426 c 0,56,57
 89 468 89 468 116 501 c 0,58,59
 144 536 144 536 174.5 552 c 128,-1,60
 205 568 205 568 214 568 c 0,61,62
 217 569 217 569 254 582 c 0,63,64
 291 596 291 596 331 592 c 128,-1,65
 371 588 371 588 402 572 c 0,66,67
 432 557 432 557 477.5 502.5 c 128,-1,68
 523 448 523 448 534 414 c 0,69,70
 540 396 540 396 540 350 c 128,-1,71
 540 304 540 304 535 278 c 0,72,73
 516 185 516 185 460.5 117.5 c 128,-1,74
 405 50 405 50 339 37 c 0,75,76
 307 31 307 31 253 37 c 0,77,50
 180 45 180 45 144 69.5 c 128,-1,51
EndSplineSet
EndChar

StartChar: Ocircumflex
Encoding: 212 212 119
Width: 570
GlyphClass: 2
Flags: W
LayerCount: 2
Fore
SplineSet
277 771 m 0,0,1
 255 771 255 771 234 746 c 2,2,3
 234 746 234 746 151 636 c 1,4,5
 151 603 151 603 142 603 c 1,6,7
 162 604 162 604 184 628 c 0,8,9
 232 678 232 678 279 729 c 1,10,-1
 311 702 l 1,11,12
 414 608 414 608 419 606 c 0,13,14
 442 599 442 599 426 621 c 0,15,16
 407 648 407 648 387 675 c 0,17,18
 356 714 356 714 356 714 c 1,19,20
 320 771 320 771 277 771 c 0,0,1
119 442 m 0,21,22
 105 416 105 416 91 390.5 c 128,-1,23
 77 365 77 365 80 363 c 1,24,25
 81 367 81 367 76 352 c 0,26,27
 45 255 45 255 97 180 c 1,28,29
 154 81 154 81 292 70 c 0,30,31
 322 68 322 68 365.5 87.5 c 128,-1,32
 409 107 409 107 434 135 c 0,33,34
 443 144 443 144 454 163.5 c 128,-1,35
 465 183 465 183 470 195.5 c 128,-1,36
 475 208 475 208 486.5 236.5 c 128,-1,37
 498 265 498 265 498 266 c 0,38,39
 501 273 501 273 504 328 c 0,40,41
 508 410 508 410 449 477 c 0,42,43
 418 514 418 514 411 520 c 0,44,45
 394 533 394 533 367 542 c 0,46,47
 327 556 327 556 314 556 c 128,-1,48
 301 556 301 556 257 544 c 0,49,50
 227 536 227 536 200 525 c 0,51,52
 153 505 153 505 119 442 c 0,21,22
144 69.5 m 128,-1,54
 108 94 108 94 78 142 c 0,55,56
 50 184 50 184 37 227 c 0,57,58
 13 308 13 308 69 426 c 0,59,60
 89 468 89 468 116 501 c 0,61,62
 144 536 144 536 174.5 552 c 128,-1,63
 205 568 205 568 214 568 c 0,64,65
 217 569 217 569 254 582 c 0,66,67
 291 596 291 596 331 592 c 128,-1,68
 371 588 371 588 402 572 c 0,69,70
 432 557 432 557 477.5 502.5 c 128,-1,71
 523 448 523 448 534 414 c 0,72,73
 540 396 540 396 540 350 c 128,-1,74
 540 304 540 304 535 278 c 0,75,76
 516 185 516 185 460.5 117.5 c 128,-1,77
 405 50 405 50 339 37 c 0,78,79
 307 31 307 31 253 37 c 0,80,53
 180 45 180 45 144 69.5 c 128,-1,54
EndSplineSet
EndChar

StartChar: quotedblleft
Encoding: 8220 8220 120
Width: 309
GlyphClass: 2
Flags: W
LayerCount: 2
Fore
SplineSet
238 669 m 0,0,1
 250 669 250 669 250 657.5 c 128,-1,2
 250 646 250 646 238 641 c 0,3,4
 222 636 222 636 212 606 c 0,5,6
 208 594 208 594 206 586 c 256,7,8
 204 578 204 578 208 576 c 0,9,10
 224 585 224 585 236 585 c 0,11,12
 252 585 252 585 260 571 c 0,13,14
 266 562 266 562 266 550.5 c 128,-1,15
 266 539 266 539 260 526 c 0,16,17
 248 497 248 497 227 494 c 0,18,19
 225 494 225 494 222 494 c 0,20,21
 206 494 206 494 190 512 c 0,22,23
 174 531 174 531 174 568 c 0,24,25
 174 589 174 589 180 612 c 0,26,27
 182 624 182 624 200 647 c 0,28,29
 216 669 216 669 238 669 c 0,0,1
114 666 m 0,30,31
 114 657 114 657 90 627 c 0,32,33
 64 595 64 595 64 580 c 0,34,35
 64 576 64 576 66 573 c 1,36,37
 77 581 77 581 87 581 c 0,38,39
 102 581 102 581 114 561 c 0,40,41
 120 552 120 552 120 543 c 0,42,43
 120 532 120 532 112 521 c 0,44,45
 100 502 100 502 78 502 c 0,46,47
 58 502 58 502 46 522 c 0,48,49
 32 545 32 545 32 570 c 0,50,51
 32 610 32 610 70 653 c 0,52,53
 86 673 86 673 102 673 c 0,54,55
 104 673 104 673 106 673 c 0,56,57
 114 672 114 672 114 666 c 0,30,31
EndSplineSet
EndChar

StartChar: quotedblright
Encoding: 8221 8221 121
Width: 263
GlyphClass: 2
Flags: W
LayerCount: 2
Fore
SplineSet
79 579 m 0,0,1
 79 581 79 581 78 583 c 0,2,3
 64 584 64 584 54 587 c 0,4,5
 17 597 17 597 35 645 c 0,6,7
 41 661 41 661 68 660.5 c 128,-1,8
 95 660 95 660 103 644 c 0,9,10
 111 627 111 627 108 588 c 0,11,12
 103 529 103 529 82 508 c 0,13,14
 64 491 64 491 48 489 c 0,15,16
 29 487 29 487 31 492 c 0,17,18
 40 516 40 516 56 530 c 0,19,20
 79 551 79 551 79 579 c 0,0,1
136 491 m 0,21,22
 136 505 136 505 146 505 c 0,23,24
 164 505 164 505 183 535 c 0,25,26
 195 555 195 555 195 580 c 1,27,28
 184 578 184 578 169 587 c 2,29,30
 169 587 169 587 149 598 c 0,31,32
 140 605 140 605 145 630 c 0,33,34
 149 649 149 649 167 662 c 0,35,36
 181 672 181 672 200.5 659.5 c 128,-1,37
 220 647 220 647 227 624 c 0,38,39
 236 593 236 593 228 558.5 c 128,-1,40
 220 524 220 524 199 501 c 0,41,42
 173 473 173 473 149 477 c 0,43,44
 137 479 137 479 136 491 c 0,21,22
EndSplineSet
EndChar

StartChar: Uacute
Encoding: 218 218 122
Width: 464
GlyphClass: 2
Flags: W
LayerCount: 2
Fore
SplineSet
267 713 m 0,0,1
 298 729 298 729 305 715 c 0,2,3
 313 699 313 699 311 695 c 0,4,5
 308 691 308 691 285 678 c 2,6,7
 285 678 285 678 260 665 c 1,8,9
 232 640 232 640 188 621 c 0,10,11
 160 608 160 608 152 615 c 0,12,13
 144 621 144 621 147 628 c 0,14,15
 150 634 150 634 167 648 c 0,16,17
 207 682 207 682 267 713 c 0,0,1
240 58 m 0,18,19
 285 61 285 61 290 61 c 0,20,21
 317 62 317 62 346 98 c 0,22,23
 378 136 378 136 383 174 c 0,24,25
 391 229 391 229 394 240 c 0,26,27
 397 255 397 255 398.5 387.5 c 128,-1,28
 400 520 400 520 397 534 c 0,29,30
 390 565 390 565 414 568 c 0,31,32
 422 568 422 568 424 554 c 0,33,34
 425 547 425 547 426 544 c 0,35,36
 433 527 433 527 434 393 c 1,37,-1
 424 193 l 2,38,39
 423 182 423 182 413 147 c 0,40,41
 387 55 387 55 311 30 c 0,42,43
 231 4 231 4 144 50 c 0,44,45
 107 70 107 70 85.5 100 c 128,-1,46
 64 130 64 130 48 184 c 0,47,48
 39 214 39 214 32.5 380.5 c 128,-1,49
 26 547 26 547 33 564 c 0,50,51
 37 573 37 573 40 573 c 0,52,53
 45 573 45 573 53 564 c 0,54,55
 68 547 68 547 67 444 c 0,56,57
 66 295 66 295 83 214 c 0,58,59
 100 132 100 132 138 99 c 0,60,61
 189 55 189 55 240 58 c 0,18,19
EndSplineSet
EndChar

StartChar: Ograve
Encoding: 210 210 123
Width: 570
GlyphClass: 2
Flags: W
LayerCount: 2
Fore
SplineSet
347 667 m 0,0,1
 369 648 369 648 364 632 c 0,2,3
 359 619 359 619 345 625 c 0,4,5
 246 675 246 675 223 701 c 0,6,7
 208 717 208 717 213 737 c 0,8,9
 216 746 216 746 223 746 c 0,10,11
 230 745 230 745 249 735 c 0,12,13
 297 709 297 709 347 667 c 0,0,1
119 442 m 0,14,15
 105 416 105 416 91 390.5 c 128,-1,16
 77 365 77 365 80 363 c 1,17,18
 81 367 81 367 76 352 c 0,19,20
 45 255 45 255 97 180 c 1,21,22
 154 81 154 81 292 70 c 0,23,24
 322 68 322 68 365.5 87.5 c 128,-1,25
 409 107 409 107 434 135 c 0,26,27
 443 144 443 144 454 163.5 c 128,-1,28
 465 183 465 183 470 195.5 c 128,-1,29
 475 208 475 208 486.5 236.5 c 128,-1,30
 498 265 498 265 498 266 c 0,31,32
 501 273 501 273 504 328 c 0,33,34
 508 410 508 410 449 477 c 0,35,36
 418 514 418 514 411 520 c 0,37,38
 394 533 394 533 367 542 c 0,39,40
 327 556 327 556 314 556 c 128,-1,41
 301 556 301 556 257 544 c 0,42,43
 227 536 227 536 200 525 c 0,44,45
 153 505 153 505 119 442 c 0,14,15
144 69.5 m 128,-1,47
 108 94 108 94 78 142 c 0,48,49
 50 184 50 184 37 227 c 0,50,51
 13 308 13 308 69 426 c 0,52,53
 89 468 89 468 116 501 c 0,54,55
 144 536 144 536 174.5 552 c 128,-1,56
 205 568 205 568 214 568 c 0,57,58
 217 569 217 569 254 582 c 0,59,60
 291 596 291 596 331 592 c 128,-1,61
 371 588 371 588 402 572 c 0,62,63
 432 557 432 557 477.5 502.5 c 128,-1,64
 523 448 523 448 534 414 c 0,65,66
 540 396 540 396 540 350 c 128,-1,67
 540 304 540 304 535 278 c 0,68,69
 516 185 516 185 460.5 117.5 c 128,-1,70
 405 50 405 50 339 37 c 0,71,72
 307 31 307 31 253 37 c 0,73,46
 180 45 180 45 144 69.5 c 128,-1,47
EndSplineSet
EndChar

StartChar: bar
Encoding: 124 124 124
Width: 104
GlyphClass: 2
Flags: W
LayerCount: 2
Fore
SplineSet
28 164 m 0,0,1
 25 409 25 409 31 575 c 0,2,3
 33 630 33 630 48 634 c 0,4,5
 55 636 55 636 62 611 c 0,6,7
 70 588 70 588 69 545 c 0,8,9
 67 400 67 400 66 384 c 2,10,-1
 67 32 l 2,11,12
 67 -35 67 -35 67 -49 c 0,13,14
 67 -57 67 -57 67 -66 c 1,15,-1
 63 -69 l 1,16,17
 63 -69 63 -69 51 -64 c 0,18,19
 36 -58 36 -58 31 -39 c 0,20,21
 26 -19 26 -19 27 56 c 0,22,23
 28 154 28 154 28 164 c 0,0,1
EndSplineSet
EndChar

StartChar: germandbls
Encoding: 223 223 126
Width: 500
GlyphClass: 2
Flags: W
LayerCount: 2
Fore
SplineSet
70 10 m 0,0,1
 58 17 58 17 56 24 c 0,2,3
 56 26 56 26 53 40 c 0,4,5
 47 83 47 83 47 84 c 0,6,7
 44 94 44 94 47 115 c 2,8,9
 47 115 47 115 47 116 c 0,10,11
 53 199 53 199 53 322 c 0,12,13
 53 349 53 349 52 378 c 0,14,15
 51 408 51 408 55 438 c 256,16,17
 59 468 59 468 66 496 c 0,18,19
 79 548 79 548 79 548 c 1,20,21
 93 573 93 573 113 591 c 0,22,23
 132 609 132 609 162 619 c 0,24,25
 192 630 192 630 229 630 c 0,26,27
 256 630 256 630 287.5 614 c 128,-1,28
 319 598 319 598 344 575 c 0,29,30
 362 559 362 559 370 520 c 0,31,32
 382 463 382 463 358 428 c 0,33,34
 338 397 338 397 318 382 c 0,35,36
 274 348 274 348 252 339 c 0,37,38
 226 329 226 329 211 314 c 1,39,40
 211 314 211 314 213 285 c 1,41,42
 249 259 249 259 269 250 c 0,43,44
 319 229 319 229 320 227 c 0,45,46
 346 207 346 207 366 174 c 0,47,48
 377 156 377 156 378 124 c 128,-1,49
 379 92 379 92 353 60 c 0,50,51
 329 31 329 31 290 15 c 0,52,53
 248 -3 248 -3 215 9 c 0,54,55
 177 23 177 23 155 56 c 0,56,57
 131 93 131 93 144 129 c 0,58,59
 146 136 146 136 153 138 c 0,60,61
 161 140 161 140 170 135 c 0,62,63
 178 130 178 130 183 122 c 0,64,65
 188 113 188 113 186 105 c 0,66,67
 176 70 176 70 216 50 c 0,68,69
 217 49 217 49 231 47 c 256,70,71
 245 45 245 45 246 45 c 0,72,73
 270 45 270 45 299 66 c 0,74,75
 342 98 342 98 344 116 c 0,76,77
 350 168 350 168 299 194 c 0,78,79
 231 230 231 230 211 249 c 0,80,81
 178 280 178 280 178 293 c 0,82,83
 178 329 178 329 190 341 c 0,84,85
 214 365 214 365 243 377 c 0,86,87
 273 389 273 389 294 406 c 2,88,-1
 322 434 l 1,89,90
 340 490 340 490 328 526 c 0,91,92
 321 545 321 545 296 565 c 0,93,94
 270 587 270 587 244 587 c 0,95,96
 190 587 190 587 165 573 c 0,97,98
 131 555 131 555 118 529 c 0,99,100
 114 520 114 520 98 462 c 0,101,102
 90 430 90 430 89 387 c 0,103,104
 87 348 87 348 89 309 c 0,105,106
 93 232 93 232 83 99 c 1,107,-1
 83 100 l 2,108,109
 83 97 83 97 83 90 c 256,110,111
 83 83 83 83 83 80 c 256,112,113
 83 77 83 77 83 71 c 0,114,115
 83 68 83 68 86 56 c 0,116,117
 88 45 88 45 89 37 c 0,118,119
 90 23 90 23 89 17 c 0,120,121
 87 12 87 12 79 7 c 0,122,123
 77 6 77 6 70 10 c 0,0,1
EndSplineSet
EndChar

StartChar: partialdiff
Encoding: 8706 8706 127
Width: 415
GlyphClass: 2
Flags: W
LayerCount: 2
Fore
SplineSet
360 281 m 1,0,-1
 335 294 l 2,1,2
 324 299 324 299 325 312 c 0,3,4
 326 320 326 320 326 320 c 129,-1,5
 326 320 326 320 324 323 c 0,6,7
 322 325 322 325 318 331 c 0,8,9
 314 338 314 338 310 345 c 0,10,11
 297 369 297 369 270.5 384.5 c 128,-1,12
 244 400 244 400 215 401 c 0,13,14
 181 401 181 401 143 374 c 0,15,16
 110 351 110 351 93 315 c 0,17,18
 67 260 67 260 63 238 c 0,19,20
 55 185 55 185 86 137 c 0,21,22
 117 88 117 88 165 86 c 2,23,-1
 164 86 l 2,24,25
 196 85 196 85 211 90 c 0,26,27
 218 93 218 93 243 119 c 0,28,29
 269 147 269 147 272 152 c 0,30,31
 282 165 282 165 300 200 c 0,32,33
 315 232 315 232 325.5 272.5 c 128,-1,34
 336 313 336 313 351 379 c 1,35,36
 357 449 357 449 333 510 c 0,37,38
 312 565 312 565 255 593 c 0,39,40
 254 594 254 594 252 595 c 0,41,42
 242 600 242 600 231 600 c 2,43,-1
 233 600 l 2,44,45
 208 601 208 601 191 598 c 0,46,47
 163 592 163 592 155 586 c 0,48,49
 140 576 140 576 131 560 c 0,50,51
 128 554 128 554 126 551 c 0,52,53
 123 543 123 543 117 542 c 0,54,55
 111 542 111 542 98 547 c 0,56,57
 92 550 92 550 89 557 c 0,58,59
 86 563 86 563 88 570 c 0,60,61
 91 578 91 578 99 587 c 0,62,63
 136 630 136 630 180 636 c 0,64,65
 225 641 225 641 226 638 c 0,66,67
 227 634 227 634 233 634 c 0,68,69
 257 631 257 631 270 623 c 1,70,71
 268 624 268 624 267 625 c 1,72,73
 319 601 319 601 331 588 c 0,74,75
 351 565 351 565 369 524 c 0,76,77
 375 510 375 510 383 446 c 0,78,79
 388 410 388 410 385 374.5 c 128,-1,80
 382 339 382 339 374.5 301 c 128,-1,81
 367 263 367 263 350 217 c 256,82,83
 333 171 333 171 310 135 c 0,84,85
 287 100 287 100 249 76 c 0,86,87
 212 52 212 52 166 52 c 0,88,89
 165 52 165 52 165 52 c 2,90,91
 119 55 119 55 85 86 c 0,92,93
 51 118 51 118 37 160 c 0,94,95
 23 203 23 203 29 244 c 0,96,97
 35 282 35 282 48 314 c 0,98,99
 61 347 61 347 82 375 c 0,100,101
 104 403 104 403 137 419 c 0,102,103
 173 436 173 436 213 435 c 0,104,105
 232 435 232 435 251 429 c 0,106,107
 270 424 270 424 286 414 c 0,108,109
 303 404 303 404 317 390 c 256,110,111
 331 376 331 376 340 359 c 0,112,113
 360 321 360 321 360 281 c 1,0,-1
EndSplineSet
EndChar

StartChar: florin
Encoding: 402 402 128
Width: 685
GlyphClass: 2
Flags: W
LayerCount: 2
Fore
SplineSet
153 229 m 0,0,1
 155 236 155 236 161 239 c 0,2,3
 169 244 169 244 174 241 c 0,4,5
 180 237 180 237 214 237 c 0,6,7
 241 238 241 238 262 237 c 2,8,-1
 261 237 l 1,9,10
 269 248 269 248 431 239 c 0,11,12
 438 239 438 239 443 234.5 c 128,-1,13
 448 230 448 230 449 223 c 0,14,15
 449 222 449 222 445 210 c 0,16,17
 440 196 440 196 424 194 c 0,18,19
 373 189 373 189 263 203 c 0,20,21
 262 203 262 203 262 203 c 2,22,23
 253 204 253 204 234 203 c 0,24,25
 216 202 216 202 199 203 c 256,26,27
 182 204 182 204 166 208 c 0,28,29
 159 210 159 210 156 216 c 0,30,31
 152 222 152 222 153 229 c 0,0,1
599 519 m 0,32,33
 594 525 594 525 595 532 c 256,34,35
 596 539 596 539 601 543 c 0,36,37
 618 560 618 560 619 574 c 0,38,39
 619 600 619 600 600 618 c 128,-1,40
 581 636 581 636 551 636 c 0,41,42
 541 635 541 635 530 630 c 0,43,44
 508 618 508 618 473 548 c 0,45,46
 426 451 426 451 414 432 c 1,47,48
 414 432 414 432 366 307 c 0,49,50
 360 290 360 290 341 265 c 1,51,-1
 342 267 l 1,52,53
 304 214 304 214 283 136 c 0,54,55
 270 90 270 90 229 8 c 1,56,-1
 229 8 l 1,57,58
 219 -17 219 -17 208 -42 c 1,59,-1
 209 -41 l 1,60,61
 191 -72 191 -72 175 -95 c 0,62,63
 159 -117 159 -117 134 -143.5 c 128,-1,64
 109 -170 109 -170 78 -183 c 256,65,66
 47 -196 47 -196 12 -195 c 0,67,68
 -41 -192 -41 -192 -79 -163 c 256,69,70
 -117 -134 -117 -134 -117 -79 c 0,71,72
 -117 -51 -117 -51 -99 -28 c 0,73,74
 -79 -1 -79 -1 -53 -5 c 0,75,76
 -50 -5 -50 -5 -31 -9 c 0,77,78
 -27 -10 -27 -10 -23 -13 c 2,79,-1
 -7 -27 l 2,80,81
 -2 -32 -2 -32 -1 -39 c 256,82,83
 0 -46 0 -46 -5 -51 c 0,84,85
 -9 -56 -9 -56 -16 -57 c 0,86,87
 -23 -57 -23 -57 -29 -52 c 0,88,89
 -37 -44 -37 -44 -42 -41 c 0,90,91
 -45 -39 -45 -39 -51 -39 c 0,92,93
 -63 -39 -63 -39 -73 -52 c 256,94,95
 -83 -65 -83 -65 -83 -81 c 0,96,97
 -83 -119 -83 -119 -57 -138.5 c 128,-1,98
 -31 -158 -31 -158 12 -161 c 0,99,100
 33 -162 33 -162 54 -154 c 256,101,102
 75 -146 75 -146 91 -134 c 0,103,104
 108 -121 108 -121 125 -101 c 0,105,106
 151 -71 151 -71 154 -64 c 0,107,108
 163 -31 163 -31 179 -22 c 0,109,110
 180 -22 180 -22 180 -21 c 0,111,112
 188 10 188 10 198 24 c 0,113,114
 199 25 199 25 199 25 c 1,115,116
 217 59 217 59 251 150 c 0,117,118
 282 233 282 233 313 286 c 0,119,120
 314 287 314 287 315 288 c 0,121,122
 347 346 347 346 360 416 c 0,123,124
 360 418 360 418 361 419 c 0,125,126
 370 439 370 439 390 478 c 0,127,128
 415 530 415 530 419 537 c 0,129,130
 420 539 420 539 420 540 c 2,131,-1
 421 540 l 1,132,-1
 418 535 l 1,133,134
 437 591 437 591 466 617 c 2,135,-1
 472 622 l 1,136,-1
 463 614 l 1,137,138
 496 667 496 667 532 675 c 0,139,140
 534 675 534 675 537 675 c 0,141,142
 564 675 564 675 591 662 c 0,143,144
 617 650 617 650 635 625 c 0,145,146
 653 601 653 601 653 571 c 0,147,148
 653 570 653 570 653 563 c 256,149,150
 653 556 653 556 653 551 c 0,151,152
 652 547 652 547 651 540 c 0,153,154
 650 531 650 531 646 527 c 0,155,156
 642 522 642 522 637 517 c 0,157,158
 630 509 630 509 610 513 c 0,159,160
 603 514 603 514 599 519 c 0,32,33
EndSplineSet
EndChar

StartChar: Delta
Encoding: 8710 8710 129
Width: 513
GlyphClass: 2
Flags: W
LayerCount: 2
Fore
SplineSet
214 641 m 0,0,1
 228 628 228 628 228 620 c 0,2,3
 228 619 228 619 221 609 c 1,4,5
 221 609 221 609 185 481 c 1,6,-1
 186 482 l 1,7,8
 165 394 165 394 117 265 c 0,9,10
 62 113 62 113 62 102 c 1,11,12
 198 96 198 96 216 96 c 1,13,14
 215 96 215 96 214 96 c 1,15,16
 336 96 336 96 402 104 c 0,17,18
 404 104 404 104 406 103 c 0,19,20
 447 89 447 89 450.5 92.5 c 128,-1,21
 454 96 454 96 438 123 c 0,22,23
 432 133 432 133 429 140 c 0,24,25
 425 146 425 146 420 157 c 0,26,27
 414 168 414 168 411 179 c 0,28,29
 407 190 407 190 404 201 c 1,30,31
 405 200 405 200 405 199 c 1,32,33
 399 216 399 216 376 285 c 0,34,35
 354 354 354 354 339 391 c 0,36,37
 316 450 316 450 312 454 c 256,38,39
 308 458 308 458 307 461 c 2,40,-1
 273 551 l 1,41,-1
 274 550 l 1,42,-1
 242 617 l 1,43,-1
 219 665 l 1,44,-1
 203 696 l 1,45,-1
 205 695 l 1,46,-1
 203 701 l 2,47,48
 201 708 201 708 204 714 c 0,49,50
 207 721 207 721 214 722 c 0,51,52
 220 724 220 724 226 721 c 0,53,54
 233 717 233 717 235 711 c 2,55,-1
 237 706 l 1,56,-1
 272 631 l 1,57,-1
 304 562 l 2,58,59
 305 561 305 561 305 561 c 1,60,-1
 354 448 l 2,61,62
 360 434 360 434 361 430 c 0,63,64
 364 422 364 422 367 413 c 256,65,66
 370 404 370 404 371 401 c 0,67,68
 386 363 386 363 409 294 c 0,69,70
 437 209 437 209 437 209 c 2,71,72
 437 208 437 208 438 207 c 0,73,74
 438 203 438 203 448 185 c 0,75,76
 457 166 457 166 466 146 c 0,77,78
 474 126 474 126 479 105 c 0,79,80
 488 76 488 76 477 71 c 0,81,82
 457 61 457 61 448 56 c 0,83,84
 447 55 447 55 422 61 c 0,85,86
 397 66 397 66 396 66 c 2,87,-1
 388 69 l 1,88,-1
 400 65 l 1,89,90
 350 72 350 72 220 57 c 0,91,92
 219 57 219 57 218 57 c 2,93,-1
 56 55 l 2,94,95
 33 55 33 55 29 69 c 0,96,97
 20 112 20 112 34 165 c 1,98,99
 55 220 55 220 77 275 c 0,100,101
 117 378 117 378 121 390 c 2,102,-1
 195 622 l 1,103,-1
 202 640 l 1,104,105
 212 643 212 643 216 640 c 1,106,107
 209 645 209 645 214 641 c 0,0,1
EndSplineSet
EndChar

StartChar: logicalnot
Encoding: 172 172 130
Width: 424
GlyphClass: 2
Flags: W
LayerCount: 2
Fore
SplineSet
31 413 m 256,0,1
 32 420 32 420 37 424 c 0,2,3
 40 426 40 426 50 427 c 2,4,-1
 100 432 l 1,5,-1
 97 432 l 1,6,-1
 207 434 l 1,7,-1
 205 434 l 1,8,-1
 323 433 l 1,9,-1
 365 437 l 2,10,11
 372 438 372 438 378 433 c 0,12,13
 383 429 383 429 385 423 c 2,14,-1
 395 375 l 2,15,16
 395 373 395 373 395 372 c 2,17,-1
 397 318 l 2,18,19
 397 311 397 311 392 306 c 0,20,21
 388 301 388 301 381 301 c 0,22,23
 377 301 377 301 374 302.5 c 128,-1,24
 371 304 371 304 368 306 c 0,25,26
 366 309 366 309 364.5 312 c 128,-1,27
 363 315 363 315 363 318 c 2,28,-1
 360 402 l 1,29,-1
 329 399 l 1,30,-1
 211 387 l 2,31,32
 210 387 210 387 209 387 c 2,33,-1
 99 385 l 2,34,35
 98 385 98 385 96 385 c 2,36,-1
 46 393 l 2,37,38
 39 394 39 394 35 400 c 0,39,40
 30 406 30 406 31 413 c 256,0,1
EndSplineSet
EndChar

StartChar: uni03A9
Encoding: 937 937 131
Width: 633
GlyphClass: 2
Flags: W
LayerCount: 2
Fore
SplineSet
33 80 m 0,0,1
 33 84 33 84 36 88 c 0,2,3
 38 91 38 91 42 93 c 256,4,5
 46 95 46 95 51 94 c 0,6,7
 79 89 79 89 132 94 c 0,8,9
 167 97 167 97 160 99 c 0,10,11
 158 99 158 99 156 100 c 0,12,13
 16 231 16 231 14 400 c 0,14,15
 14 467 14 467 43 522 c 0,16,17
 71 577 71 577 118 612 c 256,18,19
 165 647 165 647 223 665 c 0,20,21
 281 684 281 684 342 684 c 0,22,23
 411 684 411 684 473 650 c 0,24,25
 535 615 535 615 573 556 c 0,26,27
 610 498 610 498 611 427 c 0,28,29
 611 376 611 376 586 323 c 0,30,31
 537 221 537 221 536 217 c 0,32,33
 511 169 511 169 481 135 c 0,34,35
 467 122 467 122 453 102 c 1,36,37
 460 105 460 105 473 108 c 0,38,39
 502 115 502 115 510 117 c 0,40,41
 532 124 532 124 532 124 c 1,42,43
 589 122 589 122 593 117 c 128,-1,44
 597 112 597 112 601 110 c 0,45,46
 606 109 606 109 609 106 c 0,47,48
 613 103 613 103 614 98 c 256,49,50
 615 93 615 93 614 89 c 256,51,52
 613 85 613 85 610 82 c 0,53,54
 605 77 605 77 603 77 c 0,55,56
 586 80 586 80 532 72 c 0,57,58
 513 69 513 69 494 67 c 0,59,60
 460 64 460 64 433 68 c 0,61,62
 427 69 427 69 422 74.5 c 128,-1,63
 417 80 417 80 417 86 c 0,64,65
 417 98 417 98 447 153 c 0,66,67
 471 196 471 196 502 239 c 0,68,69
 510 250 510 250 552 338 c 0,70,71
 576 389 576 389 576 429 c 0,72,73
 576 487 576 487 544 539 c 0,74,75
 511 590 511 590 458 620 c 0,76,77
 404 650 404 650 344 650 c 0,78,79
 267 650 267 650 201 621 c 0,80,81
 134 593 134 593 91 534 c 0,82,83
 49 476 49 476 49 398 c 0,84,85
 49 312 49 312 91 233 c 0,86,87
 136 152 136 152 205 100 c 0,88,89
 215 93 215 93 213 79 c 0,90,91
 211 67 211 67 199 62 c 0,92,93
 198 62 198 62 196 62 c 2,94,-1
 136 60 l 2,95,96
 73 58 73 58 48 60 c 0,97,98
 41 61 41 61 36.5 67 c 128,-1,99
 32 73 32 73 33 80 c 0,0,1
EndSplineSet
EndChar

StartChar: uniF8FF
Encoding: 63743 63743 132
Width: 595
GlyphClass: 2
Flags: W
LayerCount: 2
Fore
SplineSet
427 239 m 0,0,1
 422 220 422 220 401.5 213.5 c 128,-1,2
 381 207 381 207 368 220 c 256,3,4
 355 233 355 233 354 242 c 0,5,6
 353 253 353 253 362 267.5 c 128,-1,7
 371 282 371 282 380 285 c 0,8,9
 404 291 404 291 418.5 277 c 128,-1,10
 433 263 433 263 427 239 c 0,0,1
171 207 m 0,11,12
 152 214 152 214 148 235.5 c 128,-1,13
 144 257 144 257 159 268 c 256,14,15
 174 279 174 279 183 279 c 0,16,17
 193 279 193 279 207 268 c 128,-1,18
 221 257 221 257 222 248 c 0,19,20
 225 224 225 224 209.5 211 c 128,-1,21
 194 198 194 198 171 207 c 0,11,12
340 88 m 0,22,23
 411 99 411 99 466 140 c 0,24,25
 517 178 517 178 520.5 219 c 128,-1,26
 524 260 524 260 514 300 c 0,27,28
 498 360 498 360 412 423 c 1,29,30
 407 452 407 452 430 477 c 0,31,32
 441 489 441 489 463 511 c 2,33,-1
 499 549 l 1,34,35
 533 593 533 593 523 627 c 0,36,37
 518 645 518 645 506 651 c 0,38,39
 463 671 463 671 436 646 c 2,40,-1
 402 611 l 1,41,42
 363 563 363 563 366 440 c 1,43,-1
 353 430 l 1,44,45
 283 456 283 456 218 425 c 1,46,47
 177 432 177 432 177 435 c 0,48,49
 173 496 173 496 149 576 c 0,50,51
 131 635 131 635 108 646 c 0,52,53
 71 664 71 664 57 617 c 0,54,55
 44 571 44 571 64 534 c 1,56,-1
 97 489 l 1,57,-1
 118 458 l 2,58,59
 125 445 125 445 139 432 c 1,60,-1
 152 402 l 1,61,-1
 140 382 l 1,62,63
 107 357 107 357 88 316 c 0,64,65
 66 267 66 267 69 208.5 c 128,-1,66
 72 150 72 150 126 125 c 0,67,68
 187 96 187 96 259 83 c 0,69,70
 281 79 281 79 340 88 c 0,22,23
520 377 m 0,71,72
 543 350 543 350 560 256 c 0,73,74
 569 212 569 212 543 165 c 0,75,76
 518 119 518 119 410 68 c 0,77,78
 332 31 332 31 214 50 c 1,79,-1
 124 78 l 1,80,81
 28 116 28 116 24 207 c 0,82,83
 19 313 19 313 103 399 c 1,84,-1
 65 461 l 1,85,86
 19 522 19 522 16 561 c 0,87,88
 6 702 6 702 114 694 c 0,89,90
 141 692 141 692 166 637 c 0,91,92
 191 583 191 583 192 580 c 2,93,-1
 212 470 l 1,94,-1
 236 474 l 1,95,96
 291 488 291 488 334 478 c 1,97,98
 321 579 321 579 374 642 c 0,99,100
 407 681 407 681 438 690 c 0,101,102
 470 700 470 700 506 696 c 0,103,104
 550 692 550 692 557 649 c 0,105,106
 561 625 561 625 559 586 c 0,107,108
 557 554 557 554 491 479 c 1,109,-1
 450 440 l 1,110,111
 479 422 479 422 520 377 c 0,71,72
EndSplineSet
EndChar

StartChar: NameMe.160
Encoding: 65539 -1 133
Width: 595
GlyphClass: 2
Flags: W
LayerCount: 2
Fore
SplineSet
304 186 m 0,0,1
 287 189 287 189 270 192 c 2,2,3
 270 192 270 192 214 210 c 1,4,5
 214 210 214 210 178 225 c 1,6,7
 147 253 147 253 117 282 c 1,8,9
 136 297 136 297 153 297 c 0,10,11
 180 297 180 297 197 276 c 0,12,13
 222 244 222 244 302 222 c 1,14,-1
 353 240 l 1,15,16
 405 323 405 323 431 330 c 1,17,18
 431 330 431 330 452 306 c 1,19,20
 452 306 452 306 433 265 c 0,21,22
 433 264 433 264 396 229 c 0,23,24
 342 178 342 178 304 186 c 0,0,1
412 417 m 0,25,26
 407 398 407 398 386.5 391.5 c 128,-1,27
 366 385 366 385 353 398 c 256,28,29
 340 411 340 411 339 420 c 0,30,31
 338 431 338 431 347 445.5 c 128,-1,32
 356 460 356 460 365 463 c 0,33,34
 389 469 389 469 403.5 455 c 128,-1,35
 418 441 418 441 412 417 c 0,25,26
156 385 m 0,36,37
 137 392 137 392 133 413.5 c 128,-1,38
 129 435 129 435 144 446 c 256,39,40
 159 457 159 457 168 457 c 0,41,42
 178 457 178 457 192 446 c 128,-1,43
 206 435 206 435 207 426 c 0,44,45
 210 402 210 402 194.5 389 c 128,-1,46
 179 376 179 376 156 385 c 0,36,37
340 138 m 0,47,48
 400 146 400 146 464 210 c 0,49,50
 511 257 511 257 523.5 312.5 c 128,-1,51
 536 368 536 368 518 450 c 0,52,53
 514 471 514 471 470 516 c 0,54,55
 312 676 312 676 138 536 c 0,56,57
 104 509 104 509 87 477 c 0,58,59
 43 389 43 389 61 299 c 0,60,61
 74 237 74 237 133.5 187 c 128,-1,62
 193 137 193 137 259 133 c 0,63,64
 291 130 291 130 340 138 c 0,47,48
506 537 m 0,65,66
 549 494 549 494 560.5 406.5 c 128,-1,67
 572 319 572 319 543 255 c 0,68,69
 504 166 504 166 410.5 123 c 128,-1,70
 317 80 317 80 214 103 c 0,71,72
 176 111 176 111 156 122 c 0,73,74
 22 196 22 196 24 357 c 0,75,76
 24 398 24 398 33 438 c 128,-1,77
 42 478 42 478 56 500 c 0,78,79
 57 503 57 503 103 549 c 0,80,81
 240 686 240 686 381 624 c 0,82,83
 452 593 452 593 506 537 c 0,65,66
EndSplineSet
EndChar

StartChar: exclamdown
Encoding: 161 161 134
Width: 124
GlyphClass: 2
Flags: W
LayerCount: 2
Fore
SplineSet
82 415 m 0,0,1
 75 396 75 396 49 401.5 c 128,-1,2
 23 407 23 407 20 428 c 0,3,4
 18 444 18 444 28 458 c 128,-1,5
 38 472 38 472 53 475 c 0,6,7
 65 477 65 477 76.5 453 c 128,-1,8
 88 429 88 429 82 415 c 0,0,1
88 -33 m 0,9,10
 88 -61 88 -61 84 -69 c 256,11,12
 80 -77 80 -77 59 -73 c 0,13,14
 48 -71 48 -71 46 -62 c 0,15,16
 24 21 24 21 35 184 c 0,17,18
 35 188 35 188 34 318 c 0,19,20
 36 342 36 342 49 342 c 0,21,22
 61 342 61 342 64 327.5 c 128,-1,23
 67 313 67 313 68 252 c 0,24,25
 68 131 68 131 74 95 c 128,-1,26
 80 59 80 59 83 24 c 2,27,-1
 83 11 l 1,28,29
 88 -4 88 -4 88 -33 c 0,9,10
EndSplineSet
EndChar

StartChar: cent
Encoding: 162 162 135
Width: 357
GlyphClass: 2
Flags: W
LayerCount: 2
Fore
SplineSet
211 389 m 0,0,1
 213 394 213 394 212 400 c 1,2,3
 171 404 171 404 158 399 c 0,4,5
 40 350 40 350 67 169 c 0,6,7
 70 147 70 147 89 124 c 0,8,9
 104 105 104 105 132 86 c 0,10,11
 137 86 137 86 147 134 c 0,12,13
 180 290 180 290 211 389 c 0,0,1
257 528 m 1,14,15
 266 528 266 528 276 515 c 0,16,17
 284 505 284 505 282 497 c 0,18,19
 270 450 270 450 263 422 c 1,20,-1
 273 412 l 1,21,22
 331 381 331 381 328 334 c 0,23,24
 326 315 326 315 314 318 c 0,25,26
 307 319 307 319 307 320 c 0,27,28
 281 359 281 359 280 362 c 0,29,30
 270 376 270 376 250 384 c 1,31,32
 245 379 245 379 234 332 c 0,33,34
 176 103 176 103 173 74 c 0,35,36
 174 71 174 71 191 69 c 0,37,38
 212 67 212 67 242.5 81.5 c 128,-1,39
 273 96 273 96 286 117 c 0,40,41
 301 140 301 140 308 140 c 0,42,43
 312 140 312 140 313 130 c 0,44,45
 315 114 315 114 312 107 c 0,46,47
 276 27 276 27 179 34 c 1,48,-1
 160 38 l 1,49,50
 136 -35 136 -35 134 -38 c 0,51,52
 125 -56 125 -56 116 -56 c 0,53,54
 109 -56 109 -56 107 -42 c 128,-1,55
 105 -28 105 -28 109 -4 c 1,56,-1
 109 -1 l 1,57,58
 125 47 125 47 124 47 c 0,59,60
 -26 128 -26 128 41 344 c 0,61,62
 42 348 42 348 80.5 393 c 128,-1,63
 119 438 119 438 179 438 c 0,64,65
 200 438 200 438 221 438 c 1,66,67
 224 447 224 447 232 474 c 0,68,69
 243 512 243 512 257 528 c 1,14,15
EndSplineSet
EndChar

StartChar: sterling
Encoding: 163 163 136
Width: 497
GlyphClass: 2
Flags: W
LayerCount: 2
Fore
SplineSet
374 564 m 0,0,1
 391 550 391 550 421 488 c 0,2,3
 434 461 434 461 419 456 c 0,4,5
 402 445 402 445 396 449.5 c 128,-1,6
 390 454 390 454 389 468 c 0,7,8
 388 495 388 495 356 529 c 0,9,10
 333 553 333 553 319 558 c 0,11,12
 290 568 290 568 258 567 c 0,13,14
 218 566 218 566 206.5 559.5 c 128,-1,15
 195 553 195 553 182 536 c 0,16,17
 163 510 163 510 162 472 c 0,18,19
 160 434 160 434 179 409 c 1,20,-1
 195 379 l 1,21,-1
 224 332 l 1,22,23
 241 329 241 329 269 332 c 0,24,25
 312 337 312 337 328 330 c 0,26,27
 335 327 335 327 337.5 326 c 128,-1,28
 340 325 340 325 339.5 322 c 128,-1,29
 339 319 339 319 337 317.5 c 128,-1,30
 335 316 335 316 327 309 c 0,31,32
 306 293 306 293 278 295 c 0,33,34
 248 297 248 297 244 297 c 1,35,36
 248 297 248 297 248 256 c 0,37,38
 248 199 248 199 220 148 c 2,39,40
 220 148 220 148 198 108 c 1,41,42
 235 89 235 89 253 83 c 0,43,44
 329 58 329 58 346 60 c 0,45,46
 411 68 411 68 431 112 c 0,47,48
 445 144 445 144 462 116 c 0,49,50
 470 102 470 102 467.5 95 c 128,-1,51
 465 88 465 88 459.5 75.5 c 128,-1,52
 454 63 454 63 419.5 44 c 128,-1,53
 385 25 385 25 355 25 c 0,54,55
 327 25 327 25 266 40 c 0,56,57
 206 55 206 55 183 68 c 2,58,59
 183 68 183 68 169 76 c 1,60,61
 102 42 102 42 97 41 c 0,62,63
 51 37 51 37 33 82 c 0,64,65
 31 87 31 87 50.5 118.5 c 128,-1,66
 70 150 70 150 148 128 c 2,67,-1
 164 124 l 1,68,69
 215 219 215 219 206 271 c 0,70,71
 203 288 203 288 194 295 c 1,72,73
 150 295 150 295 106 295 c 0,74,75
 60 295 60 295 45 298 c 128,-1,76
 30 301 30 301 30 310 c 0,77,78
 30 323 30 323 52 325 c 0,79,80
 120 332 120 332 177 332 c 1,81,82
 172 339 172 339 168 346 c 0,83,84
 164 352 164 352 160.5 361 c 128,-1,85
 157 370 157 370 150 383 c 0,86,87
 112 454 112 454 128 508 c 0,88,89
 151 591 151 591 218 600 c 0,90,91
 247 605 247 605 274 603 c 0,92,93
 332 599 332 599 374 564 c 0,0,1
EndSplineSet
EndChar

StartChar: circumflex
Encoding: 710 710 137
Width: 314
GlyphClass: 2
Flags: W
LayerCount: 2
Fore
SplineSet
35 562 m 128,-1,1
 31 568 31 568 32.5 574.5 c 128,-1,2
 34 581 34 581 40 585 c 0,3,4
 62 598 62 598 95.5 635 c 128,-1,5
 129 672 129 672 143 684 c 0,6,7
 147 688 147 688 153 688 c 0,8,9
 165 688 165 688 180.5 675 c 128,-1,10
 196 662 196 662 207 647.5 c 128,-1,11
 218 633 218 633 229 617.5 c 128,-1,12
 240 602 240 602 241 601 c 1,13,14
 240 602 240 602 239 603 c 2,15,-1
 269 580 l 2,16,17
 275 576 275 576 276 569 c 128,-1,18
 277 562 277 562 273 556.5 c 128,-1,19
 269 551 269 551 262 550 c 128,-1,20
 255 549 255 549 249 554 c 2,21,-1
 219 577 l 2,22,23
 218 578 218 578 217 579 c 0,24,25
 211 585 211 585 203 595 c 128,-1,26
 195 605 195 605 187.5 615 c 128,-1,27
 180 625 180 625 173.5 634 c 128,-1,28
 167 643 167 643 163 648 c 2,29,-1
 159 654 l 2,30,31
 158 652 158 652 143 634.5 c 128,-1,32
 128 617 128 617 118 606 c 128,-1,33
 108 595 108 595 90.5 579.5 c 128,-1,34
 73 564 73 564 58 555 c 0,35,36
 53 552 53 552 46 554 c 128,-1,0
 39 556 39 556 35 562 c 128,-1,1
EndSplineSet
EndChar

StartChar: registered
Encoding: 174 174 138
Width: 595
GlyphClass: 2
Flags: W
LayerCount: 2
Fore
SplineSet
340 138 m 0,0,1
 400 146 400 146 464 210 c 0,2,3
 511 257 511 257 523.5 312.5 c 128,-1,4
 536 368 536 368 518 450 c 0,5,6
 514 471 514 471 470 516 c 0,7,8
 312 676 312 676 138 536 c 0,9,10
 104 509 104 509 87 477 c 0,11,12
 43 389 43 389 61 299 c 0,13,14
 74 237 74 237 133.5 187 c 128,-1,15
 193 137 193 137 259 133 c 0,16,17
 291 130 291 130 340 138 c 0,0,1
506 537 m 0,18,19
 549 494 549 494 560.5 406.5 c 128,-1,20
 572 319 572 319 543 255 c 0,21,22
 504 166 504 166 410.5 123 c 128,-1,23
 317 80 317 80 214 103 c 0,24,25
 176 111 176 111 156 122 c 0,26,27
 22 196 22 196 24 357 c 0,28,29
 24 398 24 398 33 438 c 128,-1,30
 42 478 42 478 56 500 c 0,31,32
 57 503 57 503 103 549 c 0,33,34
 240 686 240 686 381 624 c 0,35,36
 452 593 452 593 506 537 c 0,18,19
224 364 m 0,37,38
 225 365 225 365 239 365 c 0,39,40
 271 364 271 364 304 372 c 0,41,42
 366 388 366 388 361 433 c 0,43,44
 359 451 359 451 350 462 c 0,45,46
 333 482 333 482 298 491 c 256,47,48
 263 500 263 500 236 492 c 0,49,50
 218 487 218 487 214 482 c 0,51,52
 213 413 213 413 214 315 c 0,53,54
 215 244 215 244 209 236 c 0,55,56
 198 221 198 221 180 232 c 0,57,58
 176 234 176 234 176 323 c 0,59,60
 176 474 176 474 175 474 c 1,61,62
 175 480 175 480 174 481 c 0,63,64
 168 485 168 485 162 488 c 1,65,-1
 165 498 l 1,66,-1
 176 501 l 1,67,68
 242 547 242 547 314 521 c 0,69,70
 358 505 358 505 368 496 c 0,71,72
 385 482 385 482 388 463 c 0,73,74
 390 451 390 451 390 424 c 0,75,76
 389 356 389 356 311 345 c 2,77,-1
 295 343 l 1,78,-1
 372 295 l 1,79,80
 425 267 425 267 415 255 c 1,81,-1
 405 248 l 2,82,83
 391 242 391 242 389 243 c 256,84,85
 387 244 387 244 366 257 c 0,86,87
 212 355 212 355 224 364 c 0,37,38
EndSplineSet
EndChar

StartChar: yen
Encoding: 165 165 139
Width: 485
GlyphClass: 2
Flags: W
LayerCount: 2
Fore
SplineSet
94 202 m 0,0,1
 94 216 94 216 117 216 c 0,2,3
 151 216 151 216 247 218 c 0,4,5
 407 225 407 225 418 208 c 0,6,7
 423 200 423 200 416 192 c 0,8,9
 408 183 408 183 292 182 c 0,10,11
 114 182 114 182 100 188 c 0,12,13
 94 190 94 190 94 202 c 0,0,1
82 303 m 256,14,15
 82 315 82 315 105 318 c 0,16,17
 223 318 223 318 245 320 c 0,18,19
 445 338 445 338 438 300 c 0,20,21
 438 297 438 297 434 293 c 0,22,23
 425 284 425 284 290 284 c 0,24,25
 106 283 106 283 88 289 c 0,26,27
 82 291 82 291 82 303 c 256,14,15
32 526 m 0,28,29
 32 557 32 557 35 560 c 2,30,-1
 49 570 l 1,31,32
 63 566 63 566 64 554 c 0,33,34
 67 520 67 520 79 504 c 0,35,36
 126 434 126 434 149 412 c 0,37,38
 229 336 229 336 252 328 c 1,39,40
 273 338 273 338 338 422 c 0,41,42
 419 528 419 528 416 565 c 0,43,44
 415 589 415 589 436 575 c 0,45,46
 453 564 453 564 451 546 c 0,47,48
 447 509 447 509 430 482 c 0,49,50
 367 387 367 387 364 384 c 0,51,52
 332 347 332 347 313 328 c 0,53,54
 279 296 279 296 270 296 c 1,55,56
 271 263 271 263 271 151 c 0,57,58
 271 79 271 79 268.5 61 c 128,-1,59
 266 43 266 43 256 43 c 0,60,61
 242 43 242 43 236 84 c 128,-1,62
 230 125 230 125 235 193 c 0,63,64
 242 284 242 284 236 296 c 1,65,66
 204 313 204 313 173 344 c 2,67,-1
 114 409 l 2,68,69
 32 503 32 503 32 526 c 0,28,29
EndSplineSet
EndChar

StartChar: section
Encoding: 167 167 140
Width: 404
GlyphClass: 2
Flags: W
LayerCount: 2
Fore
SplineSet
330 450 m 0,0,1
 313 450 313 450 320 480 c 0,2,3
 324 497 324 497 320 506 c 0,4,5
 314 518 314 518 300 525 c 0,6,7
 206 571 206 571 134 519 c 0,8,9
 109 501 109 501 113 485 c 0,10,11
 132 414 132 414 270 356 c 0,12,13
 303 343 303 343 318 332 c 0,14,15
 362 299 362 299 372 243.5 c 128,-1,16
 382 188 382 188 350 150 c 0,17,18
 334 132 334 132 295 126 c 0,19,20
 281 124 281 124 296 112 c 0,21,22
 355 66 355 66 348 -11 c 0,23,24
 339 -108 339 -108 160 -106 c 0,25,26
 119 -105 119 -105 84 -79 c 0,27,28
 60 -62 60 -62 50.5 -32.5 c 128,-1,29
 41 -3 41 -3 49.5 21 c 128,-1,30
 58 45 58 45 81 48 c 0,31,32
 96 50 96 50 97.5 45.5 c 128,-1,33
 99 41 99 41 92 17 c 0,34,35
 63 -83 63 -83 238 -60 c 0,36,37
 275 -55 275 -55 293 -19 c 0,38,39
 322 43 322 43 287 78 c 0,40,41
 264 100 264 100 209 125 c 0,42,43
 167 145 167 145 108 190 c 0,44,45
 59 228 59 228 45 251 c 0,46,47
 19 292 19 292 37 337 c 0,48,49
 52 374 52 374 106 388 c 0,50,51
 114 390 114 390 113 379 c 0,52,53
 111 365 111 365 89 344 c 0,54,55
 61 319 61 319 65 303 c 0,56,57
 78 246 78 246 106 229 c 0,58,59
 141 208 141 208 177 188 c 0,60,61
 250 149 250 149 259 141 c 0,62,63
 267 133 267 133 290 148 c 0,64,65
 315 164 315 164 327 183 c 0,66,67
 347 213 347 213 340 230 c 0,68,69
 327 265 327 265 326 268 c 0,70,71
 306 310 306 310 160 370 c 0,72,73
 130 382 130 382 113 406 c 0,74,75
 99 425 99 425 93 444 c 0,76,77
 59 560 59 560 170 580 c 0,78,79
 225 590 225 590 288 572 c 0,80,81
 367 550 367 550 362 492 c 0,82,83
 361 473 361 473 353 463 c 0,84,85
 344 450 344 450 330 450 c 0,0,1
EndSplineSet
EndChar

StartChar: integral
Encoding: 8747 8747 141
Width: 372
GlyphClass: 2
Flags: W
LayerCount: 2
Fore
SplineSet
318 702 m 1,0,1
 318 697 318 697 305 709 c 0,2,3
 301 712 301 712 301 713 c 0,4,5
 302 743 302 743 258 745 c 0,6,7
 240 746 240 746 220 729 c 0,8,9
 206 717 206 717 194 706 c 1,10,11
 196 708 196 708 197 710 c 2,12,-1
 179 672 l 2,13,14
 180 673 180 673 181 677 c 2,15,-1
 175 627 l 1,16,-1
 175 628 l 1,17,-1
 169 526 l 1,18,-1
 165 441 l 1,19,-1
 165 442 l 1,20,-1
 171 248 l 1,21,-1
 175 182 l 1,22,23
 175 182 175 182 175 181 c 2,24,-1
 175 -25 l 1,25,-1
 175 -24 l 2,26,27
 176 -51 176 -51 171 -94 c 1,28,-1
 171 -93 l 2,29,30
 170 -127 170 -127 146 -152 c 0,31,32
 121 -179 121 -179 91 -179 c 0,33,34
 80 -179 80 -179 71 -175.5 c 128,-1,35
 62 -172 62 -172 56 -166.5 c 128,-1,36
 50 -161 50 -161 45 -155 c 0,37,38
 40 -148 40 -148 38 -143 c 0,39,40
 35 -137 35 -137 33 -133 c 0,41,42
 31 -128 31 -128 30 -128 c 0,43,44
 23 -121 23 -121 25 -111 c 2,45,-1
 31 -87 l 2,46,47
 33 -80 33 -80 39 -77 c 256,48,49
 45 -74 45 -74 52 -76 c 0,50,51
 56 -77 56 -77 60 -80 c 0,52,53
 63 -84 63 -84 64 -88 c 0,54,55
 66 -92 66 -92 65 -97 c 2,56,-1
 60 -114 l 2,57,58
 60 -115 60 -115 65 -122 c 0,59,60
 69 -129 69 -129 70 -131 c 0,61,62
 72 -134 72 -134 75 -138 c 0,63,64
 79 -142 79 -142 82 -143 c 0,65,66
 85 -145 85 -145 89 -145 c 0,67,68
 103 -145 103 -145 120 -127 c 256,69,70
 137 -109 137 -109 137 -91 c 0,71,72
 137 -90 137 -90 137 -90 c 1,73,74
 142 -33 142 -33 141 -24 c 2,75,76
 141 -24 141 -24 141 -23 c 2,77,-1
 141 183 l 1,78,-1
 141 182 l 1,79,-1
 137 248 l 1,80,-1
 131 442 l 2,81,82
 131 443 131 443 131 443 c 1,83,-1
 135 530 l 1,84,-1
 141 632 l 1,85,86
 141 632 141 632 141 633 c 2,87,-1
 147 683 l 2,88,89
 147 685 147 685 149 688 c 2,90,-1
 167 726 l 2,91,92
 168 728 168 728 170 730 c 0,93,94
 182 743 182 743 196 755 c 0,95,96
 227 781 227 781 258 779 c 0,97,98
 288 777 288 777 312 760 c 0,99,100
 336 742 336 742 335 711 c 0,101,102
 335 708 335 708 323 702 c 0,103,104
 318 700 318 700 318 702 c 1,0,1
EndSplineSet
EndChar

StartChar: copyright
Encoding: 169 169 142
Width: 604
GlyphClass: 2
Flags: W
LayerCount: 2
Fore
SplineSet
292 216 m 0,0,1
 336 216 336 216 362 234 c 0,2,3
 385 250 385 250 381 256 c 0,4,5
 378 260 378 260 385 260 c 0,6,7
 387 258 387 258 391 258 c 0,8,9
 418 248 418 248 401 220 c 0,10,11
 385 196 385 196 350 186 c 0,12,13
 275 165 275 165 216 208 c 0,14,15
 183 232 183 232 172 258 c 0,16,17
 150 310 150 310 176.5 374 c 128,-1,18
 203 438 203 438 253 454 c 0,19,20
 282 464 282 464 314 460 c 0,21,22
 341 456 341 456 381 420 c 1,23,24
 397 393 397 393 397 392 c 0,25,26
 397 388 397 388 393 380 c 0,27,28
 386 370 386 370 393 370 c 1,29,30
 378 372 378 372 356 398 c 0,31,32
 331 426 331 426 298 427 c 128,-1,33
 265 428 265 428 241 406.5 c 128,-1,34
 217 385 217 385 204 350 c 0,35,36
 176 280 176 280 243 234 c 0,37,38
 268 216 268 216 292 216 c 0,0,1
344 90 m 0,39,40
 404 98 404 98 468 162 c 0,41,42
 515 208 515 208 527.5 264 c 128,-1,43
 540 320 540 320 522 402 c 0,44,45
 518 422 518 422 474 468 c 0,46,47
 411 531 411 531 370 544 c 0,48,49
 284 572 284 572 218 532 c 1,50,51
 179 516 179 516 142.5 487 c 128,-1,52
 106 458 106 458 91 428 c 0,53,54
 47 340 47 340 65 250 c 0,55,56
 78 188 78 188 137.5 138 c 128,-1,57
 197 88 197 88 263 84 c 0,58,59
 295 81 295 81 344 90 c 0,39,40
510 488 m 0,60,61
 553 446 553 446 564.5 358 c 128,-1,62
 576 270 576 270 547 206 c 0,63,64
 508 118 508 118 414.5 75 c 128,-1,65
 321 32 321 32 218 54 c 0,66,67
 180 62 180 62 160 73 c 128,-1,68
 140 84 140 84 111 114 c 0,69,70
 61 162 61 162 44 202 c 128,-1,71
 27 242 27 242 28 308 c 0,72,73
 28 350 28 350 37 390 c 128,-1,74
 46 430 46 430 60 452 c 0,75,76
 61 454 61 454 107 500 c 0,77,78
 244 637 244 637 385 576 c 0,79,80
 456 545 456 545 510 488 c 0,60,61
EndSplineSet
EndChar

StartChar: trademark
Encoding: 8482 8482 143
Width: 481
GlyphClass: 2
Flags: W
LayerCount: 2
Fore
SplineSet
254 581 m 1,0,1
 254 581 254 581 313 488 c 0,2,3
 324 471 324 471 329 472 c 1,4,5
 329 472 329 472 365 563 c 1,6,7
 365 563 365 563 374 580 c 0,8,9
 378 590 378 590 413 586 c 1,10,-1
 429 548 l 1,11,-1
 453 409 l 1,12,13
 447 392 447 392 435 396 c 0,14,15
 414 402 414 402 414 429 c 1,16,-1
 405 470 l 1,17,-1
 390 548 l 1,18,19
 385 535 385 535 355 448 c 0,20,21
 354 445 354 445 325 432 c 1,22,23
 325 432 325 432 313 433 c 256,24,25
 301 434 301 434 252 512 c 0,26,27
 244 525 244 525 244 515 c 2,28,29
 244 515 244 515 242 504 c 2,30,-1
 230 427 l 2,31,32
 225 397 225 397 208 397 c 0,33,34
 193 397 193 397 196 427 c 0,35,36
 198 454 198 454 199 469 c 0,37,38
 203 567 203 567 228 582 c 0,39,40
 254 598 254 598 254 581 c 1,0,1
188 575 m 0,41,42
 191 550 191 550 186 548 c 0,43,44
 184 547 184 547 172 549 c 0,45,46
 152 551 152 551 116 548 c 1,47,48
 117 478 117 478 115 460 c 0,49,50
 113 429 113 429 111 397 c 1,51,52
 78 394 78 394 78 403 c 0,53,54
 82 469 82 469 86 510 c 2,55,56
 86 510 86 510 87 521 c 2,57,-1
 89 547 l 1,58,-1
 67 546 l 2,59,60
 41 545 41 545 34 545 c 0,61,62
 26 546 26 546 25 549 c 0,63,64
 19 573 19 573 25 578 c 1,65,66
 24 578 24 578 37 579 c 0,67,68
 50 579 50 579 68 580 c 128,-1,69
 86 581 86 581 105 581 c 0,70,71
 123 582 123 582 136 582 c 0,72,73
 186 585 186 585 188 575 c 0,41,42
EndSplineSet
EndChar

StartChar: guillemotleft
Encoding: 171 171 144
Width: 377
GlyphClass: 2
Flags: W
LayerCount: 2
Fore
SplineSet
325.5 431.5 m 128,-1,1
 332 430 332 430 337 424 c 2,2,3
 337 424 337 424 343 412 c 1,4,5
 336 397 336 397 328 382 c 0,6,7
 314 354 314 354 297 327 c 128,-1,8
 280 300 280 300 282 300 c 1,9,10
 282 292 282 292 260 258 c 0,11,12
 235 217 235 217 236 214 c 0,13,14
 248 190 248 190 298 147 c 0,15,16
 305 141 305 141 312 125 c 0,17,18
 316 117 316 117 324 114 c 0,19,20
 330 111 330 111 342 90 c 0,21,22
 355 68 355 68 343 59 c 0,23,24
 331 51 331 51 320 67 c 0,25,26
 318 70 318 70 296 94 c 0,27,28
 284 106 284 106 256 140 c 2,29,-1
 210 197 l 1,30,31
 199 219 199 219 205 236 c 0,32,33
 214 260 214 260 255 328 c 0,34,0
 319 433 319 433 325.5 431.5 c 128,-1,1
30 225 m 0,35,36
 30 233 30 233 44.5 259 c 128,-1,37
 59 285 59 285 69 295 c 0,38,39
 92 320 92 320 125.5 366.5 c 128,-1,40
 159 413 159 413 169 436 c 1,41,42
 183 416 183 416 182.5 399.5 c 128,-1,43
 182 383 182 383 160 356 c 0,44,45
 100 282 100 282 66 226 c 1,46,-1
 95 195 l 2,47,48
 200 83 200 83 198 63 c 0,49,50
 197 56 197 56 184 55 c 0,51,52
 167 53 167 53 135 92 c 0,53,54
 131 97 131 97 85 150 c 128,-1,55
 39 203 39 203 30 225 c 0,35,36
EndSplineSet
EndChar

StartChar: infinity
Encoding: 8734 8734 145
Width: 591
GlyphClass: 2
Flags: W
LayerCount: 2
Fore
SplineSet
532 318 m 0,0,1
 532 347 532 347 504 378 c 0,2,3
 490 394 490 394 465 408 c 0,4,5
 437 423 437 423 406 424 c 0,6,7
 388 425 388 425 354 404 c 0,8,9
 314 378 314 378 306 362 c 0,10,11
 289 331 289 331 291 306 c 256,12,13
 293 281 293 281 313 238 c 0,14,15
 334 194 334 194 360 180 c 256,16,17
 386 166 386 166 430 175 c 0,18,19
 467 183 467 183 494 204 c 0,20,21
 522 226 522 226 528 254 c 0,22,23
 533 272 533 272 532 318 c 0,0,1
69 344 m 0,24,25
 48 274 48 274 71.5 229 c 128,-1,26
 95 184 95 184 153 185 c 0,27,28
 204 187 204 187 235 234 c 1,29,-1
 247 270 l 2,30,31
 261 314 261 314 215 362 c 0,32,33
 175 404 175 404 146 402 c 0,34,35
 86 399 86 399 69 344 c 0,24,25
138 445 m 0,36,37
 189 445 189 445 208 427 c 2,38,-1
 237 401 l 1,39,-1
 265 363 l 1,40,41
 267 369 267 369 310 414 c 0,42,43
 353 463 353 463 424 463 c 0,44,45
 463 464 463 464 501 430 c 0,46,47
 568 370 568 370 573 311 c 0,48,49
 577 240 577 240 517 181 c 0,50,51
 481 144 481 144 431 134 c 0,52,53
 355 120 355 120 313 169 c 0,54,55
 287 200 287 200 284 211 c 2,56,-1
 270 253 l 1,57,58
 270 224 270 224 254 198 c 1,59,-1
 225 165 l 1,60,61
 192 145 192 145 149 144 c 0,62,63
 68 143 68 143 35 210 c 0,64,65
 18 245 18 245 21 304 c 0,66,67
 24 358 24 358 71 405 c 0,68,69
 109 444 109 444 138 445 c 0,36,37
EndSplineSet
EndChar

StartChar: dotaccent
Encoding: 729 729 146
Width: 124
GlyphClass: 2
Flags: W
LayerCount: 2
Fore
SplineSet
46 604 m 0,0,1
 28 611 28 611 24 632.5 c 128,-1,2
 20 654 20 654 35 665 c 0,3,4
 49 676 49 676 58 676 c 0,5,6
 69 676 69 676 82.5 665 c 128,-1,7
 96 654 96 654 98 645 c 0,8,9
 101 621 101 621 85 608 c 128,-1,10
 69 595 69 595 46 604 c 0,0,1
EndSplineSet
EndChar

StartChar: periodcentered
Encoding: 183 183 147
Width: 132
GlyphClass: 2
Flags: W
LayerCount: 2
Fore
SplineSet
54 254 m 0,0,1
 36 261 36 261 32 282.5 c 128,-1,2
 28 304 28 304 43 315 c 0,3,4
 57 326 57 326 66 326 c 0,5,6
 77 326 77 326 90.5 315 c 128,-1,7
 104 304 104 304 106 295 c 0,8,9
 109 271 109 271 93 258 c 128,-1,10
 77 245 77 245 54 254 c 0,0,1
EndSplineSet
EndChar

StartChar: paragraph
Encoding: 182 182 148
Width: 391
GlyphClass: 2
Flags: W
LayerCount: 2
Fore
SplineSet
217 587 m 2,0,1
 218 604 218 604 204 605 c 0,2,3
 189 606 189 606 188 591 c 0,4,5
 188 576 188 576 184 578 c 0,6,7
 156 585 156 585 124 573 c 0,8,9
 71 553 71 553 42 491 c 0,10,11
 -8 386 -8 386 47 318 c 0,12,13
 81 275 81 275 92 266 c 0,14,15
 121 241 121 241 139 237 c 2,16,-1
 164 233 l 1,17,-1
 195 233 l 1,18,-1
 196 216 l 2,19,20
 197 209 197 209 197 142 c 0,21,22
 197 36 197 36 212 23 c 0,23,24
 221 15 221 15 224.5 15.5 c 128,-1,25
 228 16 228 16 231 24 c 0,26,27
 238 44 238 44 232 224 c 0,28,29
 227 415 227 415 227 494 c 0,30,31
 227 508 227 508 227 521 c 1,32,-1
 278 518 l 1,33,34
 269 341 269 341 276 246 c 1,35,-1
 279 35 l 1,36,37
 279 35 279 35 293 19 c 1,38,39
 325 14 325 14 325 28 c 0,40,41
 311 239 311 239 309 292 c 0,42,43
 306 381 306 381 308 515 c 1,44,-1
 347 513 l 2,45,46
 382 512 382 512 352 556 c 1,47,-1
 219 571 l 1,48,-1
 217 587 l 2,0,1
EndSplineSet
EndChar

StartChar: degree
Encoding: 176 176 149
Width: 279
GlyphClass: 2
Flags: W
LayerCount: 2
Fore
SplineSet
198 486 m 0,0,1
 193 512 193 512 179 518 c 0,2,3
 148 530 148 530 134 539 c 0,4,5
 119 547 119 547 99 522 c 0,6,7
 86 506 86 506 81 478 c 0,8,9
 76 455 76 455 94 441 c 0,10,11
 118 421 118 421 143 419 c 0,12,13
 152 418 152 418 183 434 c 0,14,15
 198 442 198 442 200 452 c 0,16,17
 202 468 202 468 198 486 c 0,0,1
99 385 m 0,18,19
 45 405 45 405 33.5 466.5 c 128,-1,20
 22 528 22 528 66 560 c 0,21,22
 108 593 108 593 133 592 c 0,23,24
 164 591 164 591 203.5 560 c 128,-1,25
 243 529 243 529 248 503 c 0,26,27
 257 433 257 433 211 397 c 128,-1,28
 165 361 165 361 99 385 c 0,18,19
EndSplineSet
EndChar

StartChar: guilsinglleft
Encoding: 8249 8249 150
Width: 228
GlyphClass: 2
Flags: W
LayerCount: 2
Fore
SplineSet
30 225 m 0,0,1
 30 233 30 233 44.5 259 c 128,-1,2
 59 285 59 285 69 295 c 0,3,4
 92 320 92 320 125.5 366.5 c 128,-1,5
 159 413 159 413 169 436 c 1,6,7
 183 416 183 416 182.5 399.5 c 128,-1,8
 182 383 182 383 160 356 c 0,9,10
 100 282 100 282 66 226 c 1,11,-1
 95 195 l 2,12,13
 200 83 200 83 198 63 c 0,14,15
 197 56 197 56 184 55 c 0,16,17
 167 53 167 53 135 92 c 0,18,19
 131 97 131 97 85 150 c 128,-1,20
 39 203 39 203 30 225 c 0,0,1
EndSplineSet
EndChar

StartChar: guilsinglright
Encoding: 8250 8250 151
Width: 199
GlyphClass: 2
Flags: W
LayerCount: 2
Fore
SplineSet
63 410 m 1,0,1
 58 409 58 409 99 341 c 128,-1,2
 140 273 140 273 171 229 c 1,3,4
 153 195 153 195 117 132.5 c 128,-1,5
 81 70 81 70 73 55 c 0,6,7
 67 38 67 38 53.5 38.5 c 128,-1,8
 40 39 40 39 34 49 c 0,9,10
 34 55 34 55 69 120 c 128,-1,11
 104 185 104 185 112 193 c 0,12,13
 134 215 134 215 90 291 c 0,14,15
 24 402 24 402 31 415 c 0,16,17
 36 423 36 423 49.5 421.5 c 128,-1,18
 63 420 63 420 63 410 c 1,0,1
EndSplineSet
EndChar

StartChar: fraction
Encoding: 8260 8260 152
Width: 489
GlyphClass: 2
Flags: W
LayerCount: 2
Fore
SplineSet
335 402 m 0,0,1
 185 208 185 208 79 82 c 0,2,3
 43 39 43 39 28 46 c 0,4,5
 21 49 21 49 31 72 c 0,6,7
 40 96 40 96 67 129 c 0,8,9
 158 241 158 241 169 254 c 2,10,-1
 387 531 l 2,11,12
 428 582 428 582 437 594 c 0,13,14
 442 600 442 600 447 607 c 1,15,-1
 453 607 l 1,16,17
 453 607 453 607 459 596 c 0,18,19
 467 581 467 581 459 563 c 256,20,21
 451 545 451 545 403 486 c 0,22,23
 341 410 341 410 335 402 c 0,0,1
EndSplineSet
EndChar

StartChar: Aring
Encoding: 197 197 153
Width: 538
GlyphClass: 2
Flags: W
LayerCount: 2
Fore
SplineSet
352 744 m 0,0,1
 337 743 337 743 333 725 c 0,2,3
 313 650 313 650 386 666 c 0,4,5
 395 669 395 669 406 688 c 0,6,7
 412 699 412 699 411 705 c 0,8,9
 403 752 403 752 352 744 c 0,0,1
366 629 m 0,10,11
 324 629 324 629 301 669 c 256,12,13
 278 709 278 709 300 744 c 0,14,15
 319 777 319 777 337 784 c 0,16,17
 358 792 358 792 393 780 c 0,18,19
 421 770 421 770 431 751 c 0,20,21
 455 704 455 704 434 666 c 0,22,23
 414 629 414 629 366 629 c 0,10,11
380.5 548 m 128,-1,25
 377 548 377 548 365 529 c 0,26,27
 343 496 343 496 337 486 c 2,28,-1
 200 283 l 2,29,30
 185 260 185 260 188 260 c 2,31,-1
 210 263 l 2,32,33
 260 270 260 270 282 270 c 2,34,-1
 375 271 l 2,35,36
 405 272 405 272 408 273 c 2,37,-1
 403 329 l 1,38,-1
 396 436 l 1,39,40
 386 497 386 497 385 521 c 0,41,24
 384 548 384 548 380.5 548 c 128,-1,25
272 226 m 0,42,43
 209 229 209 229 202 230 c 0,44,45
 175 230 175 230 162 228 c 0,46,47
 158 224 158 224 138 192 c 0,48,49
 130 180 130 180 97 121 c 2,50,-1
 79 88 l 2,51,52
 67 66 67 66 64 61 c 0,53,54
 56 43 56 43 42 43 c 0,55,56
 34 43 34 43 31.5 52 c 128,-1,57
 29 61 29 61 32 72 c 0,58,59
 41 100 41 100 64 134 c 2,60,-1
 97 184 l 2,61,62
 121 220 121 220 122 223 c 2,63,-1
 98 222 l 2,64,65
 78 219 78 219 68 238 c 0,66,67
 63 248 63 248 69 254 c 0,68,69
 70 255 70 255 100 256 c 2,70,-1
 144 258 l 1,71,72
 256 441 256 441 321 524 c 0,73,74
 350 561 350 561 350 571.5 c 128,-1,75
 350 582 350 582 360 592 c 128,-1,76
 370 602 370 602 384 602 c 0,77,78
 397 603 397 603 399 594 c 0,79,80
 422 509 422 509 428 472 c 0,81,82
 435 432 435 432 443 300 c 0,83,84
 446 252 446 252 448.5 222.5 c 128,-1,85
 451 193 451 193 455.5 159 c 128,-1,86
 460 125 460 125 463 89 c 0,87,88
 467 44 467 44 465.5 34.5 c 128,-1,89
 464 25 464 25 451 27 c 0,90,91
 432 29 432 29 431 63 c 0,92,93
 430 91 430 91 428 102.5 c 128,-1,94
 426 114 426 114 422 131 c 128,-1,95
 418 148 418 148 414 180 c 0,96,97
 409 222 409 222 404 233 c 1,98,99
 395 232 395 232 386 232 c 0,100,101
 288 225 288 225 272 226 c 0,42,43
EndSplineSet
EndChar

StartChar: eacute
Encoding: 233 233 154
Width: 421
GlyphClass: 2
Flags: W
LayerCount: 2
Fore
SplineSet
237 584 m 0,0,1
 268 600 268 600 275 586 c 0,2,3
 283 570 283 570 281 567 c 0,4,5
 278 562 278 562 255 550 c 2,6,7
 255 550 255 550 230 536 c 1,8,9
 202 511 202 511 158 492 c 0,10,11
 130 479 130 479 122 486 c 0,12,13
 114 492 114 492 117 499 c 0,14,15
 120 505 120 505 137 519 c 0,16,17
 177 553 177 553 237 584 c 0,0,1
290 375 m 0,18,19
 226 437 226 437 151 398 c 0,20,21
 138 391 138 391 114 366 c 0,22,23
 90 340 90 340 84 314 c 2,24,-1
 80 286 l 1,25,-1
 117 270 l 2,26,27
 173 250 173 250 231 258 c 0,28,29
 303 267 303 267 320 296 c 0,30,31
 331 315 331 315 324 332 c 128,-1,32
 317 349 317 349 290 375 c 0,18,19
300 236 m 128,-1,34
 214 200 214 200 124 228 c 0,35,36
 108 233 108 233 78 245 c 1,37,-1
 82 229 l 1,38,39
 122 138 122 138 185 117 c 0,40,41
 240 98 240 98 290 118 c 0,42,43
 337 135 337 135 346 168 c 0,44,45
 353 194 353 194 373 186 c 0,46,47
 383 182 383 182 383 161 c 128,-1,48
 383 140 383 140 347 110.5 c 128,-1,49
 311 81 311 81 275 74 c 0,50,51
 175 54 175 54 107 118 c 0,52,53
 42 180 42 180 42 256 c 1,54,-1
 36 256 l 1,55,56
 19 305 19 305 44 298 c 1,57,-1
 55 346 l 1,58,59
 80 390 80 390 102 408 c 0,60,61
 200 484 200 484 297 417 c 0,62,63
 337 389 337 389 352 355 c 0,64,33
 386 272 386 272 300 236 c 128,-1,34
EndSplineSet
EndChar

StartChar: egrave
Encoding: 232 232 155
Width: 421
GlyphClass: 2
Flags: W
LayerCount: 2
Fore
SplineSet
161 555 m 0,0,1
 133 577 133 577 143 589 c 0,2,3
 155 602 155 602 159 602 c 0,4,5
 164 601 164 601 185 584 c 2,6,7
 185 584 185 584 207 567 c 1,8,9
 241 552 241 552 276 519 c 0,10,11
 299 498 299 498 296 487 c 0,12,13
 293 478 293 478 286 478 c 0,14,15
 279 479 279 479 260 488 c 0,16,17
 212 512 212 512 161 555 c 0,0,1
290 375 m 0,18,19
 226 437 226 437 151 398 c 0,20,21
 138 391 138 391 114 366 c 0,22,23
 90 340 90 340 84 314 c 2,24,-1
 80 286 l 1,25,-1
 117 270 l 2,26,27
 173 250 173 250 231 258 c 0,28,29
 303 267 303 267 320 296 c 0,30,31
 331 315 331 315 324 332 c 128,-1,32
 317 349 317 349 290 375 c 0,18,19
300 236 m 128,-1,34
 214 200 214 200 124 228 c 0,35,36
 108 233 108 233 78 245 c 1,37,-1
 82 229 l 1,38,39
 122 138 122 138 185 117 c 0,40,41
 240 98 240 98 290 118 c 0,42,43
 337 135 337 135 346 168 c 0,44,45
 353 194 353 194 373 186 c 0,46,47
 383 182 383 182 383 161 c 128,-1,48
 383 140 383 140 347 110.5 c 128,-1,49
 311 81 311 81 275 74 c 0,50,51
 175 54 175 54 107 118 c 0,52,53
 42 180 42 180 42 256 c 1,54,-1
 36 256 l 1,55,56
 19 305 19 305 44 298 c 1,57,-1
 55 346 l 1,58,59
 80 390 80 390 102 408 c 0,60,61
 200 484 200 484 297 417 c 0,62,63
 337 389 337 389 352 355 c 0,64,33
 386 272 386 272 300 236 c 128,-1,34
EndSplineSet
EndChar

StartChar: Iacute
Encoding: 205 205 156
Width: 308
GlyphClass: 2
Flags: W
LayerCount: 2
Fore
SplineSet
210 725 m 0,0,1
 241 741 241 741 248 727 c 0,2,3
 256 711 256 711 254 707 c 0,4,5
 251 703 251 703 228 690 c 2,6,7
 228 690 228 690 203 677 c 1,8,9
 175 652 175 652 131 633 c 0,10,11
 103 620 103 620 95 627 c 0,12,13
 87 633 87 633 90 640 c 0,14,15
 93 646 93 646 110 660 c 0,16,17
 150 694 150 694 210 725 c 0,0,1
221 567 m 2,18,-1
 184 567 l 1,19,20
 184 515 184 515 184 440.5 c 128,-1,21
 184 366 184 366 183.5 297.5 c 128,-1,22
 183 229 183 229 180 165.5 c 128,-1,23
 177 102 177 102 171 72 c 1,24,-1
 222 72 l 2,25,26
 254 72 254 72 262.5 68.5 c 128,-1,27
 271 65 271 65 269 54 c 0,28,29
 267 44 267 44 252.5 40.5 c 128,-1,30
 238 37 238 37 189 35 c 2,31,-1
 83 39 l 2,32,33
 73 39 73 39 64 45.5 c 128,-1,34
 55 52 55 52 57 59 c 0,35,36
 57 74 57 74 96 70 c 0,37,38
 134 66 134 66 136 72 c 0,39,40
 136 82 136 82 139 106 c 0,41,42
 143 131 143 131 146 249 c 128,-1,43
 149 367 149 367 149 458.5 c 128,-1,44
 149 550 149 550 146 566 c 1,45,46
 89 558 89 558 46 575 c 0,47,48
 22 584 22 584 35 594 c 0,49,50
 45 600 45 600 154 602.5 c 128,-1,51
 263 605 263 605 273 599 c 0,52,53
 287 590 287 590 264 577 c 0,54,55
 244 567 244 567 221 567 c 2,18,-1
EndSplineSet
EndChar

StartChar: Icircumflex
Encoding: 206 206 157
Width: 317
GlyphClass: 2
Flags: W
LayerCount: 2
Fore
SplineSet
155 787 m 0,0,1
 133 787 133 787 112 762 c 2,2,3
 112 762 112 762 29 652 c 1,4,5
 29 619 29 619 20 619 c 1,6,7
 40 620 40 620 62 644 c 0,8,9
 110 694 110 694 157 745 c 1,10,-1
 190 718 l 1,11,12
 292 624 292 624 297 622 c 0,13,14
 320 615 320 615 304 637 c 0,15,16
 285 664 285 664 265 691 c 0,17,18
 234 730 234 730 234 730 c 1,19,20
 198 787 198 787 155 787 c 0,0,1
230 567 m 2,21,-1
 193 567 l 1,22,23
 193 515 193 515 193 440.5 c 128,-1,24
 193 366 193 366 192.5 297.5 c 128,-1,25
 192 229 192 229 189 165.5 c 128,-1,26
 186 102 186 102 180 72 c 1,27,-1
 231 72 l 2,28,29
 263 72 263 72 271.5 68.5 c 128,-1,30
 280 65 280 65 278 54 c 0,31,32
 276 44 276 44 261.5 40.5 c 128,-1,33
 247 37 247 37 198 35 c 2,34,-1
 92 39 l 2,35,36
 82 39 82 39 73 45.5 c 128,-1,37
 64 52 64 52 66 59 c 0,38,39
 66 74 66 74 105 70 c 0,40,41
 143 66 143 66 145 72 c 0,42,43
 145 82 145 82 148 106 c 0,44,45
 152 131 152 131 155 249 c 128,-1,46
 158 367 158 367 158 458.5 c 128,-1,47
 158 550 158 550 155 566 c 1,48,49
 98 558 98 558 55 575 c 0,50,51
 31 584 31 584 44 594 c 0,52,53
 54 600 54 600 163 602.5 c 128,-1,54
 272 605 272 605 282 599 c 0,55,56
 296 590 296 590 273 577 c 0,57,58
 253 567 253 567 230 567 c 2,21,-1
EndSplineSet
EndChar

StartChar: ring
Encoding: 730 730 158
Width: 279
GlyphClass: 2
Flags: W
LayerCount: 2
Fore
SplineSet
124 537 m 0,0,1
 110 536 110 536 105 518 c 0,2,3
 85 443 85 443 158 459 c 0,4,5
 168 462 168 462 178 481 c 0,6,7
 184 492 184 492 183 498 c 0,8,9
 176 545 176 545 124 537 c 0,0,1
138 422 m 0,10,11
 96 422 96 422 73 462 c 256,12,13
 50 502 50 502 72 537 c 0,14,15
 91 570 91 570 109 577 c 0,16,17
 130 585 130 585 165 573 c 0,18,19
 193 563 193 563 203 543 c 0,20,21
 227 497 227 497 206 459 c 0,22,23
 186 422 186 422 138 422 c 0,10,11
EndSplineSet
EndChar

StartChar: ordmasculine
Encoding: 186 186 159
Width: 279
GlyphClass: 2
Flags: W
LayerCount: 2
Fore
SplineSet
108 564 m 0,0,1
 84 562 84 562 76 532 c 0,2,3
 42 408 42 408 166 434 c 0,4,5
 182 439 182 439 200 470 c 0,6,7
 210 488 210 488 208 498 c 0,8,9
 196 576 196 576 108 564 c 0,0,1
137 394 m 0,10,11
 79 394 79 394 47 447 c 128,-1,12
 15 500 15 500 45 547 c 0,13,14
 72 590 72 590 97 600 c 0,15,16
 126 610 126 610 174 594 c 0,17,18
 213 582 213 582 227 556 c 0,19,20
 260 494 260 494 231 443 c 0,21,22
 202 394 202 394 137 394 c 0,10,11
EndSplineSet
EndChar

StartChar: guillemotright
Encoding: 187 187 160
Width: 354
GlyphClass: 2
Flags: W
LayerCount: 2
Fore
SplineSet
239 372 m 2,0,1
 239 372 239 372 279 311 c 1,2,3
 330 249 330 249 323 220 c 0,4,5
 319 201 319 201 293 168 c 0,6,7
 277 148 277 148 252.5 107.5 c 128,-1,8
 228 67 228 67 209 49 c 0,9,10
 202 43 202 43 198.5 40 c 128,-1,11
 195 37 195 37 192 36.5 c 128,-1,12
 189 36 189 36 187.5 38 c 128,-1,13
 186 40 186 40 184 45 c 0,14,15
 179 57 179 57 198 94 c 0,16,17
 215 124 215 124 271 199 c 0,18,19
 286 219 286 219 275 243 c 0,20,21
 260 275 260 275 233 304 c 0,22,23
 220 318 220 318 195 371 c 0,24,25
 182 398 182 398 186 409 c 0,26,27
 193 428 193 428 216 405 c 0,28,29
 220 401 220 401 239 372 c 2,0,1
63 410 m 1,30,31
 58 409 58 409 99 341 c 128,-1,32
 140 273 140 273 171 229 c 1,33,34
 153 195 153 195 117 132.5 c 128,-1,35
 81 70 81 70 73 55 c 0,36,37
 67 38 67 38 53.5 38.5 c 128,-1,38
 40 39 40 39 34 49 c 0,39,40
 34 55 34 55 69 120 c 128,-1,41
 104 185 104 185 112 193 c 0,42,43
 134 215 134 215 90 291 c 0,44,45
 24 402 24 402 31 415 c 0,46,47
 36 423 36 423 49.5 421.5 c 128,-1,48
 63 420 63 420 63 410 c 1,30,31
EndSplineSet
EndChar

StartChar: Idieresis
Encoding: 207 207 161
Width: 317
GlyphClass: 2
Flags: W
LayerCount: 2
Fore
SplineSet
280 703 m 0,0,1
 286 690 286 690 271.5 674 c 128,-1,2
 257 658 257 658 233 653 c 0,3,4
 195 645 195 645 197 699 c 0,5,6
 197 720 197 720 223 725 c 0,7,8
 264 734 264 734 280 703 c 0,0,1
70 646 m 0,9,10
 56 646 56 646 48 666 c 128,-1,11
 40 686 40 686 46 710 c 0,12,13
 56 747 56 747 103 722 c 0,14,15
 122 712 122 712 115 687 c 0,16,17
 105 646 105 646 70 646 c 0,9,10
230 567 m 2,18,-1
 193 567 l 1,19,20
 193 515 193 515 193 440.5 c 128,-1,21
 193 366 193 366 192.5 297.5 c 128,-1,22
 192 229 192 229 189 165.5 c 128,-1,23
 186 102 186 102 180 72 c 1,24,-1
 231 72 l 2,25,26
 263 72 263 72 271.5 68.5 c 128,-1,27
 280 65 280 65 278 54 c 0,28,29
 276 44 276 44 261.5 40.5 c 128,-1,30
 247 37 247 37 198 35 c 2,31,-1
 92 39 l 2,32,33
 82 39 82 39 73 45.5 c 128,-1,34
 64 52 64 52 66 59 c 0,35,36
 66 74 66 74 105 70 c 0,37,38
 143 66 143 66 145 72 c 0,39,40
 145 82 145 82 148 106 c 0,41,42
 152 131 152 131 155 249 c 128,-1,43
 158 367 158 367 158 458.5 c 128,-1,44
 158 550 158 550 155 566 c 1,45,46
 98 558 98 558 55 575 c 0,47,48
 31 584 31 584 44 594 c 0,49,50
 54 600 54 600 163 602.5 c 128,-1,51
 272 605 272 605 282 599 c 0,52,53
 296 590 296 590 273 577 c 0,54,55
 253 567 253 567 230 567 c 2,18,-1
EndSplineSet
EndChar

StartChar: approxequal
Encoding: 8776 8776 162
Width: 437
GlyphClass: 2
Flags: W
LayerCount: 2
Fore
SplineSet
352 442 m 0,0,1
 352 465 352 465 366 470 c 0,2,3
 389 480 389 480 392 453 c 0,4,5
 395 430 395 430 365 400 c 0,6,7
 363 398 363 398 362 397 c 0,8,9
 299 343 299 343 234 376 c 0,10,11
 233 376 233 376 199 399 c 0,12,13
 110 461 110 461 67 394 c 0,14,15
 43 356 43 356 42 356 c 0,16,17
 33 352 33 352 29 364 c 0,18,19
 23 379 23 379 29 399 c 0,20,21
 41 435 41 435 76 452 c 0,22,23
 112 470 112 470 119 470 c 0,24,25
 130 471 130 471 163 456 c 0,26,27
 207 437 207 437 227 426 c 0,28,29
 296 390 296 390 334 414 c 0,30,31
 352 426 352 426 352 442 c 0,0,1
367 319 m 0,32,33
 367 342 367 342 381 347 c 0,34,35
 404 357 404 357 407 330 c 0,36,37
 410 308 410 308 379 277 c 0,38,39
 377 275 377 275 376 274 c 0,40,41
 308 223 308 223 237 278 c 0,42,43
 214 295 214 295 202 301 c 0,44,45
 129 335 129 335 80 286 c 0,46,47
 77 283 77 283 55 248 c 0,48,49
 49 238 49 238 42 256 c 0,50,51
 36 271 36 271 42 291 c 0,52,53
 60 345 60 345 79 354 c 0,54,55
 115 372 115 372 122 372 c 0,56,57
 134 373 134 373 166 358 c 0,58,59
 216 336 216 336 230 321 c 0,60,61
 297 258 297 258 348 292 c 0,62,63
 367 304 367 304 367 319 c 0,32,33
EndSplineSet
EndChar

StartChar: cedilla
Encoding: 184 184 164
Width: 171
GlyphClass: 2
Flags: W
LayerCount: 2
Fore
SplineSet
95.5 95 m 128,-1,1
 102 93 102 93 105.5 86.5 c 128,-1,2
 109 80 109 80 107 73 c 2,3,4
 107 73 107 73 106.5 71 c 128,-1,5
 106 69 106 69 105 66.5 c 128,-1,6
 104 64 104 64 103 61.5 c 128,-1,7
 102 59 102 59 101.5 57 c 128,-1,8
 101 55 101 55 102 55 c 0,9,10
 109 55 109 55 114 49 c 0,11,12
 116 49 116 49 118.5 48 c 128,-1,13
 121 47 121 47 127 43.5 c 128,-1,14
 133 40 133 40 138 35 c 128,-1,15
 143 30 143 30 147 21 c 128,-1,16
 151 12 151 12 151 1 c 0,17,18
 151 -19 151 -19 139.5 -33.5 c 128,-1,19
 128 -48 128 -48 112.5 -54.5 c 128,-1,20
 97 -61 97 -61 80 -61 c 0,21,22
 74 -61 74 -61 67.5 -59 c 128,-1,23
 61 -57 61 -57 57 -55 c 128,-1,24
 53 -53 53 -53 49.5 -50.5 c 128,-1,25
 46 -48 46 -48 45 -47 c 0,26,27
 43 -46 43 -46 41 -45 c 2,28,-1
 25 -32 l 2,29,30
 19 -27 19 -27 18 -20 c 128,-1,31
 17 -13 17 -13 21.5 -8 c 128,-1,32
 26 -3 26 -3 33 -2.5 c 128,-1,33
 40 -2 40 -2 45 -6 c 2,34,-1
 61 -19 l 2,35,36
 68 -24 68 -24 68 -25 c 2,37,-1
 57 -17 l 2,38,39
 65 -20 65 -20 74 -25 c 0,40,41
 78 -27 78 -27 78 -27 c 1,42,43
 95 -27 95 -27 106 -18.5 c 128,-1,44
 117 -10 117 -10 117 3 c 0,45,46
 117 7 117 7 115 9.5 c 128,-1,47
 113 12 113 12 109 15 c 128,-1,48
 105 18 105 18 102 21 c 2,49,-1
 79 22 l 2,50,51
 56 23 56 23 63 45 c 2,52,-1
 75 85 l 2,53,54
 77 91 77 91 83 94 c 128,-1,0
 89 97 89 97 95.5 95 c 128,-1,1
EndSplineSet
EndChar

